G04*
G04 #@! TF.GenerationSoftware,Altium Limited,Altium Designer,22.0.2 (36)*
G04*
G04 Layer_Color=65535*
%FSLAX44Y44*%
%MOMM*%
G71*
G04*
G04 #@! TF.SameCoordinates,DEF1482B-7F84-4A2E-A234-9A9D801D0D5E*
G04*
G04*
G04 #@! TF.FilePolarity,Positive*
G04*
G01*
G75*
%ADD10C,0.2500*%
%ADD11C,0.2540*%
%ADD12C,0.6000*%
%ADD13C,0.2000*%
%ADD14C,0.1000*%
%ADD15C,0.1270*%
D10*
X1160270Y758760D02*
G03*
X1160270Y758760I-1250J0D01*
G01*
X1226420Y171070D02*
G03*
X1226420Y171070I-1250J0D01*
G01*
X577850Y386250D02*
G03*
X577850Y386250I-1250J0D01*
G01*
X612800Y232250D02*
G03*
X612800Y232250I-1250J0D01*
G01*
X360250Y298460D02*
G03*
X360250Y298460I-1250J0D01*
G01*
X201000Y300330D02*
G03*
X201000Y300330I-1250J0D01*
G01*
X526930Y856370D02*
G03*
X526930Y856370I-1250J0D01*
G01*
X1216340Y758760D02*
G03*
X1216340Y758760I-1250J0D01*
G01*
D11*
X1055510Y144950D02*
G03*
X1055510Y144950I-1270J0D01*
G01*
X251220Y402780D02*
G03*
X251220Y402780I-1270J0D01*
G01*
X75000Y50000D02*
G03*
X75000Y50000I-35000J0D01*
G01*
X1295000D02*
G03*
X1295000Y50000I-35000J0D01*
G01*
Y850000D02*
G03*
X1295000Y850000I-35000J0D01*
G01*
X75000D02*
G03*
X75000Y850000I-35000J0D01*
G01*
X700550Y5570D02*
Y19540D01*
X861550Y5570D02*
Y19540D01*
X700550D02*
X861550D01*
X896050Y4540D02*
Y254540D01*
X666050Y4540D02*
Y254540D01*
Y4540D02*
X896050D01*
X666050Y254540D02*
X896050D01*
X254000Y400000D02*
X284000D01*
X254000Y370000D02*
X284000D01*
X724360Y742890D02*
Y753890D01*
X582360Y742890D02*
Y753890D01*
X724360Y691690D02*
Y716890D01*
X582360Y753890D02*
X724360D01*
X706360Y691690D02*
X724360D01*
X582360D02*
X600360D01*
X582360D02*
Y716890D01*
X1079000Y8000D02*
Y83000D01*
X975000Y8000D02*
Y83000D01*
Y8000D02*
X1079000D01*
X975000Y83000D02*
X1079000D01*
X975000Y13000D02*
X1079000D01*
X645000Y10000D02*
Y85000D01*
X541000Y10000D02*
Y85000D01*
Y10000D02*
X645000D01*
X541000Y85000D02*
X645000D01*
X541000Y15000D02*
X645000D01*
X188000Y8270D02*
Y83270D01*
X84000Y8270D02*
Y83270D01*
Y8270D02*
X188000D01*
X84000Y83270D02*
X188000D01*
X84000Y13270D02*
X188000D01*
X299333Y8270D02*
Y83270D01*
X195333Y8270D02*
Y83270D01*
Y8270D02*
X299333D01*
X195333Y83270D02*
X299333D01*
X195333Y13270D02*
X299333D01*
X410667Y9000D02*
Y84000D01*
X306667Y9000D02*
Y84000D01*
Y9000D02*
X410667D01*
X306667Y84000D02*
X410667D01*
X306667Y14000D02*
X410667D01*
X522000Y10000D02*
Y85000D01*
X418000Y10000D02*
Y85000D01*
Y10000D02*
X522000D01*
X418000Y85000D02*
X522000D01*
X418000Y15000D02*
X522000D01*
X1032330Y215660D02*
Y235980D01*
X494840Y400950D02*
X515160D01*
X1063990Y728980D02*
X1084310D01*
X987790D02*
X1008110D01*
X962390D02*
X982710D01*
X154420Y209580D02*
Y229900D01*
X155690Y316260D02*
Y336580D01*
X312950Y208840D02*
Y229160D01*
X312400Y315660D02*
Y335980D01*
X650540Y30775D02*
Y15540D01*
X658158D01*
X660697Y18079D01*
Y20618D01*
X658158Y23157D01*
X650540D01*
X658158D01*
X660697Y25697D01*
Y28236D01*
X658158Y30775D01*
X650540D01*
X526540Y16540D02*
Y26697D01*
X531618Y31775D01*
X536697Y26697D01*
Y16540D01*
Y24158D01*
X526540D01*
X586798Y657224D02*
X576802D01*
Y662222D01*
X578468Y663888D01*
X581800D01*
X583466Y662222D01*
Y657224D01*
X586798Y667221D02*
Y670553D01*
Y668887D01*
X576802D01*
X578468Y667221D01*
Y675552D02*
X576802Y677218D01*
Y680550D01*
X578468Y682216D01*
X580134D01*
X581800Y680550D01*
Y678884D01*
Y680550D01*
X583466Y682216D01*
X585132D01*
X586798Y680550D01*
Y677218D01*
X585132Y675552D01*
X374669Y89002D02*
Y98998D01*
X379668D01*
X381334Y97332D01*
Y94000D01*
X379668Y92334D01*
X374669D01*
X389664Y89002D02*
Y98998D01*
X384666Y94000D01*
X391331D01*
X1263504Y742998D02*
Y733002D01*
X1270169D01*
X1273501D02*
X1276833D01*
X1275167D01*
Y742998D01*
X1273501Y741332D01*
X1270169Y724332D02*
X1268502Y725998D01*
X1265170D01*
X1263504Y724332D01*
Y717668D01*
X1265170Y716002D01*
X1268502D01*
X1270169Y717668D01*
X1273501Y716002D02*
X1276833D01*
X1275167D01*
Y725998D01*
X1273501Y724332D01*
X1281831D02*
X1283498Y725998D01*
X1286830D01*
X1288496Y724332D01*
Y717668D01*
X1286830Y716002D01*
X1283498D01*
X1281831Y717668D01*
Y724332D01*
X1026669Y135998D02*
Y127668D01*
X1028335Y126002D01*
X1031668D01*
X1033334Y127668D01*
Y135998D01*
X1036666Y127668D02*
X1038332Y126002D01*
X1041665D01*
X1043331Y127668D01*
Y134332D01*
X1041665Y135998D01*
X1038332D01*
X1036666Y134332D01*
Y132666D01*
X1038332Y131000D01*
X1043331D01*
X667258Y273395D02*
Y265064D01*
X668924Y263398D01*
X672256D01*
X673923Y265064D01*
Y273395D01*
X677255D02*
X683919D01*
Y271729D01*
X677255Y265064D01*
Y263398D01*
X241870Y422965D02*
Y414634D01*
X243536Y412968D01*
X246868D01*
X248535Y414634D01*
Y422965D01*
X258531D02*
X251867D01*
Y417966D01*
X255199Y419632D01*
X256865D01*
X258531Y417966D01*
Y414634D01*
X256865Y412968D01*
X253533D01*
X251867Y414634D01*
X1219669Y116998D02*
Y108668D01*
X1221336Y107002D01*
X1224668D01*
X1226334Y108668D01*
Y116998D01*
X1229666Y115332D02*
X1231332Y116998D01*
X1234665D01*
X1236331Y115332D01*
Y113666D01*
X1234665Y112000D01*
X1236331Y110334D01*
Y108668D01*
X1234665Y107002D01*
X1231332D01*
X1229666Y108668D01*
Y110334D01*
X1231332Y112000D01*
X1229666Y113666D01*
Y115332D01*
X1231332Y112000D02*
X1234665D01*
X477266Y414873D02*
Y406542D01*
X478932Y404876D01*
X482264D01*
X483931Y406542D01*
Y414873D01*
X493927D02*
X490595Y413207D01*
X487263Y409874D01*
Y406542D01*
X488929Y404876D01*
X492261D01*
X493927Y406542D01*
Y408208D01*
X492261Y409874D01*
X487263D01*
X282669Y249998D02*
Y241668D01*
X284335Y240002D01*
X287668D01*
X289334Y241668D01*
Y249998D01*
X292666Y248332D02*
X294332Y249998D01*
X297665D01*
X299331Y248332D01*
Y246666D01*
X297665Y245000D01*
X295998D01*
X297665D01*
X299331Y243334D01*
Y241668D01*
X297665Y240002D01*
X294332D01*
X292666Y241668D01*
X120669Y252998D02*
Y244668D01*
X122336Y243002D01*
X125668D01*
X127334Y244668D01*
Y252998D01*
X137331Y243002D02*
X130666D01*
X137331Y249666D01*
Y251332D01*
X135665Y252998D01*
X132332D01*
X130666Y251332D01*
X537669Y223998D02*
Y215668D01*
X539336Y214002D01*
X542668D01*
X544334Y215668D01*
Y223998D01*
X552664Y214002D02*
Y223998D01*
X547666Y219000D01*
X554331D01*
X1070422Y773989D02*
X1080418D01*
Y778988D01*
X1078752Y780654D01*
X1072088D01*
X1070422Y778988D01*
Y773989D01*
X1072088Y783986D02*
X1070422Y785652D01*
Y788985D01*
X1072088Y790651D01*
X1073754D01*
X1075420Y788985D01*
X1077086Y790651D01*
X1078752D01*
X1080418Y788985D01*
Y785652D01*
X1078752Y783986D01*
X1077086D01*
X1075420Y785652D01*
X1073754Y783986D01*
X1072088D01*
X1075420Y785652D02*
Y788985D01*
X991682Y773989D02*
X1001678D01*
Y778988D01*
X1000012Y780654D01*
X993348D01*
X991682Y778988D01*
Y773989D01*
Y783986D02*
Y790651D01*
X993348D01*
X1000012Y783986D01*
X1001678D01*
X967552Y775259D02*
X977548D01*
Y780258D01*
X975882Y781924D01*
X969218D01*
X967552Y780258D01*
Y775259D01*
Y791921D02*
X969218Y788588D01*
X972550Y785256D01*
X975882D01*
X977548Y786922D01*
Y790255D01*
X975882Y791921D01*
X974216D01*
X972550Y790255D01*
Y785256D01*
X1076646Y566338D02*
Y558008D01*
X1078312Y556342D01*
X1081644D01*
X1083310Y558008D01*
Y566338D01*
X1086642Y556342D02*
X1089975D01*
X1088308D01*
Y566338D01*
X1086642Y564672D01*
X1175938Y763474D02*
X1165942D01*
Y768472D01*
X1167608Y770138D01*
X1170940D01*
X1172606Y768472D01*
Y763474D01*
Y766806D02*
X1175938Y770138D01*
Y773471D02*
Y776803D01*
Y775137D01*
X1165942D01*
X1167608Y773471D01*
X1165942Y788466D02*
X1167608Y785134D01*
X1170940Y781802D01*
X1174272D01*
X1175938Y783468D01*
Y786800D01*
X1174272Y788466D01*
X1172606D01*
X1170940Y786800D01*
Y781802D01*
X630998Y129671D02*
X621002D01*
Y134669D01*
X622668Y136335D01*
X626000D01*
X627666Y134669D01*
Y129671D01*
Y133003D02*
X630998Y136335D01*
Y144666D02*
X621002D01*
X626000Y139668D01*
Y146332D01*
X630998Y154663D02*
X621002D01*
X626000Y149664D01*
Y156329D01*
X1065596Y651671D02*
X1055599D01*
Y656669D01*
X1057265Y658335D01*
X1060597D01*
X1062263Y656669D01*
Y651671D01*
Y655003D02*
X1065596Y658335D01*
X1057265Y661668D02*
X1055599Y663334D01*
Y666666D01*
X1057265Y668332D01*
X1058931D01*
X1060597Y666666D01*
Y665000D01*
Y666666D01*
X1062263Y668332D01*
X1063930D01*
X1065596Y666666D01*
Y663334D01*
X1063930Y661668D01*
X1065596Y678329D02*
Y671665D01*
X1058931Y678329D01*
X1057265D01*
X1055599Y676663D01*
Y673331D01*
X1057265Y671665D01*
X1113671Y177002D02*
Y186998D01*
X1118669D01*
X1120335Y185332D01*
Y182000D01*
X1118669Y180334D01*
X1113671D01*
X1117003D02*
X1120335Y177002D01*
X1128666D02*
Y186998D01*
X1123668Y182000D01*
X1130332D01*
X1133664Y186998D02*
X1140329D01*
Y185332D01*
X1133664Y178668D01*
Y177002D01*
X998671Y195002D02*
Y204998D01*
X1003669D01*
X1005335Y203332D01*
Y200000D01*
X1003669Y198334D01*
X998671D01*
X1002003D02*
X1005335Y195002D01*
X1013666D02*
Y204998D01*
X1008668Y200000D01*
X1015332D01*
X1018664Y203332D02*
X1020331Y204998D01*
X1023663D01*
X1025329Y203332D01*
Y201666D01*
X1023663Y200000D01*
X1025329Y198334D01*
Y196668D01*
X1023663Y195002D01*
X1020331D01*
X1018664Y196668D01*
Y198334D01*
X1020331Y200000D01*
X1018664Y201666D01*
Y203332D01*
X1020331Y200000D02*
X1023663D01*
X1122671Y221002D02*
Y230998D01*
X1127669D01*
X1129335Y229332D01*
Y226000D01*
X1127669Y224334D01*
X1122671D01*
X1126003D02*
X1129335Y221002D01*
X1137666D02*
Y230998D01*
X1132668Y226000D01*
X1139332D01*
X1142664Y222668D02*
X1144331Y221002D01*
X1147663D01*
X1149329Y222668D01*
Y229332D01*
X1147663Y230998D01*
X1144331D01*
X1142664Y229332D01*
Y227666D01*
X1144331Y226000D01*
X1149329D01*
X966671Y464902D02*
Y474898D01*
X971669D01*
X973335Y473232D01*
Y469900D01*
X971669Y468234D01*
X966671D01*
X970003D02*
X973335Y464902D01*
X976668Y473232D02*
X978334Y474898D01*
X981666D01*
X983332Y473232D01*
Y471566D01*
X981666Y469900D01*
X980000D01*
X981666D01*
X983332Y468234D01*
Y466568D01*
X981666Y464902D01*
X978334D01*
X976668Y466568D01*
X993329Y474898D02*
X986665D01*
Y469900D01*
X989997Y471566D01*
X991663D01*
X993329Y469900D01*
Y466568D01*
X991663Y464902D01*
X988331D01*
X986665Y466568D01*
X1118598Y767284D02*
X1108602D01*
Y772282D01*
X1110268Y773949D01*
X1113600D01*
X1115266Y772282D01*
Y767284D01*
Y770616D02*
X1118598Y773949D01*
Y777281D02*
Y780613D01*
Y778947D01*
X1108602D01*
X1110268Y777281D01*
X1108602Y792276D02*
Y785611D01*
X1113600D01*
X1111934Y788944D01*
Y790610D01*
X1113600Y792276D01*
X1116932D01*
X1118598Y790610D01*
Y787278D01*
X1116932Y785611D01*
X1164531Y653337D02*
X1154534D01*
Y658335D01*
X1156200Y660002D01*
X1159532D01*
X1161199Y658335D01*
Y653337D01*
Y656669D02*
X1164531Y660002D01*
X1156200Y663334D02*
X1154534Y665000D01*
Y668332D01*
X1156200Y669998D01*
X1157866D01*
X1159532Y668332D01*
Y666666D01*
Y668332D01*
X1161199Y669998D01*
X1162865D01*
X1164531Y668332D01*
Y665000D01*
X1162865Y663334D01*
X1164531Y673331D02*
Y676663D01*
Y674997D01*
X1154534D01*
X1156200Y673331D01*
X561671Y806002D02*
Y815998D01*
X566669D01*
X568335Y814332D01*
Y811000D01*
X566669Y809334D01*
X561671D01*
X565003D02*
X568335Y806002D01*
X576666D02*
Y815998D01*
X571668Y811000D01*
X578332D01*
X588329Y815998D02*
X584997Y814332D01*
X581665Y811000D01*
Y807668D01*
X583331Y806002D01*
X586663D01*
X588329Y807668D01*
Y809334D01*
X586663Y811000D01*
X581665D01*
X1213998Y651671D02*
X1204001D01*
Y656669D01*
X1205667Y658335D01*
X1209000D01*
X1210666Y656669D01*
Y651671D01*
Y655003D02*
X1213998Y658335D01*
Y668332D02*
Y661668D01*
X1207334Y668332D01*
X1205667D01*
X1204001Y666666D01*
Y663334D01*
X1205667Y661668D01*
X1212332Y671665D02*
X1213998Y673331D01*
Y676663D01*
X1212332Y678329D01*
X1205667D01*
X1204001Y676663D01*
Y673331D01*
X1205667Y671665D01*
X1207334D01*
X1209000Y673331D01*
Y678329D01*
X966671Y384892D02*
Y394888D01*
X971669D01*
X973335Y393222D01*
Y389890D01*
X971669Y388224D01*
X966671D01*
X970003D02*
X973335Y384892D01*
X976668Y393222D02*
X978334Y394888D01*
X981666D01*
X983332Y393222D01*
Y391556D01*
X981666Y389890D01*
X980000D01*
X981666D01*
X983332Y388224D01*
Y386558D01*
X981666Y384892D01*
X978334D01*
X976668Y386558D01*
X986665D02*
X988331Y384892D01*
X991663D01*
X993329Y386558D01*
Y393222D01*
X991663Y394888D01*
X988331D01*
X986665Y393222D01*
Y391556D01*
X988331Y389890D01*
X993329D01*
X371998Y155669D02*
X362002D01*
Y160668D01*
X363668Y162334D01*
X367000D01*
X368666Y160668D01*
Y155669D01*
Y159002D02*
X371998Y162334D01*
X362002Y172331D02*
Y165666D01*
X367000D01*
X365334Y168998D01*
Y170665D01*
X367000Y172331D01*
X370332D01*
X371998Y170665D01*
Y167332D01*
X370332Y165666D01*
X404669Y211002D02*
Y220998D01*
X409668D01*
X411334Y219332D01*
Y216000D01*
X409668Y214334D01*
X404669D01*
X408002D02*
X411334Y211002D01*
X414666Y219332D02*
X416332Y220998D01*
X419664D01*
X421331Y219332D01*
Y217666D01*
X419664Y216000D01*
X417998D01*
X419664D01*
X421331Y214334D01*
Y212668D01*
X419664Y211002D01*
X416332D01*
X414666Y212668D01*
X413918Y296295D02*
X403922D01*
Y301294D01*
X405588Y302960D01*
X408920D01*
X410586Y301294D01*
Y296295D01*
Y299628D02*
X413918Y302960D01*
Y306292D02*
Y309625D01*
Y307958D01*
X403922D01*
X405588Y306292D01*
X293998Y155669D02*
X284002D01*
Y160668D01*
X285668Y162334D01*
X289000D01*
X290666Y160668D01*
Y155669D01*
Y159002D02*
X293998Y162334D01*
X285668Y165666D02*
X284002Y167332D01*
Y170665D01*
X285668Y172331D01*
X287334D01*
X289000Y170665D01*
X290666Y172331D01*
X292332D01*
X293998Y170665D01*
Y167332D01*
X292332Y165666D01*
X290666D01*
X289000Y167332D01*
X287334Y165666D01*
X285668D01*
X289000Y167332D02*
Y170665D01*
X120504Y187002D02*
Y196998D01*
X125502D01*
X127169Y195332D01*
Y192000D01*
X125502Y190334D01*
X120504D01*
X123836D02*
X127169Y187002D01*
X130501D02*
X133833D01*
X132167D01*
Y196998D01*
X130501Y195332D01*
X145496Y187002D02*
X138832D01*
X145496Y193666D01*
Y195332D01*
X143830Y196998D01*
X140498D01*
X138832Y195332D01*
X132998Y300504D02*
X123002D01*
Y305502D01*
X124668Y307169D01*
X128000D01*
X129666Y305502D01*
Y300504D01*
Y303836D02*
X132998Y307169D01*
Y310501D02*
Y313833D01*
Y312167D01*
X123002D01*
X124668Y310501D01*
Y318831D02*
X123002Y320498D01*
Y323830D01*
X124668Y325496D01*
X131332D01*
X132998Y323830D01*
Y320498D01*
X131332Y318831D01*
X124668D01*
X211998Y153170D02*
X202002D01*
Y158169D01*
X203668Y159835D01*
X207000D01*
X208666Y158169D01*
Y153170D01*
Y156502D02*
X211998Y159835D01*
Y163167D02*
Y166499D01*
Y164833D01*
X202002D01*
X203668Y163167D01*
X211998Y171498D02*
Y174830D01*
Y173164D01*
X202002D01*
X203668Y171498D01*
X294998Y297669D02*
X285002D01*
Y302668D01*
X286668Y304334D01*
X290000D01*
X291666Y302668D01*
Y297669D01*
Y301002D02*
X294998Y304334D01*
Y312665D02*
X285002D01*
X290000Y307666D01*
Y314331D01*
X217998Y297669D02*
X208002D01*
Y302668D01*
X209668Y304334D01*
X213000D01*
X214666Y302668D01*
Y297669D01*
Y301002D02*
X217998Y304334D01*
X208002Y307666D02*
Y314331D01*
X209668D01*
X216332Y307666D01*
X217998D01*
X455998Y145669D02*
X446002D01*
Y150668D01*
X447668Y152334D01*
X451000D01*
X452666Y150668D01*
Y145669D01*
Y149002D02*
X455998Y152334D01*
Y162331D02*
Y155666D01*
X449334Y162331D01*
X447668D01*
X446002Y160665D01*
Y157332D01*
X447668Y155666D01*
X289669Y188002D02*
Y197998D01*
X294668D01*
X296334Y196332D01*
Y193000D01*
X294668Y191334D01*
X289669D01*
X293002D02*
X296334Y188002D01*
X306331Y197998D02*
X302998Y196332D01*
X299666Y193000D01*
Y189668D01*
X301332Y188002D01*
X304664D01*
X306331Y189668D01*
Y191334D01*
X304664Y193000D01*
X299666D01*
X243669Y206002D02*
Y215998D01*
X248668D01*
X250334Y214332D01*
Y211000D01*
X248668Y209334D01*
X243669D01*
X247002D02*
X250334Y206002D01*
X253666Y207668D02*
X255332Y206002D01*
X258664D01*
X260331Y207668D01*
Y214332D01*
X258664Y215998D01*
X255332D01*
X253666Y214332D01*
Y212666D01*
X255332Y211000D01*
X260331D01*
X966671Y411562D02*
Y421558D01*
X971669D01*
X973335Y419892D01*
Y416560D01*
X971669Y414894D01*
X966671D01*
X970003D02*
X973335Y411562D01*
X976668Y419892D02*
X978334Y421558D01*
X981666D01*
X983332Y419892D01*
Y418226D01*
X981666Y416560D01*
X980000D01*
X981666D01*
X983332Y414894D01*
Y413228D01*
X981666Y411562D01*
X978334D01*
X976668Y413228D01*
X986665Y421558D02*
X993329D01*
Y419892D01*
X986665Y413228D01*
Y411562D01*
X1151249Y435528D02*
Y425532D01*
X1146251D01*
X1144585Y427198D01*
Y430530D01*
X1146251Y432196D01*
X1151249D01*
X1147917D02*
X1144585Y435528D01*
X1134588D02*
X1141252D01*
X1134588Y428864D01*
Y427198D01*
X1136254Y425532D01*
X1139586D01*
X1141252Y427198D01*
X1124591Y425532D02*
X1127923Y427198D01*
X1131255Y430530D01*
Y433862D01*
X1129589Y435528D01*
X1126257D01*
X1124591Y433862D01*
Y432196D01*
X1126257Y430530D01*
X1131255D01*
X966671Y320122D02*
Y330118D01*
X971669D01*
X973335Y328452D01*
Y325120D01*
X971669Y323454D01*
X966671D01*
X970003D02*
X973335Y320122D01*
X981666D02*
Y330118D01*
X976668Y325120D01*
X983332D01*
X986665Y328452D02*
X988331Y330118D01*
X991663D01*
X993329Y328452D01*
Y326786D01*
X991663Y325120D01*
X989997D01*
X991663D01*
X993329Y323454D01*
Y321788D01*
X991663Y320122D01*
X988331D01*
X986665Y321788D01*
X1040862Y651671D02*
X1030865D01*
Y656669D01*
X1032531Y658335D01*
X1035864D01*
X1037530Y656669D01*
Y651671D01*
Y655003D02*
X1040862Y658335D01*
Y668332D02*
Y661668D01*
X1034198Y668332D01*
X1032531D01*
X1030865Y666666D01*
Y663334D01*
X1032531Y661668D01*
X1040862Y676663D02*
X1030865D01*
X1035864Y671665D01*
Y678329D01*
X1016128Y651671D02*
X1006132D01*
Y656669D01*
X1007798Y658335D01*
X1011130D01*
X1012796Y656669D01*
Y651671D01*
Y655003D02*
X1016128Y658335D01*
Y668332D02*
Y661668D01*
X1009464Y668332D01*
X1007798D01*
X1006132Y666666D01*
Y663334D01*
X1007798Y661668D01*
X1006132Y678329D02*
Y671665D01*
X1011130D01*
X1009464Y674997D01*
Y676663D01*
X1011130Y678329D01*
X1014462D01*
X1016128Y676663D01*
Y673331D01*
X1014462Y671665D01*
X968337Y346792D02*
Y356788D01*
X973335D01*
X975002Y355122D01*
Y351790D01*
X973335Y350124D01*
X968337D01*
X971669D02*
X975002Y346792D01*
X983332D02*
Y356788D01*
X978334Y351790D01*
X984998D01*
X988331Y346792D02*
X991663D01*
X989997D01*
Y356788D01*
X988331Y355122D01*
X1090330Y651671D02*
X1080333D01*
Y656669D01*
X1081999Y658335D01*
X1085331D01*
X1086997Y656669D01*
Y651671D01*
Y655003D02*
X1090330Y658335D01*
Y668332D02*
Y661668D01*
X1083665Y668332D01*
X1081999D01*
X1080333Y666666D01*
Y663334D01*
X1081999Y661668D01*
Y671665D02*
X1080333Y673331D01*
Y676663D01*
X1081999Y678329D01*
X1083665D01*
X1085331Y676663D01*
Y674997D01*
Y676663D01*
X1086997Y678329D01*
X1088663D01*
X1090330Y676663D01*
Y673331D01*
X1088663Y671665D01*
X1261998Y321671D02*
X1252002D01*
Y326669D01*
X1253668Y328335D01*
X1257000D01*
X1258666Y326669D01*
Y321671D01*
Y325003D02*
X1261998Y328335D01*
Y338332D02*
Y331668D01*
X1255334Y338332D01*
X1253668D01*
X1252002Y336666D01*
Y333334D01*
X1253668Y331668D01*
Y341665D02*
X1252002Y343331D01*
Y346663D01*
X1253668Y348329D01*
X1260332D01*
X1261998Y346663D01*
Y343331D01*
X1260332Y341665D01*
X1253668D01*
X966671Y491572D02*
Y501568D01*
X971669D01*
X973335Y499902D01*
Y496570D01*
X971669Y494904D01*
X966671D01*
X970003D02*
X973335Y491572D01*
X976668Y499902D02*
X978334Y501568D01*
X981666D01*
X983332Y499902D01*
Y498236D01*
X981666Y496570D01*
X980000D01*
X981666D01*
X983332Y494904D01*
Y493238D01*
X981666Y491572D01*
X978334D01*
X976668Y493238D01*
X991663Y491572D02*
Y501568D01*
X986665Y496570D01*
X993329D01*
X606671Y402002D02*
Y411998D01*
X611669D01*
X613335Y410332D01*
Y407000D01*
X611669Y405334D01*
X606671D01*
X610003D02*
X613335Y402002D01*
X623332D02*
X616668D01*
X623332Y408666D01*
Y410332D01*
X621666Y411998D01*
X618334D01*
X616668Y410332D01*
X626665D02*
X628331Y411998D01*
X631663D01*
X633329Y410332D01*
Y408666D01*
X631663Y407000D01*
X633329Y405334D01*
Y403668D01*
X631663Y402002D01*
X628331D01*
X626665Y403668D01*
Y405334D01*
X628331Y407000D01*
X626665Y408666D01*
Y410332D01*
X628331Y407000D02*
X631663D01*
X966671Y518242D02*
Y528238D01*
X971669D01*
X973335Y526572D01*
Y523240D01*
X971669Y521574D01*
X966671D01*
X970003D02*
X973335Y518242D01*
X976668Y526572D02*
X978334Y528238D01*
X981666D01*
X983332Y526572D01*
Y524906D01*
X981666Y523240D01*
X980000D01*
X981666D01*
X983332Y521574D01*
Y519908D01*
X981666Y518242D01*
X978334D01*
X976668Y519908D01*
X986665Y526572D02*
X988331Y528238D01*
X991663D01*
X993329Y526572D01*
Y524906D01*
X991663Y523240D01*
X989997D01*
X991663D01*
X993329Y521574D01*
Y519908D01*
X991663Y518242D01*
X988331D01*
X986665Y519908D01*
X1239968Y321604D02*
X1229972D01*
Y326602D01*
X1231638Y328269D01*
X1234970D01*
X1236636Y326602D01*
Y321604D01*
Y324936D02*
X1239968Y328269D01*
Y331601D02*
Y334933D01*
Y333267D01*
X1229972D01*
X1231638Y331601D01*
X1238302Y339931D02*
X1239968Y341598D01*
Y344930D01*
X1238302Y346596D01*
X1231638D01*
X1229972Y344930D01*
Y341598D01*
X1231638Y339931D01*
X1233304D01*
X1234970Y341598D01*
Y346596D01*
X1139797Y651671D02*
X1129800D01*
Y656669D01*
X1131466Y658335D01*
X1134799D01*
X1136465Y656669D01*
Y651671D01*
Y655003D02*
X1139797Y658335D01*
Y666666D02*
X1129800D01*
X1134799Y661668D01*
Y668332D01*
X1139797Y678329D02*
Y671665D01*
X1133132Y678329D01*
X1131466D01*
X1129800Y676663D01*
Y673331D01*
X1131466Y671665D01*
X1112998Y321504D02*
X1103002D01*
Y326502D01*
X1104668Y328169D01*
X1108000D01*
X1109666Y326502D01*
Y321504D01*
Y324836D02*
X1112998Y328169D01*
Y331501D02*
Y334833D01*
Y333167D01*
X1103002D01*
X1104668Y331501D01*
Y339832D02*
X1103002Y341498D01*
Y344830D01*
X1104668Y346496D01*
X1106334D01*
X1108000Y344830D01*
Y343164D01*
Y344830D01*
X1109666Y346496D01*
X1111332D01*
X1112998Y344830D01*
Y341498D01*
X1111332Y339832D01*
X966671Y293452D02*
Y303448D01*
X971669D01*
X973335Y301782D01*
Y298450D01*
X971669Y296784D01*
X966671D01*
X970003D02*
X973335Y293452D01*
X976668Y301782D02*
X978334Y303448D01*
X981666D01*
X983332Y301782D01*
Y300116D01*
X981666Y298450D01*
X980000D01*
X981666D01*
X983332Y296784D01*
Y295118D01*
X981666Y293452D01*
X978334D01*
X976668Y295118D01*
X986665Y301782D02*
X988331Y303448D01*
X991663D01*
X993329Y301782D01*
Y300116D01*
X991663Y298450D01*
X993329Y296784D01*
Y295118D01*
X991663Y293452D01*
X988331D01*
X986665Y295118D01*
Y296784D01*
X988331Y298450D01*
X986665Y300116D01*
Y301782D01*
X988331Y298450D02*
X991663D01*
X966671Y438232D02*
Y448228D01*
X971669D01*
X973335Y446562D01*
Y443230D01*
X971669Y441564D01*
X966671D01*
X970003D02*
X973335Y438232D01*
X976668Y446562D02*
X978334Y448228D01*
X981666D01*
X983332Y446562D01*
Y444896D01*
X981666Y443230D01*
X980000D01*
X981666D01*
X983332Y441564D01*
Y439898D01*
X981666Y438232D01*
X978334D01*
X976668Y439898D01*
X993329Y448228D02*
X989997Y446562D01*
X986665Y443230D01*
Y439898D01*
X988331Y438232D01*
X991663D01*
X993329Y439898D01*
Y441564D01*
X991663Y443230D01*
X986665D01*
X1115063Y651671D02*
X1105067D01*
Y656669D01*
X1106733Y658335D01*
X1110065D01*
X1111731Y656669D01*
Y651671D01*
Y655003D02*
X1115063Y658335D01*
Y668332D02*
Y661668D01*
X1108399Y668332D01*
X1106733D01*
X1105067Y666666D01*
Y663334D01*
X1106733Y661668D01*
X1115063Y678329D02*
Y671665D01*
X1108399Y678329D01*
X1106733D01*
X1105067Y676663D01*
Y673331D01*
X1106733Y671665D01*
X563671Y778002D02*
Y787998D01*
X568669D01*
X570336Y786332D01*
Y783000D01*
X568669Y781334D01*
X563671D01*
X567003D02*
X570336Y778002D01*
X578666D02*
Y787998D01*
X573668Y783000D01*
X580332D01*
X590329Y787998D02*
X583665D01*
Y783000D01*
X586997Y784666D01*
X588663D01*
X590329Y783000D01*
Y779668D01*
X588663Y778002D01*
X585331D01*
X583665Y779668D01*
X605671Y331002D02*
Y340998D01*
X610669D01*
X612336Y339332D01*
Y336000D01*
X610669Y334334D01*
X605671D01*
X609003D02*
X612336Y331002D01*
X622332D02*
X615668D01*
X622332Y337666D01*
Y339332D01*
X620666Y340998D01*
X617334D01*
X615668Y339332D01*
X625664Y340998D02*
X632329D01*
Y339332D01*
X625664Y332668D01*
Y331002D01*
X1127504Y789002D02*
Y798998D01*
X1132502D01*
X1134168Y797332D01*
Y794000D01*
X1132502Y792334D01*
X1127504D01*
X1130836D02*
X1134168Y789002D01*
X1137501D02*
X1140833D01*
X1139167D01*
Y798998D01*
X1137501Y797332D01*
X1150830Y789002D02*
Y798998D01*
X1145832Y794000D01*
X1152496D01*
X1232998Y702504D02*
X1223002D01*
Y707502D01*
X1224668Y709169D01*
X1228000D01*
X1229666Y707502D01*
Y702504D01*
Y705836D02*
X1232998Y709169D01*
Y712501D02*
Y715833D01*
Y714167D01*
X1223002D01*
X1224668Y712501D01*
X1223002Y720832D02*
Y727496D01*
X1224668D01*
X1231332Y720832D01*
X1232998D01*
X966671Y543642D02*
Y553638D01*
X971669D01*
X973335Y551972D01*
Y548640D01*
X971669Y546974D01*
X966671D01*
X970003D02*
X973335Y543642D01*
X981666D02*
Y553638D01*
X976668Y548640D01*
X983332D01*
X986665Y551972D02*
X988331Y553638D01*
X991663D01*
X993329Y551972D01*
Y545308D01*
X991663Y543642D01*
X988331D01*
X986665Y545308D01*
Y551972D01*
X1189265Y651671D02*
X1179268D01*
Y656669D01*
X1180934Y658335D01*
X1184266D01*
X1185932Y656669D01*
Y651671D01*
Y655003D02*
X1189265Y658335D01*
X1180934Y661668D02*
X1179268Y663334D01*
Y666666D01*
X1180934Y668332D01*
X1182600D01*
X1184266Y666666D01*
Y665000D01*
Y666666D01*
X1185932Y668332D01*
X1187598D01*
X1189265Y666666D01*
Y663334D01*
X1187598Y661668D01*
X1180934Y671665D02*
X1179268Y673331D01*
Y676663D01*
X1180934Y678329D01*
X1187598D01*
X1189265Y676663D01*
Y673331D01*
X1187598Y671665D01*
X1180934D01*
X1258998Y770504D02*
X1249002D01*
Y775502D01*
X1250668Y777169D01*
X1254000D01*
X1255666Y775502D01*
Y770504D01*
Y773836D02*
X1258998Y777169D01*
Y780501D02*
Y783833D01*
Y782167D01*
X1249002D01*
X1250668Y780501D01*
Y788831D02*
X1249002Y790498D01*
Y793830D01*
X1250668Y795496D01*
X1252334D01*
X1254000Y793830D01*
X1255666Y795496D01*
X1257332D01*
X1258998Y793830D01*
Y790498D01*
X1257332Y788831D01*
X1255666D01*
X1254000Y790498D01*
X1252334Y788831D01*
X1250668D01*
X1254000Y790498D02*
Y793830D01*
X1134998Y322337D02*
X1125002D01*
Y327336D01*
X1126668Y329002D01*
X1130000D01*
X1131666Y327336D01*
Y322337D01*
Y325669D02*
X1134998Y329002D01*
Y338998D02*
Y332334D01*
X1128334Y338998D01*
X1126668D01*
X1125002Y337332D01*
Y334000D01*
X1126668Y332334D01*
X1134998Y342331D02*
Y345663D01*
Y343997D01*
X1125002D01*
X1126668Y342331D01*
X554668Y859666D02*
X561332D01*
X562998Y861332D01*
Y864665D01*
X561332Y866331D01*
X554668D01*
X553002Y864665D01*
Y861332D01*
X556334Y862998D02*
X553002Y859666D01*
Y861332D02*
X554668Y859666D01*
X561332Y856334D02*
X562998Y854668D01*
Y851336D01*
X561332Y849669D01*
X559666D01*
X558000Y851336D01*
Y853002D01*
Y851336D01*
X556334Y849669D01*
X554668D01*
X553002Y851336D01*
Y854668D01*
X554668Y856334D01*
X1142332Y716280D02*
X1135668D01*
X1134002Y714614D01*
Y711282D01*
X1135668Y709615D01*
X1142332D01*
X1143998Y711282D01*
Y714614D01*
X1140666Y712948D02*
X1143998Y716280D01*
Y714614D02*
X1142332Y716280D01*
X1143998Y719612D02*
Y722944D01*
Y721278D01*
X1134002D01*
X1135668Y719612D01*
X1199332Y712334D02*
X1192668D01*
X1191002Y710668D01*
Y707336D01*
X1192668Y705669D01*
X1199332D01*
X1200998Y707336D01*
Y710668D01*
X1197666Y709002D02*
X1200998Y712334D01*
Y710668D02*
X1199332Y712334D01*
X1200998Y722331D02*
Y715666D01*
X1194334Y722331D01*
X1192668D01*
X1191002Y720665D01*
Y717332D01*
X1192668Y715666D01*
X232669Y113002D02*
Y122998D01*
X237668D01*
X239334Y121332D01*
Y118000D01*
X237668Y116334D01*
X232669D01*
X249331Y122998D02*
X242666D01*
Y118000D01*
X245998Y119666D01*
X247665D01*
X249331Y118000D01*
Y114668D01*
X247665Y113002D01*
X244332D01*
X242666Y114668D01*
X171669Y88002D02*
Y97998D01*
X176668D01*
X178334Y96332D01*
Y93000D01*
X176668Y91334D01*
X171669D01*
X181666Y96332D02*
X183332Y97998D01*
X186665D01*
X188331Y96332D01*
Y94666D01*
X186665Y93000D01*
X188331Y91334D01*
Y89668D01*
X186665Y88002D01*
X183332D01*
X181666Y89668D01*
Y91334D01*
X183332Y93000D01*
X181666Y94666D01*
Y96332D01*
X183332Y93000D02*
X186665D01*
X312669Y114002D02*
Y123998D01*
X317668D01*
X319334Y122332D01*
Y119000D01*
X317668Y117334D01*
X312669D01*
X322666Y122332D02*
X324332Y123998D01*
X327664D01*
X329331Y122332D01*
Y120666D01*
X327664Y119000D01*
X325998D01*
X327664D01*
X329331Y117334D01*
Y115668D01*
X327664Y114002D01*
X324332D01*
X322666Y115668D01*
X508669Y90002D02*
Y99998D01*
X513668D01*
X515334Y98332D01*
Y95000D01*
X513668Y93334D01*
X508669D01*
X525331Y90002D02*
X518666D01*
X525331Y96666D01*
Y98332D01*
X523665Y99998D01*
X520332D01*
X518666Y98332D01*
X394336Y114002D02*
Y123998D01*
X399334D01*
X401000Y122332D01*
Y119000D01*
X399334Y117334D01*
X394336D01*
X404332Y114002D02*
X407664D01*
X405998D01*
Y123998D01*
X404332Y122332D01*
X1050544Y868426D02*
Y878423D01*
X1055542D01*
X1057208Y876757D01*
Y873424D01*
X1055542Y871758D01*
X1050544D01*
X1060541Y870092D02*
X1062207Y868426D01*
X1065539D01*
X1067205Y870092D01*
Y876757D01*
X1065539Y878423D01*
X1062207D01*
X1060541Y876757D01*
Y875090D01*
X1062207Y873424D01*
X1067205D01*
X639170Y90002D02*
Y99998D01*
X644169D01*
X645835Y98332D01*
Y95000D01*
X644169Y93334D01*
X639170D01*
X649167Y90002D02*
X652499D01*
X650833D01*
Y99998D01*
X649167Y98332D01*
X657498Y90002D02*
X660830D01*
X659164D01*
Y99998D01*
X657498Y98332D01*
X533504Y103002D02*
Y112998D01*
X538502D01*
X540168Y111332D01*
Y108000D01*
X538502Y106334D01*
X533504D01*
X543501Y103002D02*
X546833D01*
X545167D01*
Y112998D01*
X543501Y111332D01*
X551832D02*
X553498Y112998D01*
X556830D01*
X558496Y111332D01*
Y104668D01*
X556830Y103002D01*
X553498D01*
X551832Y104668D01*
Y111332D01*
X273669Y87002D02*
Y96998D01*
X278668D01*
X280334Y95332D01*
Y92000D01*
X278668Y90334D01*
X273669D01*
X290331Y96998D02*
X286998Y95332D01*
X283666Y92000D01*
Y88668D01*
X285332Y87002D01*
X288664D01*
X290331Y88668D01*
Y90334D01*
X288664Y92000D01*
X283666D01*
X151669Y113002D02*
Y122998D01*
X156668D01*
X158334Y121332D01*
Y118000D01*
X156668Y116334D01*
X151669D01*
X161666Y122998D02*
X168331D01*
Y121332D01*
X161666Y114668D01*
Y113002D01*
X976376Y91948D02*
Y101945D01*
X981374D01*
X983040Y100279D01*
Y96946D01*
X981374Y95280D01*
X976376D01*
X986373Y91948D02*
X989705D01*
X988039D01*
Y101945D01*
X986373Y100279D01*
X1001368Y91948D02*
X994703D01*
X1001368Y98612D01*
Y100279D01*
X999702Y101945D01*
X996370D01*
X994703Y100279D01*
X758504Y614248D02*
Y604252D01*
X765169D01*
X775165D02*
X768501D01*
X775165Y610916D01*
Y612582D01*
X773499Y614248D01*
X770167D01*
X768501Y612582D01*
X445505Y803465D02*
Y793468D01*
X452169D01*
X455501Y801799D02*
X457168Y803465D01*
X460500D01*
X462166Y801799D01*
Y800133D01*
X460500Y798467D01*
X458834D01*
X460500D01*
X462166Y796801D01*
Y795135D01*
X460500Y793468D01*
X457168D01*
X455501Y795135D01*
X133669Y223998D02*
Y214002D01*
X138668D01*
X140334Y215668D01*
Y222332D01*
X138668Y223998D01*
X133669D01*
X148665Y214002D02*
Y223998D01*
X143666Y219000D01*
X150331D01*
X999504Y229998D02*
Y220002D01*
X1004502D01*
X1006169Y221668D01*
Y228332D01*
X1004502Y229998D01*
X999504D01*
X1009501Y220002D02*
X1012833D01*
X1011167D01*
Y229998D01*
X1009501Y228332D01*
X1017831D02*
X1019498Y229998D01*
X1022830D01*
X1024496Y228332D01*
Y221668D01*
X1022830Y220002D01*
X1019498D01*
X1017831Y221668D01*
Y228332D01*
X289669Y221998D02*
Y212002D01*
X294668D01*
X296334Y213668D01*
Y220332D01*
X294668Y221998D01*
X289669D01*
X306331Y212002D02*
X299666D01*
X306331Y218666D01*
Y220332D01*
X304664Y221998D01*
X301332D01*
X299666Y220332D01*
X168669Y352998D02*
Y343002D01*
X173668D01*
X175334Y344668D01*
Y351332D01*
X173668Y352998D01*
X168669D01*
X178666Y351332D02*
X180332Y352998D01*
X183664D01*
X185331Y351332D01*
Y349666D01*
X183664Y348000D01*
X181998D01*
X183664D01*
X185331Y346334D01*
Y344668D01*
X183664Y343002D01*
X180332D01*
X178666Y344668D01*
X326055Y353678D02*
Y343682D01*
X331054D01*
X332720Y345348D01*
Y352012D01*
X331054Y353678D01*
X326055D01*
X336052Y343682D02*
X339384D01*
X337718D01*
Y353678D01*
X336052Y352012D01*
X508998Y463332D02*
X499002D01*
Y458334D01*
X500668Y456668D01*
X507332D01*
X508998Y458334D01*
Y463332D01*
X500668Y453335D02*
X499002Y451669D01*
Y448337D01*
X500668Y446671D01*
X507332D01*
X508998Y448337D01*
Y451669D01*
X507332Y453335D01*
X505666D01*
X504000Y451669D01*
Y446671D01*
X533332Y464998D02*
X534998Y466665D01*
Y469997D01*
X533332Y471663D01*
X526668D01*
X525002Y469997D01*
Y466665D01*
X526668Y464998D01*
X525002Y461666D02*
Y458334D01*
Y460000D01*
X534998D01*
X533332Y461666D01*
X526668Y453335D02*
X525002Y451669D01*
Y448337D01*
X526668Y446671D01*
X533332D01*
X534998Y448337D01*
Y451669D01*
X533332Y453335D01*
X531666D01*
X530000Y451669D01*
Y446671D01*
X1012668Y158335D02*
X1011002Y156669D01*
Y153337D01*
X1012668Y151671D01*
X1019332D01*
X1020998Y153337D01*
Y156669D01*
X1019332Y158335D01*
X1020998Y168332D02*
Y161668D01*
X1014334Y168332D01*
X1012668D01*
X1011002Y166666D01*
Y163334D01*
X1012668Y161668D01*
X1020998Y178329D02*
Y171665D01*
X1014334Y178329D01*
X1012668D01*
X1011002Y176663D01*
Y173331D01*
X1012668Y171665D01*
X1241336Y230332D02*
X1239669Y231998D01*
X1236337D01*
X1234671Y230332D01*
Y223668D01*
X1236337Y222002D01*
X1239669D01*
X1241336Y223668D01*
X1251332Y222002D02*
X1244668D01*
X1251332Y228666D01*
Y230332D01*
X1249666Y231998D01*
X1246334D01*
X1244668Y230332D01*
X1254665D02*
X1256331Y231998D01*
X1259663D01*
X1261329Y230332D01*
Y228666D01*
X1259663Y227000D01*
X1257997D01*
X1259663D01*
X1261329Y225334D01*
Y223668D01*
X1259663Y222002D01*
X1256331D01*
X1254665Y223668D01*
X942548Y780654D02*
X940882Y778988D01*
Y775656D01*
X942548Y773989D01*
X949212D01*
X950878Y775656D01*
Y778988D01*
X949212Y780654D01*
X940882Y790651D02*
Y783986D01*
X945880D01*
X944214Y787318D01*
Y788985D01*
X945880Y790651D01*
X949212D01*
X950878Y788985D01*
Y785652D01*
X949212Y783986D01*
X1065002Y112332D02*
X1063335Y113998D01*
X1060003D01*
X1058337Y112332D01*
Y105668D01*
X1060003Y104002D01*
X1063335D01*
X1065002Y105668D01*
X1074998Y104002D02*
X1068334D01*
X1074998Y110666D01*
Y112332D01*
X1073332Y113998D01*
X1070000D01*
X1068334Y112332D01*
X1078331Y104002D02*
X1081663D01*
X1079997D01*
Y113998D01*
X1078331Y112332D01*
X1240335Y203332D02*
X1238669Y204998D01*
X1235337D01*
X1233671Y203332D01*
Y196668D01*
X1235337Y195002D01*
X1238669D01*
X1240335Y196668D01*
X1250332Y195002D02*
X1243668D01*
X1250332Y201666D01*
Y203332D01*
X1248666Y204998D01*
X1245334D01*
X1243668Y203332D01*
X1258663Y195002D02*
Y204998D01*
X1253664Y200000D01*
X1260329D01*
X373838Y302960D02*
X372172Y301294D01*
Y297962D01*
X373838Y296295D01*
X380502D01*
X382168Y297962D01*
Y301294D01*
X380502Y302960D01*
X382168Y306292D02*
Y309625D01*
Y307958D01*
X372172D01*
X373838Y306292D01*
X97668Y307334D02*
X96002Y305668D01*
Y302335D01*
X97668Y300669D01*
X104332D01*
X105998Y302335D01*
Y305668D01*
X104332Y307334D01*
X105998Y315665D02*
X96002D01*
X101000Y310666D01*
Y317331D01*
X261001Y304334D02*
X259335Y302668D01*
Y299335D01*
X261001Y297669D01*
X267666D01*
X269332Y299335D01*
Y302668D01*
X267666Y304334D01*
X269332Y314331D02*
Y307666D01*
X262667Y314331D01*
X261001D01*
X259335Y312665D01*
Y309332D01*
X261001Y307666D01*
X559332Y466665D02*
X560998Y468331D01*
Y471663D01*
X559332Y473329D01*
X552668D01*
X551002Y471663D01*
Y468331D01*
X552668Y466665D01*
X551002Y456668D02*
Y463332D01*
X557666Y456668D01*
X559332D01*
X560998Y458334D01*
Y461666D01*
X559332Y463332D01*
Y453335D02*
X560998Y451669D01*
Y448337D01*
X559332Y446671D01*
X552668D01*
X551002Y448337D01*
Y451669D01*
X552668Y453335D01*
X559332D01*
X1106336Y139332D02*
X1104669Y140998D01*
X1101337D01*
X1099671Y139332D01*
Y132668D01*
X1101337Y131002D01*
X1104669D01*
X1106336Y132668D01*
X1116332Y131002D02*
X1109668D01*
X1116332Y137666D01*
Y139332D01*
X1114666Y140998D01*
X1111334D01*
X1109668Y139332D01*
X1126329Y140998D02*
X1119665D01*
Y136000D01*
X1122997Y137666D01*
X1124663D01*
X1126329Y136000D01*
Y132668D01*
X1124663Y131002D01*
X1121331D01*
X1119665Y132668D01*
X235334Y304334D02*
X233668Y302668D01*
Y299335D01*
X235334Y297669D01*
X241999D01*
X243665Y299335D01*
Y302668D01*
X241999Y304334D01*
X235334Y307666D02*
X233668Y309332D01*
Y312665D01*
X235334Y314331D01*
X237001D01*
X238667Y312665D01*
Y310998D01*
Y312665D01*
X240333Y314331D01*
X241999D01*
X243665Y312665D01*
Y309332D01*
X241999Y307666D01*
X1270169Y707332D02*
X1268502Y708998D01*
X1265170D01*
X1263504Y707332D01*
Y700668D01*
X1265170Y699002D01*
X1268502D01*
X1270169Y700668D01*
X1273501Y699002D02*
X1276833D01*
X1275167D01*
Y708998D01*
X1273501Y707332D01*
X1281831Y699002D02*
X1285164D01*
X1283498D01*
Y708998D01*
X1281831Y707332D01*
X443839Y827266D02*
X442172Y828932D01*
X438840D01*
X437174Y827266D01*
Y820601D01*
X438840Y818935D01*
X442172D01*
X443839Y820601D01*
X447171Y818935D02*
X450503D01*
X448837D01*
Y828932D01*
X447171Y827266D01*
X455501Y828932D02*
X462166D01*
Y827266D01*
X455501Y820601D01*
Y818935D01*
X443839Y776332D02*
X442172Y777999D01*
X438840D01*
X437174Y776332D01*
Y769668D01*
X438840Y768002D01*
X442172D01*
X443839Y769668D01*
X447171Y768002D02*
X450503D01*
X448837D01*
Y777999D01*
X447171Y776332D01*
X455501D02*
X457168Y777999D01*
X460500D01*
X462166Y776332D01*
Y774666D01*
X460500Y773000D01*
X462166Y771334D01*
Y769668D01*
X460500Y768002D01*
X457168D01*
X455501Y769668D01*
Y771334D01*
X457168Y773000D01*
X455501Y774666D01*
Y776332D01*
X457168Y773000D02*
X460500D01*
X1046688Y780654D02*
X1045022Y778988D01*
Y775656D01*
X1046688Y773989D01*
X1053352D01*
X1055018Y775656D01*
Y778988D01*
X1053352Y780654D01*
X1045022Y783986D02*
Y790651D01*
X1046688D01*
X1053352Y783986D01*
X1055018D01*
X765169Y588332D02*
X763502Y589998D01*
X760170D01*
X758504Y588332D01*
Y581668D01*
X760170Y580002D01*
X763502D01*
X765169Y581668D01*
X768501Y580002D02*
X771833D01*
X770167D01*
Y589998D01*
X768501Y588332D01*
X783496Y589998D02*
X776832D01*
Y585000D01*
X780164Y586666D01*
X781830D01*
X783496Y585000D01*
Y581668D01*
X781830Y580002D01*
X778498D01*
X776832Y581668D01*
X765169Y637982D02*
X763502Y639648D01*
X760170D01*
X758504Y637982D01*
Y631318D01*
X760170Y629652D01*
X763502D01*
X765169Y631318D01*
X768501Y629652D02*
X771833D01*
X770167D01*
Y639648D01*
X768501Y637982D01*
X781830Y629652D02*
Y639648D01*
X776831Y634650D01*
X783496D01*
X1270169Y758332D02*
X1268502Y759998D01*
X1265170D01*
X1263504Y758332D01*
Y751668D01*
X1265170Y750002D01*
X1268502D01*
X1270169Y751668D01*
X1273501Y750002D02*
X1276833D01*
X1275167D01*
Y759998D01*
X1273501Y758332D01*
X1288496Y750002D02*
X1281831D01*
X1288496Y756666D01*
Y758332D01*
X1286830Y759998D01*
X1283498D01*
X1281831Y758332D01*
X443839Y852732D02*
X442172Y854398D01*
X438840D01*
X437174Y852732D01*
Y846068D01*
X438840Y844402D01*
X442172D01*
X443839Y846068D01*
X447171Y844402D02*
X450503D01*
X448837D01*
Y854398D01*
X447171Y852732D01*
X462166Y854398D02*
X458834Y852732D01*
X455501Y849400D01*
Y846068D01*
X457168Y844402D01*
X460500D01*
X462166Y846068D01*
Y847734D01*
X460500Y849400D01*
X455501D01*
X1219668Y817334D02*
X1218002Y815668D01*
Y812336D01*
X1219668Y810669D01*
X1226332D01*
X1227998Y812336D01*
Y815668D01*
X1226332Y817334D01*
Y820666D02*
X1227998Y822332D01*
Y825665D01*
X1226332Y827331D01*
X1219668D01*
X1218002Y825665D01*
Y822332D01*
X1219668Y820666D01*
X1221334D01*
X1223000Y822332D01*
Y827331D01*
X1021288Y780654D02*
X1019622Y778988D01*
Y775656D01*
X1021288Y773989D01*
X1027952D01*
X1029618Y775656D01*
Y778988D01*
X1027952Y780654D01*
X1019622Y790651D02*
X1021288Y787318D01*
X1024620Y783986D01*
X1027952D01*
X1029618Y785652D01*
Y788985D01*
X1027952Y790651D01*
X1026286D01*
X1024620Y788985D01*
Y783986D01*
X764169Y662332D02*
X762502Y663998D01*
X759170D01*
X757504Y662332D01*
Y655668D01*
X759170Y654002D01*
X762502D01*
X764169Y655668D01*
X767501Y654002D02*
X770833D01*
X769167D01*
Y663998D01*
X767501Y662332D01*
X775832D02*
X777498Y663998D01*
X780830D01*
X782496Y662332D01*
Y660666D01*
X780830Y659000D01*
X779164D01*
X780830D01*
X782496Y657334D01*
Y655668D01*
X780830Y654002D01*
X777498D01*
X775832Y655668D01*
X1300000Y0D02*
Y900000D01*
X0D02*
X1300000D01*
X1270Y0D02*
X1301270D01*
X0D02*
Y900000D01*
D12*
X575500Y364000D02*
G03*
X575500Y364000I-3000J0D01*
G01*
X602000Y211000D02*
G03*
X602000Y211000I-3000J0D01*
G01*
X349450Y277210D02*
G03*
X349450Y277210I-3000J0D01*
G01*
X190200Y279080D02*
G03*
X190200Y279080I-3000J0D01*
G01*
D13*
X1286770Y556660D02*
G03*
X1286770Y556660I-1000J0D01*
G01*
X1155270Y739760D02*
Y749760D01*
X1148020Y739760D02*
X1155270D01*
X1125270D02*
Y749760D01*
Y739760D02*
X1132520D01*
X1158170Y157320D02*
X1225170D01*
X1158170Y126320D02*
X1225170D01*
Y157320D01*
X1158170Y126320D02*
Y157320D01*
X477500Y374000D02*
X582500D01*
X477500Y332000D02*
X582500D01*
Y374000D01*
X477500Y332000D02*
Y374000D01*
X559000Y189000D02*
Y221000D01*
X609000Y189000D02*
Y221000D01*
X559000Y189000D02*
X609000D01*
X559000Y221000D02*
X609000D01*
X306450Y255210D02*
Y287210D01*
X356450Y255210D02*
Y287210D01*
X306450Y255210D02*
X356450D01*
X306450Y287210D02*
X356450D01*
X147200Y257080D02*
Y289080D01*
X197200Y257080D02*
Y289080D01*
X147200Y257080D02*
X197200D01*
X147200Y289080D02*
X197200D01*
X534680Y852620D02*
X544680D01*
Y845370D02*
Y852620D01*
X534680Y822620D02*
X544680D01*
Y829870D01*
X1211340Y739760D02*
Y749760D01*
X1204090Y739760D02*
X1211340D01*
X1181340D02*
Y749760D01*
Y739760D02*
X1188590D01*
X564560Y95740D02*
Y121140D01*
X615360D01*
Y95740D02*
Y121140D01*
X564560Y95740D02*
X615360D01*
X1201420Y834390D02*
Y859790D01*
X1049020Y834390D02*
Y859790D01*
X1201420D01*
X1049020Y834390D02*
X1201420D01*
X148300Y179400D02*
X173700D01*
Y128600D02*
Y179400D01*
X148300Y128600D02*
X173700D01*
X148300D02*
Y179400D01*
X228300D02*
X253700D01*
Y128600D02*
Y179400D01*
X228300Y128600D02*
X253700D01*
X228300D02*
Y179400D01*
X308300D02*
X333700D01*
Y128600D02*
Y179400D01*
X308300Y128600D02*
X333700D01*
X308300D02*
Y179400D01*
X388600D02*
X414000D01*
Y128600D02*
Y179400D01*
X388600Y128600D02*
X414000D01*
X388600D02*
Y179400D01*
D14*
X1085750Y149500D02*
Y178500D01*
X1055750Y149500D02*
Y178500D01*
X1085750D01*
X1055750Y149500D02*
X1085750D01*
D15*
X1360670Y364660D02*
Y544660D01*
X1293470Y364660D02*
X1360670D01*
X1293470Y544660D02*
X1360670D01*
X1105670D02*
X1112970D01*
X1105670Y532210D02*
Y544660D01*
Y364660D02*
X1112970D01*
X1105670D02*
Y377110D01*
M02*
