G04*
G04 #@! TF.GenerationSoftware,Altium Limited,Altium Designer,22.0.2 (36)*
G04*
G04 Layer_Color=8421504*
%FSLAX44Y44*%
%MOMM*%
G71*
G04*
G04 #@! TF.SameCoordinates,DEF1482B-7F84-4A2E-A234-9A9D801D0D5E*
G04*
G04*
G04 #@! TF.FilePolarity,Positive*
G04*
G01*
G75*
%ADD11C,0.2540*%
%ADD16R,0.7500X1.0000*%
G04:AMPARAMS|DCode=17|XSize=0.6mm|YSize=0.5mm|CornerRadius=0.125mm|HoleSize=0mm|Usage=FLASHONLY|Rotation=90.000|XOffset=0mm|YOffset=0mm|HoleType=Round|Shape=RoundedRectangle|*
%AMROUNDEDRECTD17*
21,1,0.6000,0.2500,0,0,90.0*
21,1,0.3500,0.5000,0,0,90.0*
1,1,0.2500,0.1250,0.1750*
1,1,0.2500,0.1250,-0.1750*
1,1,0.2500,-0.1250,-0.1750*
1,1,0.2500,-0.1250,0.1750*
%
%ADD17ROUNDEDRECTD17*%
G04:AMPARAMS|DCode=18|XSize=1.04mm|YSize=0.85mm|CornerRadius=0.2125mm|HoleSize=0mm|Usage=FLASHONLY|Rotation=90.000|XOffset=0mm|YOffset=0mm|HoleType=Round|Shape=RoundedRectangle|*
%AMROUNDEDRECTD18*
21,1,1.0400,0.4250,0,0,90.0*
21,1,0.6150,0.8500,0,0,90.0*
1,1,0.4250,0.2125,0.3075*
1,1,0.4250,0.2125,-0.3075*
1,1,0.4250,-0.2125,-0.3075*
1,1,0.4250,-0.2125,0.3075*
%
%ADD18ROUNDEDRECTD18*%
%ADD19R,1.0000X2.1500*%
%ADD20R,3.3500X2.1500*%
%ADD21O,0.6000X1.6500*%
G04:AMPARAMS|DCode=22|XSize=1.45mm|YSize=0.3mm|CornerRadius=0.075mm|HoleSize=0mm|Usage=FLASHONLY|Rotation=180.000|XOffset=0mm|YOffset=0mm|HoleType=Round|Shape=RoundedRectangle|*
%AMROUNDEDRECTD22*
21,1,1.4500,0.1500,0,0,180.0*
21,1,1.3000,0.3000,0,0,180.0*
1,1,0.1500,-0.6500,0.0750*
1,1,0.1500,0.6500,0.0750*
1,1,0.1500,0.6500,-0.0750*
1,1,0.1500,-0.6500,-0.0750*
%
%ADD22ROUNDEDRECTD22*%
%ADD23O,0.6000X1.4500*%
%ADD24R,0.9000X0.9000*%
%ADD25R,0.9000X1.5000*%
%ADD26R,1.5000X0.9000*%
%ADD27R,0.8000X1.4000*%
%ADD28R,1.4000X0.8000*%
%ADD29R,1.0000X0.7500*%
%ADD30R,2.5000X1.8000*%
%ADD31R,0.3500X1.3000*%
%ADD32R,0.8000X1.4500*%
%ADD33R,1.4500X0.8000*%
D11*
X1300000D02*
Y900000D01*
X0D02*
X1300000D01*
X1270Y0D02*
X1301270D01*
X0D02*
Y900000D01*
D16*
X1149770Y758760D02*
D03*
X1130770D02*
D03*
X1140270Y734760D02*
D03*
X1205840Y758760D02*
D03*
X1186840D02*
D03*
X1196340Y734760D02*
D03*
D17*
X1061000Y153500D02*
D03*
X1067500D02*
D03*
X1080500Y174500D02*
D03*
X1074000D02*
D03*
X1061000D02*
D03*
X1067500D02*
D03*
X1080500Y153500D02*
D03*
X1074000D02*
D03*
D18*
X1065500Y164000D02*
D03*
X1076000D02*
D03*
D19*
X1214670Y171070D02*
D03*
X1191670D02*
D03*
X1168670D02*
D03*
D20*
X1191670Y112570D02*
D03*
D21*
X568100Y386250D02*
D03*
X555400D02*
D03*
X542700D02*
D03*
X530000D02*
D03*
X517300D02*
D03*
X504600D02*
D03*
X491900D02*
D03*
X568100Y319750D02*
D03*
X555400D02*
D03*
X542700D02*
D03*
X530000D02*
D03*
X517300D02*
D03*
X504600D02*
D03*
X491900D02*
D03*
D22*
X291000Y375000D02*
D03*
Y380000D02*
D03*
X247000Y395000D02*
D03*
Y390000D02*
D03*
X291000Y395000D02*
D03*
Y390000D02*
D03*
Y385000D02*
D03*
X247000Y375000D02*
D03*
Y385000D02*
D03*
Y380000D02*
D03*
D23*
X564950Y177750D02*
D03*
X577650D02*
D03*
X590350D02*
D03*
X603050D02*
D03*
X564950Y232250D02*
D03*
X577650D02*
D03*
X590350D02*
D03*
X603050D02*
D03*
X312400Y243960D02*
D03*
X325100D02*
D03*
X337800D02*
D03*
X350500D02*
D03*
X312400Y298460D02*
D03*
X325100D02*
D03*
X337800D02*
D03*
X350500D02*
D03*
X153150Y245830D02*
D03*
X165850D02*
D03*
X178550D02*
D03*
X191250D02*
D03*
X153150Y300330D02*
D03*
X165850D02*
D03*
X178550D02*
D03*
X191250D02*
D03*
D24*
X1208570Y469660D02*
D03*
Y483660D02*
D03*
Y455660D02*
D03*
X1194570Y483660D02*
D03*
Y469660D02*
D03*
Y455660D02*
D03*
X1222570Y483660D02*
D03*
Y469660D02*
D03*
Y455660D02*
D03*
D25*
X1285770Y542160D02*
D03*
X1273070D02*
D03*
X1260370D02*
D03*
X1247670D02*
D03*
X1234970D02*
D03*
X1222270D02*
D03*
X1209570D02*
D03*
X1196870D02*
D03*
X1184170D02*
D03*
X1171470D02*
D03*
X1158770D02*
D03*
X1146070D02*
D03*
X1133370D02*
D03*
X1120670D02*
D03*
Y367160D02*
D03*
X1133370D02*
D03*
X1146070D02*
D03*
X1158770D02*
D03*
X1171470D02*
D03*
X1184170D02*
D03*
X1196870D02*
D03*
X1209570D02*
D03*
X1222270D02*
D03*
X1234970D02*
D03*
X1247670D02*
D03*
X1260370D02*
D03*
X1273070D02*
D03*
X1285770D02*
D03*
D26*
X1108170Y524510D02*
D03*
Y511810D02*
D03*
Y499110D02*
D03*
Y486410D02*
D03*
Y473710D02*
D03*
Y461010D02*
D03*
Y448310D02*
D03*
Y435610D02*
D03*
Y422910D02*
D03*
Y410210D02*
D03*
Y397510D02*
D03*
Y384810D02*
D03*
D27*
X1085560Y225820D02*
D03*
X1103560D02*
D03*
X1043650Y200420D02*
D03*
X1061650D02*
D03*
X1085560D02*
D03*
X1103560D02*
D03*
X527000Y807000D02*
D03*
X545000D02*
D03*
X545000Y783000D02*
D03*
X527000D02*
D03*
X1034940Y330200D02*
D03*
X1052940D02*
D03*
X1034940Y354330D02*
D03*
X1052940D02*
D03*
X1034940Y546100D02*
D03*
X1052940D02*
D03*
X1052940Y402590D02*
D03*
X1034940D02*
D03*
X1034940Y306070D02*
D03*
X1052940D02*
D03*
X1052940Y426720D02*
D03*
X1034940D02*
D03*
X1052940Y450850D02*
D03*
X1034940D02*
D03*
X1052940Y474980D02*
D03*
X1034940D02*
D03*
X1052940Y499110D02*
D03*
X1034940D02*
D03*
X1052940Y523240D02*
D03*
X1034940D02*
D03*
X610512Y384000D02*
D03*
X628512D02*
D03*
X610512Y360000D02*
D03*
X628512D02*
D03*
X1034940Y378460D02*
D03*
X1052940D02*
D03*
X1149270Y775970D02*
D03*
X1131270D02*
D03*
X164000Y192000D02*
D03*
X182000D02*
D03*
X262000Y193000D02*
D03*
X244000D02*
D03*
X323000D02*
D03*
X341000D02*
D03*
X422000D02*
D03*
X404000D02*
D03*
X484390Y797330D02*
D03*
X502390D02*
D03*
X718610Y608980D02*
D03*
X736610D02*
D03*
X1285000Y650000D02*
D03*
X1267000D02*
D03*
D28*
X602660Y133730D02*
D03*
Y151730D02*
D03*
X1165860Y594250D02*
D03*
Y612250D02*
D03*
X1093470Y594250D02*
D03*
Y612250D02*
D03*
X1189990Y594250D02*
D03*
Y612250D02*
D03*
X1214120Y594250D02*
D03*
Y612250D02*
D03*
X1238250Y594250D02*
D03*
Y612250D02*
D03*
X1045210Y612250D02*
D03*
Y594250D02*
D03*
X1069340Y612250D02*
D03*
Y594250D02*
D03*
X1117600Y612250D02*
D03*
Y594250D02*
D03*
X1141730Y612250D02*
D03*
Y594250D02*
D03*
X1131570Y302000D02*
D03*
Y284000D02*
D03*
X1258570Y302000D02*
D03*
Y284000D02*
D03*
X1234440Y302000D02*
D03*
Y284000D02*
D03*
X1253000Y738000D02*
D03*
Y756000D02*
D03*
X1229010Y755760D02*
D03*
Y737760D02*
D03*
X1170940Y737760D02*
D03*
Y755760D02*
D03*
X1113600Y739030D02*
D03*
Y757030D02*
D03*
X1108000Y284000D02*
D03*
Y302000D02*
D03*
X186000Y163000D02*
D03*
Y145000D02*
D03*
X127750Y265350D02*
D03*
Y283350D02*
D03*
X267000Y163000D02*
D03*
Y145000D02*
D03*
X212000Y282000D02*
D03*
Y264000D02*
D03*
X346000Y163000D02*
D03*
Y145000D02*
D03*
X292000Y264000D02*
D03*
Y282000D02*
D03*
X427000Y163000D02*
D03*
Y145000D02*
D03*
X408920Y278940D02*
D03*
Y260940D02*
D03*
D29*
X525680Y847120D02*
D03*
Y828120D02*
D03*
X549680Y837620D02*
D03*
D30*
X722360Y729890D02*
D03*
X584360D02*
D03*
D31*
X700860Y696390D02*
D03*
X695860D02*
D03*
X690860D02*
D03*
X685860D02*
D03*
X680860D02*
D03*
X675860D02*
D03*
X670860D02*
D03*
X665860D02*
D03*
X655860D02*
D03*
X660860D02*
D03*
X605860D02*
D03*
X610860D02*
D03*
X615860D02*
D03*
X620860D02*
D03*
X625860D02*
D03*
X630860D02*
D03*
X635860D02*
D03*
X640860D02*
D03*
X650860D02*
D03*
X645860D02*
D03*
D32*
X1060380Y225820D02*
D03*
X1042380D02*
D03*
X182470Y219740D02*
D03*
X164470D02*
D03*
X183740Y326420D02*
D03*
X165740D02*
D03*
X341000Y219000D02*
D03*
X323000D02*
D03*
X340450Y325820D02*
D03*
X322450D02*
D03*
X1215910Y200240D02*
D03*
X1197910D02*
D03*
X1215910Y228180D02*
D03*
X1197910D02*
D03*
X1079000Y131000D02*
D03*
X1061000D02*
D03*
X502390Y773200D02*
D03*
X484390D02*
D03*
X502390Y822730D02*
D03*
X484390D02*
D03*
X502390Y849400D02*
D03*
X484390D02*
D03*
X718610Y584850D02*
D03*
X736610D02*
D03*
X718610Y633110D02*
D03*
X736610D02*
D03*
X718610Y658510D02*
D03*
X736610D02*
D03*
X1267000Y675000D02*
D03*
X1285000D02*
D03*
X1285000Y600000D02*
D03*
X1267000D02*
D03*
X1285000Y625000D02*
D03*
X1267000D02*
D03*
D33*
X505000Y429000D02*
D03*
Y411000D02*
D03*
X1074150Y757030D02*
D03*
Y739030D02*
D03*
X997950Y757030D02*
D03*
Y739030D02*
D03*
X972550Y757030D02*
D03*
Y739030D02*
D03*
X1102180Y157130D02*
D03*
Y175130D02*
D03*
X1039950Y157130D02*
D03*
Y175130D02*
D03*
X556000Y429000D02*
D03*
Y411000D02*
D03*
X530050Y429090D02*
D03*
Y411090D02*
D03*
X1223000Y799000D02*
D03*
Y781000D02*
D03*
X1048750Y757030D02*
D03*
Y739030D02*
D03*
X1023350Y757030D02*
D03*
Y739030D02*
D03*
X947150Y757030D02*
D03*
Y739030D02*
D03*
X99810Y265350D02*
D03*
Y283350D02*
D03*
X237000Y282000D02*
D03*
Y264000D02*
D03*
X267000Y264000D02*
D03*
Y282000D02*
D03*
X376916Y278940D02*
D03*
Y260940D02*
D03*
M02*
