G04*
G04 #@! TF.GenerationSoftware,Altium Limited,Altium Designer,22.0.2 (36)*
G04*
G04 Layer_Color=2752767*
%FSLAX44Y44*%
%MOMM*%
G71*
G04*
G04 #@! TF.SameCoordinates,44A75C0C-92E7-4886-82EC-FF5ABF5C97BD*
G04*
G04*
G04 #@! TF.FilePolarity,Positive*
G04*
G01*
G75*
%ADD11C,0.2540*%
%ADD13C,0.2000*%
%ADD14C,0.1000*%
%ADD15C,0.1270*%
%ADD16C,0.0500*%
%ADD73C,0.0508*%
%ADD74C,0.0677*%
D11*
X1300000D02*
Y900000D01*
X0D02*
X1300000D01*
X1270Y6350D02*
X1301270D01*
X0Y0D02*
Y900000D01*
X1328170Y499660D02*
X1336634D01*
X1340866Y495428D01*
X1336634Y491196D01*
X1328170D01*
X1334518D01*
Y499660D01*
X1328170Y486964D02*
X1340866D01*
X1328170Y478500D01*
X1340866D01*
Y474268D02*
Y465804D01*
Y470036D01*
X1328170D01*
X1340866Y453108D02*
Y461572D01*
X1328170D01*
Y453108D01*
X1334518Y461572D02*
Y457340D01*
X1328170Y448876D02*
X1340866D01*
X1328170Y440412D01*
X1340866D01*
X1328170Y436181D02*
X1340866D01*
X1328170Y427717D01*
X1340866D01*
X1328170Y423485D02*
X1336634D01*
X1340866Y419253D01*
X1336634Y415021D01*
X1328170D01*
X1334518D01*
Y423485D01*
D13*
X1286770Y556660D02*
G03*
X1286770Y556660I-1000J0D01*
G01*
D14*
X578500Y369000D02*
G03*
X578500Y369000I-5000J0D01*
G01*
X605000Y216000D02*
G03*
X605000Y216000I-5000J0D01*
G01*
X352450Y282210D02*
G03*
X352450Y282210I-5000J0D01*
G01*
X193200Y284080D02*
G03*
X193200Y284080I-5000J0D01*
G01*
X1125270Y753760D02*
X1155270D01*
X1125270Y739760D02*
X1155270D01*
Y753760D01*
X1125270Y739760D02*
Y753760D01*
X1158170Y160320D02*
X1225170D01*
X1158170Y123320D02*
X1225170D01*
Y160320D01*
X1158170Y123320D02*
Y160320D01*
X477500Y378000D02*
X582500D01*
X477500Y328000D02*
X582500D01*
Y378000D01*
X477500Y328000D02*
Y378000D01*
X559000Y185000D02*
Y225000D01*
X609000Y185000D02*
Y225000D01*
X559000Y185000D02*
X609000D01*
X559000Y225000D02*
X609000D01*
X306450Y251210D02*
Y291210D01*
X356450Y251210D02*
Y291210D01*
X306450Y251210D02*
X356450D01*
X306450Y291210D02*
X356450D01*
X147200Y253080D02*
Y293080D01*
X197200Y253080D02*
Y293080D01*
X147200Y253080D02*
X197200D01*
X147200Y293080D02*
X197200D01*
X1084060Y232320D02*
X1105060D01*
X1084060Y219320D02*
X1105060D01*
X1084060D02*
Y232320D01*
X1105060Y219320D02*
Y232320D01*
X1042150Y206920D02*
X1063150D01*
X1042150Y193920D02*
X1063150D01*
X1042150D02*
Y206920D01*
X1063150Y193920D02*
Y206920D01*
X1084060D02*
X1105060D01*
X1084060Y193920D02*
X1105060D01*
X1084060D02*
Y206920D01*
X1105060Y193920D02*
Y206920D01*
X525500Y813500D02*
X546500D01*
X525500Y800500D02*
X546500D01*
X525500D02*
Y813500D01*
X546500Y800500D02*
Y813500D01*
X525500Y776500D02*
X546500D01*
X525500Y789500D02*
X546500D01*
Y776500D02*
Y789500D01*
X525500Y776500D02*
Y789500D01*
X596160Y132230D02*
Y153230D01*
X609160Y132230D02*
Y153230D01*
X596160Y132230D02*
X609160D01*
X596160Y153230D02*
X609160D01*
X1033440Y336700D02*
X1054440D01*
X1033440Y323700D02*
X1054440D01*
X1033440D02*
Y336700D01*
X1054440Y323700D02*
Y336700D01*
X1159360Y592750D02*
Y613750D01*
X1172360Y592750D02*
Y613750D01*
X1159360Y592750D02*
X1172360D01*
X1159360Y613750D02*
X1172360D01*
X1033440Y360830D02*
X1054440D01*
X1033440Y347830D02*
X1054440D01*
X1033440D02*
Y360830D01*
X1054440Y347830D02*
Y360830D01*
X1033440Y552600D02*
X1054440D01*
X1033440Y539600D02*
X1054440D01*
X1033440D02*
Y552600D01*
X1054440Y539600D02*
Y552600D01*
X1033440Y396090D02*
X1054440D01*
X1033440Y409090D02*
X1054440D01*
Y396090D02*
Y409090D01*
X1033440Y396090D02*
Y409090D01*
Y312570D02*
X1054440D01*
X1033440Y299570D02*
X1054440D01*
X1033440D02*
Y312570D01*
X1054440Y299570D02*
Y312570D01*
X1033440Y420220D02*
X1054440D01*
X1033440Y433220D02*
X1054440D01*
Y420220D02*
Y433220D01*
X1033440Y420220D02*
Y433220D01*
Y444350D02*
X1054440D01*
X1033440Y457350D02*
X1054440D01*
Y444350D02*
Y457350D01*
X1033440Y444350D02*
Y457350D01*
Y468480D02*
X1054440D01*
X1033440Y481480D02*
X1054440D01*
Y468480D02*
Y481480D01*
X1033440Y468480D02*
Y481480D01*
Y492610D02*
X1054440D01*
X1033440Y505610D02*
X1054440D01*
Y492610D02*
Y505610D01*
X1033440Y492610D02*
Y505610D01*
Y516740D02*
X1054440D01*
X1033440Y529740D02*
X1054440D01*
Y516740D02*
Y529740D01*
X1033440Y516740D02*
Y529740D01*
X1086970Y592750D02*
Y613750D01*
X1099970Y592750D02*
Y613750D01*
X1086970Y592750D02*
X1099970D01*
X1086970Y613750D02*
X1099970D01*
X1183490Y592750D02*
Y613750D01*
X1196490Y592750D02*
Y613750D01*
X1183490Y592750D02*
X1196490D01*
X1183490Y613750D02*
X1196490D01*
X1207620Y592750D02*
Y613750D01*
X1220620Y592750D02*
Y613750D01*
X1207620Y592750D02*
X1220620D01*
X1207620Y613750D02*
X1220620D01*
X1231750Y592750D02*
Y613750D01*
X1244750Y592750D02*
Y613750D01*
X1231750Y592750D02*
X1244750D01*
X1231750Y613750D02*
X1244750D01*
X609012Y390500D02*
X630012D01*
X609012Y377500D02*
X630012D01*
X609012D02*
Y390500D01*
X630012Y377500D02*
Y390500D01*
X609012Y366500D02*
X630012D01*
X609012Y353500D02*
X630012D01*
X609012D02*
Y366500D01*
X630012Y353500D02*
Y366500D01*
X1033440Y384960D02*
X1054440D01*
X1033440Y371960D02*
X1054440D01*
X1033440D02*
Y384960D01*
X1054440Y371960D02*
Y384960D01*
X1051710Y592750D02*
Y613750D01*
X1038710Y592750D02*
Y613750D01*
X1051710D01*
X1038710Y592750D02*
X1051710D01*
X1075840D02*
Y613750D01*
X1062840Y592750D02*
Y613750D01*
X1075840D01*
X1062840Y592750D02*
X1075840D01*
X1124100D02*
Y613750D01*
X1111100Y592750D02*
Y613750D01*
X1124100D01*
X1111100Y592750D02*
X1124100D01*
X1148230D02*
Y613750D01*
X1135230Y592750D02*
Y613750D01*
X1148230D01*
X1135230Y592750D02*
X1148230D01*
X1138070Y282500D02*
Y303500D01*
X1125070Y282500D02*
Y303500D01*
X1138070D01*
X1125070Y282500D02*
X1138070D01*
X1265070D02*
Y303500D01*
X1252070Y282500D02*
Y303500D01*
X1265070D01*
X1252070Y282500D02*
X1265070D01*
X1240940D02*
Y303500D01*
X1227940Y282500D02*
Y303500D01*
X1240940D01*
X1227940Y282500D02*
X1240940D01*
X1246500Y736500D02*
Y757500D01*
X1259500Y736500D02*
Y757500D01*
X1246500Y736500D02*
X1259500D01*
X1246500Y757500D02*
X1259500D01*
X1235510Y736260D02*
Y757260D01*
X1222510Y736260D02*
Y757260D01*
X1235510D01*
X1222510Y736260D02*
X1235510D01*
X1164440D02*
Y757260D01*
X1177440Y736260D02*
Y757260D01*
X1164440Y736260D02*
X1177440D01*
X1164440Y757260D02*
X1177440D01*
X1107100Y737530D02*
Y758530D01*
X1120100Y737530D02*
Y758530D01*
X1107100Y737530D02*
X1120100D01*
X1107100Y758530D02*
X1120100D01*
X1129770Y769470D02*
X1150770D01*
X1129770Y782470D02*
X1150770D01*
Y769470D02*
Y782470D01*
X1129770Y769470D02*
Y782470D01*
X1101500Y282500D02*
Y303500D01*
X1114500Y282500D02*
Y303500D01*
X1101500Y282500D02*
X1114500D01*
X1101500Y303500D02*
X1114500D01*
X162500Y198500D02*
X183500D01*
X162500Y185500D02*
X183500D01*
X162500D02*
Y198500D01*
X183500Y185500D02*
Y198500D01*
X192500Y143500D02*
Y164500D01*
X179500Y143500D02*
Y164500D01*
X192500D01*
X179500Y143500D02*
X192500D01*
X121250Y263850D02*
Y284850D01*
X134250Y263850D02*
Y284850D01*
X121250Y263850D02*
X134250D01*
X121250Y284850D02*
X134250D01*
X242500Y186500D02*
X263500D01*
X242500Y199500D02*
X263500D01*
Y186500D02*
Y199500D01*
X242500Y186500D02*
Y199500D01*
X273500Y143500D02*
Y164500D01*
X260500Y143500D02*
Y164500D01*
X273500D01*
X260500Y143500D02*
X273500D01*
X218500Y262500D02*
Y283500D01*
X205500Y262500D02*
Y283500D01*
X218500D01*
X205500Y262500D02*
X218500D01*
X321500Y199500D02*
X342500D01*
X321500Y186500D02*
X342500D01*
X321500D02*
Y199500D01*
X342500Y186500D02*
Y199500D01*
X352500Y143500D02*
Y164500D01*
X339500Y143500D02*
Y164500D01*
X352500D01*
X339500Y143500D02*
X352500D01*
X285500Y262500D02*
Y283500D01*
X298500Y262500D02*
Y283500D01*
X285500Y262500D02*
X298500D01*
X285500Y283500D02*
X298500D01*
X402500Y186500D02*
X423500D01*
X402500Y199500D02*
X423500D01*
Y186500D02*
Y199500D01*
X402500Y186500D02*
Y199500D01*
X433500Y143500D02*
Y164500D01*
X420500Y143500D02*
Y164500D01*
X433500D01*
X420500Y143500D02*
X433500D01*
X415420Y259440D02*
Y280440D01*
X402420Y259440D02*
Y280440D01*
X415420D01*
X402420Y259440D02*
X415420D01*
X530680Y822620D02*
Y852620D01*
X544680Y822620D02*
Y852620D01*
X530680D02*
X544680D01*
X530680Y822620D02*
X544680D01*
X1181340Y753760D02*
X1211340D01*
X1181340Y739760D02*
X1211340D01*
Y753760D01*
X1181340Y739760D02*
Y753760D01*
X482890Y803830D02*
X503890D01*
X482890Y790830D02*
X503890D01*
X482890D02*
Y803830D01*
X503890Y790830D02*
Y803830D01*
X717110Y615480D02*
X738110D01*
X717110Y602480D02*
X738110D01*
X717110D02*
Y615480D01*
X738110Y602480D02*
Y615480D01*
X1265500Y643500D02*
X1286500D01*
X1265500Y656500D02*
X1286500D01*
Y643500D02*
Y656500D01*
X1265500Y643500D02*
Y656500D01*
X1061880Y219320D02*
Y232320D01*
X1040880Y219320D02*
Y232320D01*
Y219320D02*
X1061880D01*
X1040880Y232320D02*
X1061880D01*
X498500Y430500D02*
X511500D01*
X498500Y409500D02*
X511500D01*
Y430500D01*
X498500Y409500D02*
Y430500D01*
X1067650Y758530D02*
X1080650D01*
X1067650Y737530D02*
X1080650D01*
Y758530D01*
X1067650Y737530D02*
Y758530D01*
X991450D02*
X1004450D01*
X991450Y737530D02*
X1004450D01*
Y758530D01*
X991450Y737530D02*
Y758530D01*
X966050D02*
X979050D01*
X966050Y737530D02*
X979050D01*
Y758530D01*
X966050Y737530D02*
Y758530D01*
X183970Y213240D02*
Y226240D01*
X162970Y213240D02*
Y226240D01*
Y213240D02*
X183970D01*
X162970Y226240D02*
X183970D01*
X185240Y319920D02*
Y332920D01*
X164240Y319920D02*
Y332920D01*
Y319920D02*
X185240D01*
X164240Y332920D02*
X185240D01*
X342500Y212500D02*
Y225500D01*
X321500Y212500D02*
Y225500D01*
Y212500D02*
X342500D01*
X321500Y225500D02*
X342500D01*
X341950Y319320D02*
Y332320D01*
X320950Y319320D02*
Y332320D01*
Y319320D02*
X341950D01*
X320950Y332320D02*
X341950D01*
X1095680Y155630D02*
Y176630D01*
X1108680Y155630D02*
Y176630D01*
X1095680Y155630D02*
X1108680D01*
X1095680Y176630D02*
X1108680D01*
X1196410Y193740D02*
X1217410D01*
X1196410Y206740D02*
X1217410D01*
Y193740D02*
Y206740D01*
X1196410Y193740D02*
Y206740D01*
Y221680D02*
X1217410D01*
X1196410Y234680D02*
X1217410D01*
Y221680D02*
Y234680D01*
X1196410Y221680D02*
Y234680D01*
X1033450Y155630D02*
Y176630D01*
X1046450Y155630D02*
Y176630D01*
X1033450Y155630D02*
X1046450D01*
X1033450Y176630D02*
X1046450D01*
X1059500Y124500D02*
X1080500D01*
X1059500Y137500D02*
X1080500D01*
Y124500D02*
Y137500D01*
X1059500Y124500D02*
Y137500D01*
X562500Y409500D02*
Y430500D01*
X549500Y409500D02*
Y430500D01*
X562500D01*
X549500Y409500D02*
X562500D01*
X536550Y409590D02*
Y430590D01*
X523550Y409590D02*
Y430590D01*
X536550D01*
X523550Y409590D02*
X536550D01*
X482890Y766700D02*
X503890D01*
X482890Y779700D02*
X503890D01*
Y766700D02*
Y779700D01*
X482890Y766700D02*
Y779700D01*
Y816230D02*
X503890D01*
X482890Y829230D02*
X503890D01*
Y816230D02*
Y829230D01*
X482890Y816230D02*
Y829230D01*
Y842900D02*
X503890D01*
X482890Y855900D02*
X503890D01*
Y842900D02*
Y855900D01*
X482890Y842900D02*
Y855900D01*
X717110Y591350D02*
X738110D01*
X717110Y578350D02*
X738110D01*
X717110D02*
Y591350D01*
X738110Y578350D02*
Y591350D01*
X717110Y639610D02*
X738110D01*
X717110Y626610D02*
X738110D01*
X717110D02*
Y639610D01*
X738110Y626610D02*
Y639610D01*
X717110Y665010D02*
X738110D01*
X717110Y652010D02*
X738110D01*
X717110D02*
Y665010D01*
X738110Y652010D02*
Y665010D01*
X1265500Y681500D02*
X1286500D01*
X1265500Y668500D02*
X1286500D01*
X1265500D02*
Y681500D01*
X1286500Y668500D02*
Y681500D01*
X1265500Y593500D02*
X1286500D01*
X1265500Y606500D02*
X1286500D01*
Y593500D02*
Y606500D01*
X1265500Y593500D02*
Y606500D01*
Y618500D02*
X1286500D01*
X1265500Y631500D02*
X1286500D01*
Y618500D02*
Y631500D01*
X1265500Y618500D02*
Y631500D01*
X1229500Y779500D02*
Y800500D01*
X1216500Y779500D02*
Y800500D01*
X1229500D01*
X1216500Y779500D02*
X1229500D01*
X1055250Y737530D02*
Y758530D01*
X1042250Y737530D02*
Y758530D01*
X1055250D01*
X1042250Y737530D02*
X1055250D01*
X1029850D02*
Y758530D01*
X1016850Y737530D02*
Y758530D01*
X1029850D01*
X1016850Y737530D02*
X1029850D01*
X953650D02*
Y758530D01*
X940650Y737530D02*
Y758530D01*
X953650D01*
X940650Y737530D02*
X953650D01*
X93310Y263850D02*
Y284850D01*
X106310Y263850D02*
Y284850D01*
X93310Y263850D02*
X106310D01*
X93310Y284850D02*
X106310D01*
X243500Y262500D02*
Y283500D01*
X230500Y262500D02*
Y283500D01*
X243500D01*
X230500Y262500D02*
X243500D01*
X260500D02*
Y283500D01*
X273500Y262500D02*
Y283500D01*
X260500Y262500D02*
X273500D01*
X260500Y283500D02*
X273500D01*
X383416Y259440D02*
Y280440D01*
X370416Y259440D02*
Y280440D01*
X383416D01*
X370416Y259440D02*
X383416D01*
X1140270Y741760D02*
Y751760D01*
X1135270Y746760D02*
X1145270D01*
X1191670Y136820D02*
Y146820D01*
X1186670Y141820D02*
X1196670D01*
X530000Y348000D02*
Y358000D01*
X525000Y353000D02*
X535000D01*
X579000Y205000D02*
X589000D01*
X584000Y200000D02*
Y210000D01*
X326450Y271210D02*
X336450D01*
X331450Y266210D02*
Y276210D01*
X167200Y273080D02*
X177200D01*
X172200Y268080D02*
Y278080D01*
X1094560Y220820D02*
Y230820D01*
X1089560Y225820D02*
X1099560D01*
X1052650Y195420D02*
Y205420D01*
X1047650Y200420D02*
X1057650D01*
X1094560Y195420D02*
Y205420D01*
X1089560Y200420D02*
X1099560D01*
X536000Y802000D02*
Y812000D01*
X531000Y807000D02*
X541000D01*
X536000Y778000D02*
Y788000D01*
X531000Y783000D02*
X541000D01*
X597660Y142730D02*
X607660D01*
X602660Y137730D02*
Y147730D01*
X1043940Y325200D02*
Y335200D01*
X1038940Y330200D02*
X1048940D01*
X1160860Y603250D02*
X1170860D01*
X1165860Y598250D02*
Y608250D01*
X1043940Y349330D02*
Y359330D01*
X1038940Y354330D02*
X1048940D01*
X1043940Y541100D02*
Y551100D01*
X1038940Y546100D02*
X1048940D01*
X1043940Y397590D02*
Y407590D01*
X1038940Y402590D02*
X1048940D01*
X1043940Y301070D02*
Y311070D01*
X1038940Y306070D02*
X1048940D01*
X1043940Y421720D02*
Y431720D01*
X1038940Y426720D02*
X1048940D01*
X1043940Y445850D02*
Y455850D01*
X1038940Y450850D02*
X1048940D01*
X1043940Y469980D02*
Y479980D01*
X1038940Y474980D02*
X1048940D01*
X1043940Y494110D02*
Y504110D01*
X1038940Y499110D02*
X1048940D01*
X1043940Y518240D02*
Y528240D01*
X1038940Y523240D02*
X1048940D01*
X1088470Y603250D02*
X1098470D01*
X1093470Y598250D02*
Y608250D01*
X1184990Y603250D02*
X1194990D01*
X1189990Y598250D02*
Y608250D01*
X1209120Y603250D02*
X1219120D01*
X1214120Y598250D02*
Y608250D01*
X1233250Y603250D02*
X1243250D01*
X1238250Y598250D02*
Y608250D01*
X619512Y379000D02*
Y389000D01*
X614512Y384000D02*
X624512D01*
X619512Y355000D02*
Y365000D01*
X614512Y360000D02*
X624512D01*
X1043940Y373460D02*
Y383460D01*
X1038940Y378460D02*
X1048940D01*
X1040210Y603250D02*
X1050210D01*
X1045210Y598250D02*
Y608250D01*
X1064340Y603250D02*
X1074340D01*
X1069340Y598250D02*
Y608250D01*
X1112600Y603250D02*
X1122600D01*
X1117600Y598250D02*
Y608250D01*
X1136730Y603250D02*
X1146730D01*
X1141730Y598250D02*
Y608250D01*
X1126570Y293000D02*
X1136570D01*
X1131570Y288000D02*
Y298000D01*
X1253570Y293000D02*
X1263570D01*
X1258570Y288000D02*
Y298000D01*
X1229440Y293000D02*
X1239440D01*
X1234440Y288000D02*
Y298000D01*
X1248000Y747000D02*
X1258000D01*
X1253000Y742000D02*
Y752000D01*
X1224010Y746760D02*
X1234010D01*
X1229010Y741760D02*
Y751760D01*
X1165940Y746760D02*
X1175940D01*
X1170940Y741760D02*
Y751760D01*
X1108600Y748030D02*
X1118600D01*
X1113600Y743030D02*
Y753030D01*
X1140270Y770970D02*
Y780970D01*
X1135270Y775970D02*
X1145270D01*
X1103000Y293000D02*
X1113000D01*
X1108000Y288000D02*
Y298000D01*
X173000Y187000D02*
Y197000D01*
X168000Y192000D02*
X178000D01*
X181000Y154000D02*
X191000D01*
X186000Y149000D02*
Y159000D01*
X122750Y274350D02*
X132750D01*
X127750Y269350D02*
Y279350D01*
X253000Y188000D02*
Y198000D01*
X248000Y193000D02*
X258000D01*
X262000Y154000D02*
X272000D01*
X267000Y149000D02*
Y159000D01*
X207000Y273000D02*
X217000D01*
X212000Y268000D02*
Y278000D01*
X332000Y188000D02*
Y198000D01*
X327000Y193000D02*
X337000D01*
X341000Y154000D02*
X351000D01*
X346000Y149000D02*
Y159000D01*
X287000Y273000D02*
X297000D01*
X292000Y268000D02*
Y278000D01*
X413000Y188000D02*
Y198000D01*
X408000Y193000D02*
X418000D01*
X422000Y154000D02*
X432000D01*
X427000Y149000D02*
Y159000D01*
X403920Y269940D02*
X413920D01*
X408920Y264940D02*
Y274940D01*
X532680Y837620D02*
X542680D01*
X537680Y832620D02*
Y842620D01*
X1196340Y741760D02*
Y751760D01*
X1191340Y746760D02*
X1201340D01*
X493390Y792330D02*
Y802330D01*
X488390Y797330D02*
X498390D01*
X727610Y603980D02*
Y613980D01*
X722610Y608980D02*
X732610D01*
X1276000Y645000D02*
Y655000D01*
X1271000Y650000D02*
X1281000D01*
X1046380Y225820D02*
X1056380D01*
X1051380Y220820D02*
Y230820D01*
X505000Y415000D02*
Y425000D01*
X500000Y420000D02*
X510000D01*
X1074150Y743030D02*
Y753030D01*
X1069150Y748030D02*
X1079150D01*
X997950Y743030D02*
Y753030D01*
X992950Y748030D02*
X1002950D01*
X972550Y743030D02*
Y753030D01*
X967550Y748030D02*
X977550D01*
X168470Y219740D02*
X178470D01*
X173470Y214740D02*
Y224740D01*
X169740Y326420D02*
X179740D01*
X174740Y321420D02*
Y331420D01*
X327000Y219000D02*
X337000D01*
X332000Y214000D02*
Y224000D01*
X326450Y325820D02*
X336450D01*
X331450Y320820D02*
Y330820D01*
X1097180Y166130D02*
X1107180D01*
X1102180Y161130D02*
Y171130D01*
X1206910Y195240D02*
Y205240D01*
X1201910Y200240D02*
X1211910D01*
X1206910Y223180D02*
Y233180D01*
X1201910Y228180D02*
X1211910D01*
X1034950Y166130D02*
X1044950D01*
X1039950Y161130D02*
Y171130D01*
X1070000Y126000D02*
Y136000D01*
X1065000Y131000D02*
X1075000D01*
X551000Y420000D02*
X561000D01*
X556000Y415000D02*
Y425000D01*
X525050Y420090D02*
X535050D01*
X530050Y415090D02*
Y425090D01*
X493390Y768200D02*
Y778200D01*
X488390Y773200D02*
X498390D01*
X493390Y817730D02*
Y827730D01*
X488390Y822730D02*
X498390D01*
X493390Y844400D02*
Y854400D01*
X488390Y849400D02*
X498390D01*
X727610Y579850D02*
Y589850D01*
X722610Y584850D02*
X732610D01*
X727610Y628110D02*
Y638110D01*
X722610Y633110D02*
X732610D01*
X727610Y653510D02*
Y663510D01*
X722610Y658510D02*
X732610D01*
X1276000Y670000D02*
Y680000D01*
X1271000Y675000D02*
X1281000D01*
X1276000Y595000D02*
Y605000D01*
X1271000Y600000D02*
X1281000D01*
X1276000Y620000D02*
Y630000D01*
X1271000Y625000D02*
X1281000D01*
X1218000Y790000D02*
X1228000D01*
X1223000Y785000D02*
Y795000D01*
X1043750Y748030D02*
X1053750D01*
X1048750Y743030D02*
Y753030D01*
X1018350Y748030D02*
X1028350D01*
X1023350Y743030D02*
Y753030D01*
X942150Y748030D02*
X952150D01*
X947150Y743030D02*
Y753030D01*
X94810Y274350D02*
X104810D01*
X99810Y269350D02*
Y279350D01*
X232000Y273000D02*
X242000D01*
X237000Y268000D02*
Y278000D01*
X262000Y273000D02*
X272000D01*
X267000Y268000D02*
Y278000D01*
X371916Y269940D02*
X381916D01*
X376916Y264940D02*
Y274940D01*
D15*
X1360670Y364660D02*
Y544660D01*
X1300670Y364660D02*
X1360670D01*
X1105670D02*
X1300670D01*
X1105670D02*
Y544660D01*
X1300670D01*
X1360670D01*
X1300670Y364660D02*
Y544660D01*
D16*
X1122770Y766010D02*
X1157770D01*
X1122770Y727510D02*
X1157770D01*
Y766010D01*
X1122770Y727510D02*
Y766010D01*
X1155670Y184320D02*
X1227670D01*
X1155670Y99320D02*
X1227670D01*
Y184320D01*
X1155670Y99320D02*
Y184320D01*
X475000Y397000D02*
X585000D01*
X475000Y309000D02*
X585000D01*
Y397000D01*
X475000Y309000D02*
Y397000D01*
X556500Y168000D02*
Y242000D01*
X611500Y168000D02*
Y242000D01*
X556500Y168000D02*
X611500D01*
X556500Y242000D02*
X611500D01*
X303950Y234210D02*
Y308210D01*
X358950Y234210D02*
Y308210D01*
X303950Y234210D02*
X358950D01*
X303950Y308210D02*
X358950D01*
X144700Y236080D02*
Y310080D01*
X199700Y236080D02*
Y310080D01*
X144700Y236080D02*
X199700D01*
X144700Y310080D02*
X199700D01*
X1098170Y552160D02*
X1363170D01*
Y357160D02*
Y552160D01*
X1098170Y357160D02*
X1363170D01*
X1098170D02*
Y552160D01*
X1073560Y237820D02*
X1115560D01*
X1073560Y213820D02*
X1115560D01*
X1073560D02*
Y237820D01*
X1115560Y213820D02*
Y237820D01*
X1031650Y212420D02*
X1073650D01*
X1031650Y188420D02*
X1073650D01*
X1031650D02*
Y212420D01*
X1073650Y188420D02*
Y212420D01*
X1073560D02*
X1115560D01*
X1073560Y188420D02*
X1115560D01*
X1073560D02*
Y212420D01*
X1115560Y188420D02*
Y212420D01*
X515000Y819000D02*
X557000D01*
X515000Y795000D02*
X557000D01*
X515000D02*
Y819000D01*
X557000Y795000D02*
Y819000D01*
X515000Y771000D02*
X557000D01*
X515000Y795000D02*
X557000D01*
Y771000D02*
Y795000D01*
X515000Y771000D02*
Y795000D01*
X590660Y121730D02*
Y163730D01*
X614660Y121730D02*
Y163730D01*
X590660Y121730D02*
X614660D01*
X590660Y163730D02*
X614660D01*
X1022940Y342200D02*
X1064940D01*
X1022940Y318200D02*
X1064940D01*
X1022940D02*
Y342200D01*
X1064940Y318200D02*
Y342200D01*
X1153860Y582250D02*
Y624250D01*
X1177860Y582250D02*
Y624250D01*
X1153860Y582250D02*
X1177860D01*
X1153860Y624250D02*
X1177860D01*
X1022940Y366330D02*
X1064940D01*
X1022940Y342330D02*
X1064940D01*
X1022940D02*
Y366330D01*
X1064940Y342330D02*
Y366330D01*
X1022940Y558100D02*
X1064940D01*
X1022940Y534100D02*
X1064940D01*
X1022940D02*
Y558100D01*
X1064940Y534100D02*
Y558100D01*
X1022940Y390590D02*
X1064940D01*
X1022940Y414590D02*
X1064940D01*
Y390590D02*
Y414590D01*
X1022940Y390590D02*
Y414590D01*
X1022940Y318070D02*
X1064940D01*
X1022940Y294070D02*
X1064940D01*
X1022940D02*
Y318070D01*
X1064940Y294070D02*
Y318070D01*
X1022940Y414720D02*
X1064940D01*
X1022940Y438720D02*
X1064940D01*
Y414720D02*
Y438720D01*
X1022940Y414720D02*
Y438720D01*
Y438850D02*
X1064940D01*
X1022940Y462850D02*
X1064940D01*
Y438850D02*
Y462850D01*
X1022940Y438850D02*
Y462850D01*
Y462980D02*
X1064940D01*
X1022940Y486980D02*
X1064940D01*
Y462980D02*
Y486980D01*
X1022940Y462980D02*
Y486980D01*
Y487110D02*
X1064940D01*
X1022940Y511110D02*
X1064940D01*
Y487110D02*
Y511110D01*
X1022940Y487110D02*
Y511110D01*
Y511240D02*
X1064940D01*
X1022940Y535240D02*
X1064940D01*
Y511240D02*
Y535240D01*
X1022940Y511240D02*
Y535240D01*
X1081470Y582250D02*
Y624250D01*
X1105470Y582250D02*
Y624250D01*
X1081470Y582250D02*
X1105470D01*
X1081470Y624250D02*
X1105470D01*
X1177990Y582250D02*
Y624250D01*
X1201990Y582250D02*
Y624250D01*
X1177990Y582250D02*
X1201990D01*
X1177990Y624250D02*
X1201990D01*
X1202120Y582250D02*
Y624250D01*
X1226120Y582250D02*
Y624250D01*
X1202120Y582250D02*
X1226120D01*
X1202120Y624250D02*
X1226120D01*
X1226250Y582250D02*
Y624250D01*
X1250250Y582250D02*
Y624250D01*
X1226250Y582250D02*
X1250250D01*
X1226250Y624250D02*
X1250250D01*
X598512Y396000D02*
X640512D01*
X598512Y372000D02*
X640512D01*
X598512D02*
Y396000D01*
X640512Y372000D02*
Y396000D01*
X598512Y372000D02*
X640512D01*
X598512Y348000D02*
X640512D01*
X598512D02*
Y372000D01*
X640512Y348000D02*
Y372000D01*
X1022940Y390460D02*
X1064940D01*
X1022940Y366460D02*
X1064940D01*
X1022940D02*
Y390460D01*
X1064940Y366460D02*
Y390460D01*
X1057210Y582250D02*
Y624250D01*
X1033210Y582250D02*
Y624250D01*
X1057210D01*
X1033210Y582250D02*
X1057210D01*
X1081340D02*
Y624250D01*
X1057340Y582250D02*
Y624250D01*
X1081340D01*
X1057340Y582250D02*
X1081340D01*
X1129600D02*
Y624250D01*
X1105600Y582250D02*
Y624250D01*
X1129600D01*
X1105600Y582250D02*
X1129600D01*
X1153730D02*
Y624250D01*
X1129730Y582250D02*
Y624250D01*
X1153730D01*
X1129730Y582250D02*
X1153730D01*
X1143570Y272000D02*
Y314000D01*
X1119570Y272000D02*
Y314000D01*
X1143570D01*
X1119570Y272000D02*
X1143570D01*
X1270570D02*
Y314000D01*
X1246570Y272000D02*
Y314000D01*
X1270570D01*
X1246570Y272000D02*
X1270570D01*
X1246440D02*
Y314000D01*
X1222440Y272000D02*
Y314000D01*
X1246440D01*
X1222440Y272000D02*
X1246440D01*
X1241000Y726000D02*
Y768000D01*
X1265000Y726000D02*
Y768000D01*
X1241000Y726000D02*
X1265000D01*
X1241000Y768000D02*
X1265000D01*
X1241010Y725760D02*
Y767760D01*
X1217010Y725760D02*
Y767760D01*
X1241010D01*
X1217010Y725760D02*
X1241010D01*
X1158940Y725760D02*
Y767760D01*
X1182940Y725760D02*
Y767760D01*
X1158940Y725760D02*
X1182940D01*
X1158940Y767760D02*
X1182940D01*
X1101600Y727030D02*
Y769030D01*
X1125600Y727030D02*
Y769030D01*
X1101600Y727030D02*
X1125600D01*
X1101600Y769030D02*
X1125600D01*
X1119270Y763970D02*
X1161270D01*
X1119270Y787970D02*
X1161270D01*
Y763970D02*
Y787970D01*
X1119270Y763970D02*
Y787970D01*
X1096000Y272000D02*
Y314000D01*
X1120000Y272000D02*
Y314000D01*
X1096000Y272000D02*
X1120000D01*
X1096000Y314000D02*
X1120000D01*
X152000Y204000D02*
X194000D01*
X152000Y180000D02*
X194000D01*
X152000D02*
Y204000D01*
X194000Y180000D02*
Y204000D01*
X198000Y133000D02*
Y175000D01*
X174000Y133000D02*
Y175000D01*
X198000D01*
X174000Y133000D02*
X198000D01*
X115750Y253350D02*
Y295350D01*
X139750Y253350D02*
Y295350D01*
X115750Y253350D02*
X139750D01*
X115750Y295350D02*
X139750D01*
X232000Y181000D02*
X274000D01*
X232000Y205000D02*
X274000D01*
Y181000D02*
Y205000D01*
X232000Y181000D02*
Y205000D01*
X279000Y133000D02*
Y175000D01*
X255000Y133000D02*
Y175000D01*
X279000D01*
X255000Y133000D02*
X279000D01*
X224000Y252000D02*
Y294000D01*
X200000Y252000D02*
Y294000D01*
X224000D01*
X200000Y252000D02*
X224000D01*
X311000Y205000D02*
X353000D01*
X311000Y181000D02*
X353000D01*
X311000D02*
Y205000D01*
X353000Y181000D02*
Y205000D01*
X358000Y133000D02*
Y175000D01*
X334000Y133000D02*
Y175000D01*
X358000D01*
X334000Y133000D02*
X358000D01*
X280000Y252000D02*
Y294000D01*
X304000Y252000D02*
Y294000D01*
X280000Y252000D02*
X304000D01*
X280000Y294000D02*
X304000D01*
X392000Y181000D02*
X434000D01*
X392000Y205000D02*
X434000D01*
Y181000D02*
Y205000D01*
X392000Y181000D02*
Y205000D01*
X439000Y133000D02*
Y175000D01*
X415000Y133000D02*
Y175000D01*
X439000D01*
X415000Y133000D02*
X439000D01*
X420920Y248940D02*
Y290940D01*
X396920Y248940D02*
Y290940D01*
X420920D01*
X396920Y248940D02*
X420920D01*
X518430Y820120D02*
Y855120D01*
X556930Y820120D02*
Y855120D01*
X518430D02*
X556930D01*
X518430Y820120D02*
X556930D01*
X1178840Y766010D02*
X1213840D01*
X1178840Y727510D02*
X1213840D01*
Y766010D01*
X1178840Y727510D02*
Y766010D01*
X472390Y809330D02*
X514390D01*
X472390Y785330D02*
X514390D01*
X472390D02*
Y809330D01*
X514390Y785330D02*
Y809330D01*
X706610Y620980D02*
X748610D01*
X706610Y596980D02*
X748610D01*
X706610D02*
Y620980D01*
X748610Y596980D02*
Y620980D01*
X1255000Y638000D02*
X1297000D01*
X1255000Y662000D02*
X1297000D01*
Y638000D02*
Y662000D01*
X1255000Y638000D02*
Y662000D01*
X1072880Y213320D02*
Y238320D01*
X1029880Y213320D02*
Y238320D01*
Y213320D02*
X1072880D01*
X1029880Y238320D02*
X1072880D01*
X492500Y441500D02*
X517500D01*
X492500Y398500D02*
X517500D01*
Y441500D01*
X492500Y398500D02*
Y441500D01*
X1061650Y769530D02*
X1086650D01*
X1061650Y726530D02*
X1086650D01*
Y769530D01*
X1061650Y726530D02*
Y769530D01*
X985450D02*
X1010450D01*
X985450Y726530D02*
X1010450D01*
Y769530D01*
X985450Y726530D02*
Y769530D01*
X960050D02*
X985050D01*
X960050Y726530D02*
X985050D01*
Y769530D01*
X960050Y726530D02*
Y769530D01*
X194970Y207240D02*
Y232240D01*
X151970Y207240D02*
Y232240D01*
Y207240D02*
X194970D01*
X151970Y232240D02*
X194970D01*
X196240Y313920D02*
Y338920D01*
X153240Y313920D02*
Y338920D01*
Y313920D02*
X196240D01*
X153240Y338920D02*
X196240D01*
X353500Y206500D02*
Y231500D01*
X310500Y206500D02*
Y231500D01*
Y206500D02*
X353500D01*
X310500Y231500D02*
X353500D01*
X352950Y313320D02*
Y338320D01*
X309950Y313320D02*
Y338320D01*
Y313320D02*
X352950D01*
X309950Y338320D02*
X352950D01*
X1089680Y144630D02*
Y187630D01*
X1114680Y144630D02*
Y187630D01*
X1089680Y144630D02*
X1114680D01*
X1089680Y187630D02*
X1114680D01*
X1185410Y187740D02*
X1228410D01*
X1185410Y212740D02*
X1228410D01*
Y187740D02*
Y212740D01*
X1185410Y187740D02*
Y212740D01*
Y215680D02*
X1228410D01*
X1185410Y240680D02*
X1228410D01*
Y215680D02*
Y240680D01*
X1185410Y215680D02*
Y240680D01*
X1027450Y144630D02*
Y187630D01*
X1052450Y144630D02*
Y187630D01*
X1027450Y144630D02*
X1052450D01*
X1027450Y187630D02*
X1052450D01*
X1048500Y118500D02*
X1091500D01*
X1048500Y143500D02*
X1091500D01*
Y118500D02*
Y143500D01*
X1048500Y118500D02*
Y143500D01*
X568500Y398500D02*
Y441500D01*
X543500Y398500D02*
Y441500D01*
X568500D01*
X543500Y398500D02*
X568500D01*
X542550Y398590D02*
Y441590D01*
X517550Y398590D02*
Y441590D01*
X542550D01*
X517550Y398590D02*
X542550D01*
X471890Y760700D02*
X514890D01*
X471890Y785700D02*
X514890D01*
Y760700D02*
Y785700D01*
X471890Y760700D02*
Y785700D01*
Y810230D02*
X514890D01*
X471890Y835230D02*
X514890D01*
Y810230D02*
Y835230D01*
X471890Y810230D02*
Y835230D01*
Y836900D02*
X514890D01*
X471890Y861900D02*
X514890D01*
Y836900D02*
Y861900D01*
X471890Y836900D02*
Y861900D01*
X706110Y597350D02*
X749110D01*
X706110Y572350D02*
X749110D01*
X706110D02*
Y597350D01*
X749110Y572350D02*
Y597350D01*
X706110Y645610D02*
X749110D01*
X706110Y620610D02*
X749110D01*
X706110D02*
Y645610D01*
X749110Y620610D02*
Y645610D01*
X706110Y671010D02*
X749110D01*
X706110Y646010D02*
X749110D01*
X706110D02*
Y671010D01*
X749110Y646010D02*
Y671010D01*
X1254500Y687500D02*
X1297500D01*
X1254500Y662500D02*
X1297500D01*
X1254500D02*
Y687500D01*
X1297500Y662500D02*
Y687500D01*
X1254500Y587500D02*
X1297500D01*
X1254500Y612500D02*
X1297500D01*
Y587500D02*
Y612500D01*
X1254500Y587500D02*
Y612500D01*
X1297500D01*
X1254500Y637500D02*
X1297500D01*
Y612500D02*
Y637500D01*
X1254500Y612500D02*
Y637500D01*
X1235500Y768500D02*
Y811500D01*
X1210500Y768500D02*
Y811500D01*
X1235500D01*
X1210500Y768500D02*
X1235500D01*
X1061250Y726530D02*
Y769530D01*
X1036250Y726530D02*
Y769530D01*
X1061250D01*
X1036250Y726530D02*
X1061250D01*
X1035850D02*
Y769530D01*
X1010850Y726530D02*
Y769530D01*
X1035850D01*
X1010850Y726530D02*
X1035850D01*
X959650D02*
Y769530D01*
X934650Y726530D02*
Y769530D01*
X959650D01*
X934650Y726530D02*
X959650D01*
X87310Y252850D02*
Y295850D01*
X112310Y252850D02*
Y295850D01*
X87310Y252850D02*
X112310D01*
X87310Y295850D02*
X112310D01*
X249500Y251500D02*
Y294500D01*
X224500Y251500D02*
Y294500D01*
X249500D01*
X224500Y251500D02*
X249500D01*
X254500Y251500D02*
Y294500D01*
X279500Y251500D02*
Y294500D01*
X254500Y251500D02*
X279500D01*
X254500Y294500D02*
X279500D01*
X389416Y248440D02*
Y291440D01*
X364416Y248440D02*
Y291440D01*
X389416D01*
X364416Y248440D02*
X389416D01*
D73*
X880618Y64008D02*
Y68072D01*
X884682D01*
Y64008D01*
X880618D01*
Y89408D02*
Y93472D01*
X884682D01*
Y89408D01*
X880618D01*
Y114808D02*
Y118872D01*
X884682D01*
Y114808D01*
X880618D01*
Y191008D02*
Y195072D01*
X884682D01*
Y191008D01*
X880618D01*
Y165608D02*
Y169672D01*
X884682D01*
Y165608D01*
X880618D01*
Y140208D02*
Y144272D01*
X884682D01*
Y140208D01*
X880618D01*
X677418Y191008D02*
Y195072D01*
X681482D01*
Y191008D01*
X677418D01*
Y165608D02*
Y169672D01*
X681482D01*
Y165608D01*
X677418D01*
Y140208D02*
Y144272D01*
X681482D01*
Y140208D01*
X677418D01*
Y64008D02*
Y68072D01*
X681482D01*
Y64008D01*
X677418D01*
Y89408D02*
Y93472D01*
X681482D01*
Y89408D01*
X677418D01*
Y114808D02*
Y118872D01*
X681482D01*
Y114808D01*
X677418D01*
X1002000Y45968D02*
X999968Y50032D01*
X1004032D01*
X1002000Y45968D01*
X1052000D02*
X1049968Y50032D01*
X1054032D01*
X1052000Y45968D01*
X568000Y47968D02*
X565968Y52032D01*
X570032D01*
X568000Y47968D01*
X618000D02*
X615968Y52032D01*
X620032D01*
X618000Y47968D01*
X602660Y106408D02*
X603676Y107424D01*
X604692D01*
X603676Y108440D01*
X604692Y109456D01*
X603676D01*
X602660Y110472D01*
X601644Y109456D01*
X600628D01*
X601644Y108440D01*
X600628Y107424D01*
X601644D01*
X602660Y106408D01*
X577260D02*
X578276Y107424D01*
X579292D01*
X578276Y108440D01*
X579292Y109456D01*
X578276D01*
X577260Y110472D01*
X576244Y109456D01*
X575228D01*
X576244Y108440D01*
X575228Y107424D01*
X576244D01*
X577260Y106408D01*
X1061720Y845058D02*
X1062736Y846074D01*
X1063752D01*
X1062736Y847090D01*
X1063752Y848106D01*
X1062736D01*
X1061720Y849122D01*
X1060704Y848106D01*
X1059688D01*
X1060704Y847090D01*
X1059688Y846074D01*
X1060704D01*
X1061720Y845058D01*
X1087120D02*
X1088136Y846074D01*
X1089152D01*
X1088136Y847090D01*
X1089152Y848106D01*
X1088136D01*
X1087120Y849122D01*
X1086104Y848106D01*
X1085088D01*
X1086104Y847090D01*
X1085088Y846074D01*
X1086104D01*
X1087120Y845058D01*
X1112520D02*
X1113536Y846074D01*
X1114552D01*
X1113536Y847090D01*
X1114552Y848106D01*
X1113536D01*
X1112520Y849122D01*
X1111504Y848106D01*
X1110488D01*
X1111504Y847090D01*
X1110488Y846074D01*
X1111504D01*
X1112520Y845058D01*
X1137920D02*
X1138936Y846074D01*
X1139952D01*
X1138936Y847090D01*
X1139952Y848106D01*
X1138936D01*
X1137920Y849122D01*
X1136904Y848106D01*
X1135888D01*
X1136904Y847090D01*
X1135888Y846074D01*
X1136904D01*
X1137920Y845058D01*
X1163320D02*
X1164336Y846074D01*
X1165352D01*
X1164336Y847090D01*
X1165352Y848106D01*
X1164336D01*
X1163320Y849122D01*
X1162304Y848106D01*
X1161288D01*
X1162304Y847090D01*
X1161288Y846074D01*
X1162304D01*
X1163320Y845058D01*
X1188720D02*
X1189736Y846074D01*
X1190752D01*
X1189736Y847090D01*
X1190752Y848106D01*
X1189736D01*
X1188720Y849122D01*
X1187704Y848106D01*
X1186688D01*
X1187704Y847090D01*
X1186688Y846074D01*
X1187704D01*
X1188720Y845058D01*
X111000Y46238D02*
X108968Y50302D01*
X113032D01*
X111000Y46238D01*
X161000D02*
X158968Y50302D01*
X163032D01*
X161000Y46238D01*
Y139268D02*
X162016Y140284D01*
X163032D01*
X162016Y141300D01*
X163032Y142316D01*
X162016D01*
X161000Y143332D01*
X159984Y142316D01*
X158968D01*
X159984Y141300D01*
X158968Y140284D01*
X159984D01*
X161000Y139268D01*
Y164668D02*
X162016Y165684D01*
X163032D01*
X162016Y166700D01*
X163032Y167716D01*
X162016D01*
X161000Y168732D01*
X159984Y167716D01*
X158968D01*
X159984Y166700D01*
X158968Y165684D01*
X159984D01*
X161000Y164668D01*
X222333Y46238D02*
X220301Y50302D01*
X224365D01*
X222333Y46238D01*
X272333D02*
X270301Y50302D01*
X274365D01*
X272333Y46238D01*
X241000Y139268D02*
X242016Y140284D01*
X243032D01*
X242016Y141300D01*
X243032Y142316D01*
X242016D01*
X241000Y143332D01*
X239984Y142316D01*
X238968D01*
X239984Y141300D01*
X238968Y140284D01*
X239984D01*
X241000Y139268D01*
Y164668D02*
X242016Y165684D01*
X243032D01*
X242016Y166700D01*
X243032Y167716D01*
X242016D01*
X241000Y168732D01*
X239984Y167716D01*
X238968D01*
X239984Y166700D01*
X238968Y165684D01*
X239984D01*
X241000Y164668D01*
X333667Y46968D02*
X331635Y51032D01*
X335699D01*
X333667Y46968D01*
X383667D02*
X381635Y51032D01*
X385699D01*
X383667Y46968D01*
X321000Y139268D02*
X322016Y140284D01*
X323032D01*
X322016Y141300D01*
X323032Y142316D01*
X322016D01*
X321000Y143332D01*
X319984Y142316D01*
X318968D01*
X319984Y141300D01*
X318968Y140284D01*
X319984D01*
X321000Y139268D01*
Y164668D02*
X322016Y165684D01*
X323032D01*
X322016Y166700D01*
X323032Y167716D01*
X322016D01*
X321000Y168732D01*
X319984Y167716D01*
X318968D01*
X319984Y166700D01*
X318968Y165684D01*
X319984D01*
X321000Y164668D01*
X445000Y47968D02*
X442968Y52032D01*
X447032D01*
X445000Y47968D01*
X495000D02*
X492968Y52032D01*
X497032D01*
X495000Y47968D01*
X401300Y139268D02*
X402316Y140284D01*
X403332D01*
X402316Y141300D01*
X403332Y142316D01*
X402316D01*
X401300Y143332D01*
X400284Y142316D01*
X399268D01*
X400284Y141300D01*
X399268Y140284D01*
X400284D01*
X401300Y139268D01*
Y164668D02*
X402316Y165684D01*
X403332D01*
X402316Y166700D01*
X403332Y167716D01*
X402316D01*
X401300Y168732D01*
X400284Y167716D01*
X399268D01*
X400284Y166700D01*
X399268Y165684D01*
X400284D01*
X401300Y164668D01*
X1051968Y182968D02*
X1052984Y185000D01*
X1051968Y187032D01*
X1054000Y186016D01*
X1056032Y187032D01*
X1055016Y185000D01*
X1056032Y182968D01*
X1054000Y183984D01*
X1051968Y182968D01*
X1131968Y125968D02*
X1132984Y128000D01*
X1131968Y130032D01*
X1134000Y129016D01*
X1136032Y130032D01*
X1135016Y128000D01*
X1136032Y125968D01*
X1134000Y126984D01*
X1131968Y125968D01*
X1077968Y242968D02*
X1078984Y245000D01*
X1077968Y247032D01*
X1080000Y246016D01*
X1082032Y247032D01*
X1081016Y245000D01*
X1082032Y242968D01*
X1080000Y243984D01*
X1077968Y242968D01*
X1121968Y252968D02*
X1122984Y255000D01*
X1121968Y257032D01*
X1124000Y256016D01*
X1126032Y257032D01*
X1125016Y255000D01*
X1126032Y252968D01*
X1124000Y253984D01*
X1121968Y252968D01*
X1182968Y255968D02*
X1183984Y258000D01*
X1182968Y260032D01*
X1185000Y259016D01*
X1187032Y260032D01*
X1186016Y258000D01*
X1187032Y255968D01*
X1185000Y256984D01*
X1182968Y255968D01*
X1239968Y166968D02*
X1240984Y169000D01*
X1239968Y171032D01*
X1242000Y170016D01*
X1244032Y171032D01*
X1243016Y169000D01*
X1244032Y166968D01*
X1242000Y167984D01*
X1239968Y166968D01*
X1213968Y83968D02*
X1214984Y86000D01*
X1213968Y88032D01*
X1216000Y87016D01*
X1218032Y88032D01*
X1217016Y86000D01*
X1218032Y83968D01*
X1216000Y84984D01*
X1213968Y83968D01*
X1151968Y84968D02*
X1152984Y87000D01*
X1151968Y89032D01*
X1154000Y88016D01*
X1156032Y89032D01*
X1155016Y87000D01*
X1156032Y84968D01*
X1154000Y85984D01*
X1151968Y84968D01*
X1009968Y169968D02*
X1010984Y172000D01*
X1009968Y174032D01*
X1012000Y173016D01*
X1014032Y174032D01*
X1013016Y172000D01*
X1014032Y169968D01*
X1012000Y170984D01*
X1009968Y169968D01*
X699968Y618968D02*
X700984Y621000D01*
X699968Y623032D01*
X702000Y622016D01*
X704032Y623032D01*
X703016Y621000D01*
X704032Y618968D01*
X702000Y619984D01*
X699968Y618968D01*
X557968Y795968D02*
X558984Y798000D01*
X557968Y800032D01*
X560000Y799016D01*
X562032Y800032D01*
X561016Y798000D01*
X562032Y795968D01*
X560000Y796984D01*
X557968Y795968D01*
X173968Y262968D02*
X174984Y265000D01*
X173968Y267032D01*
X176000Y266016D01*
X178032Y267032D01*
X177016Y265000D01*
X178032Y262968D01*
X176000Y263984D01*
X173968Y262968D01*
X194968Y270968D02*
X195984Y273000D01*
X194968Y275032D01*
X197000Y274016D01*
X199032Y275032D01*
X198016Y273000D01*
X199032Y270968D01*
X197000Y271984D01*
X194968Y270968D01*
X111968Y293968D02*
X112984Y296000D01*
X111968Y298032D01*
X114000Y297016D01*
X116032Y298032D01*
X115016Y296000D01*
X116032Y293968D01*
X114000Y294984D01*
X111968Y293968D01*
X1197968Y697968D02*
X1198984Y700000D01*
X1197968Y702032D01*
X1200000Y701016D01*
X1202032Y702032D01*
X1201016Y700000D01*
X1202032Y697968D01*
X1200000Y698984D01*
X1197968Y697968D01*
Y497968D02*
X1198984Y500000D01*
X1197968Y502032D01*
X1200000Y501016D01*
X1202032Y502032D01*
X1201016Y500000D01*
X1202032Y497968D01*
X1200000Y498984D01*
X1197968Y497968D01*
Y297968D02*
X1198984Y300000D01*
X1197968Y302032D01*
X1200000Y301016D01*
X1202032Y302032D01*
X1201016Y300000D01*
X1202032Y297968D01*
X1200000Y298984D01*
X1197968Y297968D01*
X1247968Y197968D02*
X1248984Y200000D01*
X1247968Y202032D01*
X1250000Y201016D01*
X1252032Y202032D01*
X1251016Y200000D01*
X1252032Y197968D01*
X1250000Y198984D01*
X1247968Y197968D01*
X1097968Y697968D02*
X1098984Y700000D01*
X1097968Y702032D01*
X1100000Y701016D01*
X1102032Y702032D01*
X1101016Y700000D01*
X1102032Y697968D01*
X1100000Y698984D01*
X1097968Y697968D01*
X1147968Y397968D02*
X1148984Y400000D01*
X1147968Y402032D01*
X1150000Y401016D01*
X1152032Y402032D01*
X1151016Y400000D01*
X1152032Y397968D01*
X1150000Y398984D01*
X1147968Y397968D01*
X1097968Y97968D02*
X1098984Y100000D01*
X1097968Y102032D01*
X1100000Y101016D01*
X1102032Y102032D01*
X1101016Y100000D01*
X1102032Y97968D01*
X1100000Y98984D01*
X1097968Y97968D01*
X1047968Y797968D02*
X1048984Y800000D01*
X1047968Y802032D01*
X1050000Y801016D01*
X1052032Y802032D01*
X1051016Y800000D01*
X1052032Y797968D01*
X1050000Y798984D01*
X1047968Y797968D01*
X997968Y697968D02*
X998984Y700000D01*
X997968Y702032D01*
X1000000Y701016D01*
X1002032Y702032D01*
X1001016Y700000D01*
X1002032Y697968D01*
X1000000Y698984D01*
X997968Y697968D01*
X947968Y797968D02*
X948984Y800000D01*
X947968Y802032D01*
X950000Y801016D01*
X952032Y802032D01*
X951016Y800000D01*
X952032Y797968D01*
X950000Y798984D01*
X947968Y797968D01*
X897968Y697968D02*
X898984Y700000D01*
X897968Y702032D01*
X900000Y701016D01*
X902032Y702032D01*
X901016Y700000D01*
X902032Y697968D01*
X900000Y698984D01*
X897968Y697968D01*
X947968Y597968D02*
X948984Y600000D01*
X947968Y602032D01*
X950000Y601016D01*
X952032Y602032D01*
X951016Y600000D01*
X952032Y597968D01*
X950000Y598984D01*
X947968Y597968D01*
X897968Y497968D02*
X898984Y500000D01*
X897968Y502032D01*
X900000Y501016D01*
X902032Y502032D01*
X901016Y500000D01*
X902032Y497968D01*
X900000Y498984D01*
X897968Y497968D01*
Y297968D02*
X898984Y300000D01*
X897968Y302032D01*
X900000Y301016D01*
X902032Y302032D01*
X901016Y300000D01*
X902032Y297968D01*
X900000Y298984D01*
X897968Y297968D01*
X847968Y797968D02*
X848984Y800000D01*
X847968Y802032D01*
X850000Y801016D01*
X852032Y802032D01*
X851016Y800000D01*
X852032Y797968D01*
X850000Y798984D01*
X847968Y797968D01*
X797968Y697968D02*
X798984Y700000D01*
X797968Y702032D01*
X800000Y701016D01*
X802032Y702032D01*
X801016Y700000D01*
X802032Y697968D01*
X800000Y698984D01*
X797968Y697968D01*
X847968Y597968D02*
X848984Y600000D01*
X847968Y602032D01*
X850000Y601016D01*
X852032Y602032D01*
X851016Y600000D01*
X852032Y597968D01*
X850000Y598984D01*
X847968Y597968D01*
X797968Y297968D02*
X798984Y300000D01*
X797968Y302032D01*
X800000Y301016D01*
X802032Y302032D01*
X801016Y300000D01*
X802032Y297968D01*
X800000Y298984D01*
X797968Y297968D01*
X847968Y197968D02*
X848984Y200000D01*
X847968Y202032D01*
X850000Y201016D01*
X852032Y202032D01*
X851016Y200000D01*
X852032Y197968D01*
X850000Y198984D01*
X847968Y197968D01*
X747968Y797968D02*
X748984Y800000D01*
X747968Y802032D01*
X750000Y801016D01*
X752032Y802032D01*
X751016Y800000D01*
X752032Y797968D01*
X750000Y798984D01*
X747968Y797968D01*
X697968Y497968D02*
X698984Y500000D01*
X697968Y502032D01*
X700000Y501016D01*
X702032Y502032D01*
X701016Y500000D01*
X702032Y497968D01*
X700000Y498984D01*
X697968Y497968D01*
X747968Y397968D02*
X748984Y400000D01*
X747968Y402032D01*
X750000Y401016D01*
X752032Y402032D01*
X751016Y400000D01*
X752032Y397968D01*
X750000Y398984D01*
X747968Y397968D01*
X697968Y297968D02*
X698984Y300000D01*
X697968Y302032D01*
X700000Y301016D01*
X702032Y302032D01*
X701016Y300000D01*
X702032Y297968D01*
X700000Y298984D01*
X697968Y297968D01*
X747968Y197968D02*
X748984Y200000D01*
X747968Y202032D01*
X750000Y201016D01*
X752032Y202032D01*
X751016Y200000D01*
X752032Y197968D01*
X750000Y198984D01*
X747968Y197968D01*
X647968Y797968D02*
X648984Y800000D01*
X647968Y802032D01*
X650000Y801016D01*
X652032Y802032D01*
X651016Y800000D01*
X652032Y797968D01*
X650000Y798984D01*
X647968Y797968D01*
X597968Y497968D02*
X598984Y500000D01*
X597968Y502032D01*
X600000Y501016D01*
X602032Y502032D01*
X601016Y500000D01*
X602032Y497968D01*
X600000Y498984D01*
X597968Y497968D01*
Y297968D02*
X598984Y300000D01*
X597968Y302032D01*
X600000Y301016D01*
X602032Y302032D01*
X601016Y300000D01*
X602032Y297968D01*
X600000Y298984D01*
X597968Y297968D01*
X647968Y197968D02*
X648984Y200000D01*
X647968Y202032D01*
X650000Y201016D01*
X652032Y202032D01*
X651016Y200000D01*
X652032Y197968D01*
X650000Y198984D01*
X647968Y197968D01*
X497968Y697968D02*
X498984Y700000D01*
X497968Y702032D01*
X500000Y701016D01*
X502032Y702032D01*
X501016Y700000D01*
X502032Y697968D01*
X500000Y698984D01*
X497968Y697968D01*
X547968Y597968D02*
X548984Y600000D01*
X547968Y602032D01*
X550000Y601016D01*
X552032Y602032D01*
X551016Y600000D01*
X552032Y597968D01*
X550000Y598984D01*
X547968Y597968D01*
X497968Y497968D02*
X498984Y500000D01*
X497968Y502032D01*
X500000Y501016D01*
X502032Y502032D01*
X501016Y500000D01*
X502032Y497968D01*
X500000Y498984D01*
X497968Y497968D01*
Y297968D02*
X498984Y300000D01*
X497968Y302032D01*
X500000Y301016D01*
X502032Y302032D01*
X501016Y300000D01*
X502032Y297968D01*
X500000Y298984D01*
X497968Y297968D01*
X547968Y197968D02*
X548984Y200000D01*
X547968Y202032D01*
X550000Y201016D01*
X552032Y202032D01*
X551016Y200000D01*
X552032Y197968D01*
X550000Y198984D01*
X547968Y197968D01*
X497968Y97968D02*
X498984Y100000D01*
X497968Y102032D01*
X500000Y101016D01*
X502032Y102032D01*
X501016Y100000D01*
X502032Y97968D01*
X500000Y98984D01*
X497968Y97968D01*
X447968Y797968D02*
X448984Y800000D01*
X447968Y802032D01*
X450000Y801016D01*
X452032Y802032D01*
X451016Y800000D01*
X452032Y797968D01*
X450000Y798984D01*
X447968Y797968D01*
X397968Y697968D02*
X398984Y700000D01*
X397968Y702032D01*
X400000Y701016D01*
X402032Y702032D01*
X401016Y700000D01*
X402032Y697968D01*
X400000Y698984D01*
X397968Y697968D01*
X447968Y597968D02*
X448984Y600000D01*
X447968Y602032D01*
X450000Y601016D01*
X452032Y602032D01*
X451016Y600000D01*
X452032Y597968D01*
X450000Y598984D01*
X447968Y597968D01*
X397968Y497968D02*
X398984Y500000D01*
X397968Y502032D01*
X400000Y501016D01*
X402032Y502032D01*
X401016Y500000D01*
X402032Y497968D01*
X400000Y498984D01*
X397968Y497968D01*
X447968Y397968D02*
X448984Y400000D01*
X447968Y402032D01*
X450000Y401016D01*
X452032Y402032D01*
X451016Y400000D01*
X452032Y397968D01*
X450000Y398984D01*
X447968Y397968D01*
X397968Y297968D02*
X398984Y300000D01*
X397968Y302032D01*
X400000Y301016D01*
X402032Y302032D01*
X401016Y300000D01*
X402032Y297968D01*
X400000Y298984D01*
X397968Y297968D01*
X447968Y197968D02*
X448984Y200000D01*
X447968Y202032D01*
X450000Y201016D01*
X452032Y202032D01*
X451016Y200000D01*
X452032Y197968D01*
X450000Y198984D01*
X447968Y197968D01*
X397968Y97968D02*
X398984Y100000D01*
X397968Y102032D01*
X400000Y101016D01*
X402032Y102032D01*
X401016Y100000D01*
X402032Y97968D01*
X400000Y98984D01*
X397968Y97968D01*
X347968Y797968D02*
X348984Y800000D01*
X347968Y802032D01*
X350000Y801016D01*
X352032Y802032D01*
X351016Y800000D01*
X352032Y797968D01*
X350000Y798984D01*
X347968Y797968D01*
X297968Y697968D02*
X298984Y700000D01*
X297968Y702032D01*
X300000Y701016D01*
X302032Y702032D01*
X301016Y700000D01*
X302032Y697968D01*
X300000Y698984D01*
X297968Y697968D01*
X347968Y597968D02*
X348984Y600000D01*
X347968Y602032D01*
X350000Y601016D01*
X352032Y602032D01*
X351016Y600000D01*
X352032Y597968D01*
X350000Y598984D01*
X347968Y597968D01*
X297968Y497968D02*
X298984Y500000D01*
X297968Y502032D01*
X300000Y501016D01*
X302032Y502032D01*
X301016Y500000D01*
X302032Y497968D01*
X300000Y498984D01*
X297968Y497968D01*
Y297968D02*
X298984Y300000D01*
X297968Y302032D01*
X300000Y301016D01*
X302032Y302032D01*
X301016Y300000D01*
X302032Y297968D01*
X300000Y298984D01*
X297968Y297968D01*
Y97968D02*
X298984Y100000D01*
X297968Y102032D01*
X300000Y101016D01*
X302032Y102032D01*
X301016Y100000D01*
X302032Y97968D01*
X300000Y98984D01*
X297968Y97968D01*
X247968Y797968D02*
X248984Y800000D01*
X247968Y802032D01*
X250000Y801016D01*
X252032Y802032D01*
X251016Y800000D01*
X252032Y797968D01*
X250000Y798984D01*
X247968Y797968D01*
X197968Y697968D02*
X198984Y700000D01*
X197968Y702032D01*
X200000Y701016D01*
X202032Y702032D01*
X201016Y700000D01*
X202032Y697968D01*
X200000Y698984D01*
X197968Y697968D01*
X247968Y597968D02*
X248984Y600000D01*
X247968Y602032D01*
X250000Y601016D01*
X252032Y602032D01*
X251016Y600000D01*
X252032Y597968D01*
X250000Y598984D01*
X247968Y597968D01*
X197968Y497968D02*
X198984Y500000D01*
X197968Y502032D01*
X200000Y501016D01*
X202032Y502032D01*
X201016Y500000D01*
X202032Y497968D01*
X200000Y498984D01*
X197968Y497968D01*
X147968Y797968D02*
X148984Y800000D01*
X147968Y802032D01*
X150000Y801016D01*
X152032Y802032D01*
X151016Y800000D01*
X152032Y797968D01*
X150000Y798984D01*
X147968Y797968D01*
X97968Y697968D02*
X98984Y700000D01*
X97968Y702032D01*
X100000Y701016D01*
X102032Y702032D01*
X101016Y700000D01*
X102032Y697968D01*
X100000Y698984D01*
X97968Y697968D01*
X147968Y597968D02*
X148984Y600000D01*
X147968Y602032D01*
X150000Y601016D01*
X152032Y602032D01*
X151016Y600000D01*
X152032Y597968D01*
X150000Y598984D01*
X147968Y597968D01*
X97968Y497968D02*
X98984Y500000D01*
X97968Y502032D01*
X100000Y501016D01*
X102032Y502032D01*
X101016Y500000D01*
X102032Y497968D01*
X100000Y498984D01*
X97968Y497968D01*
X147968Y397968D02*
X148984Y400000D01*
X147968Y402032D01*
X150000Y401016D01*
X152032Y402032D01*
X151016Y400000D01*
X152032Y397968D01*
X150000Y398984D01*
X147968Y397968D01*
Y197968D02*
X148984Y200000D01*
X147968Y202032D01*
X150000Y201016D01*
X152032Y202032D01*
X151016Y200000D01*
X152032Y197968D01*
X150000Y198984D01*
X147968Y197968D01*
X97968Y97968D02*
X98984Y100000D01*
X97968Y102032D01*
X100000Y101016D01*
X102032Y102032D01*
X101016Y100000D01*
X102032Y97968D01*
X100000Y98984D01*
X97968Y97968D01*
X736168Y557168D02*
Y556152D01*
X738200D01*
Y557168D01*
X739216D01*
Y559200D01*
X738200D01*
Y560216D01*
X736168D01*
Y559200D01*
X735152D01*
Y557168D01*
X736168D01*
X679984Y659984D02*
Y658968D01*
X682016D01*
Y659984D01*
X683032D01*
Y662016D01*
X682016D01*
Y663032D01*
X679984D01*
Y662016D01*
X678968D01*
Y659984D01*
X679984D01*
X689984Y672984D02*
Y671968D01*
X692016D01*
Y672984D01*
X693032D01*
Y675016D01*
X692016D01*
Y676032D01*
X689984D01*
Y675016D01*
X688968D01*
Y672984D01*
X689984D01*
X658984Y671984D02*
Y670968D01*
X661016D01*
Y671984D01*
X662032D01*
Y674016D01*
X661016D01*
Y675032D01*
X658984D01*
Y674016D01*
X657968D01*
Y671984D01*
X658984D01*
X653496Y382984D02*
Y381968D01*
X655528D01*
Y382984D01*
X656544D01*
Y385016D01*
X655528D01*
Y386032D01*
X653496D01*
Y385016D01*
X652480D01*
Y382984D01*
X653496D01*
Y359984D02*
Y358968D01*
X655528D01*
Y359984D01*
X656544D01*
Y362016D01*
X655528D01*
Y363032D01*
X653496D01*
Y362016D01*
X652480D01*
Y359984D01*
X653496D01*
X487984Y751984D02*
Y750968D01*
X490016D01*
Y751984D01*
X491032D01*
Y754016D01*
X490016D01*
Y755032D01*
X487984D01*
Y754016D01*
X486968D01*
Y751984D01*
X487984D01*
X1240744Y686984D02*
Y685968D01*
X1242776D01*
Y686984D01*
X1243792D01*
Y689016D01*
X1242776D01*
Y690032D01*
X1240744D01*
Y689016D01*
X1239728D01*
Y686984D01*
X1240744D01*
Y708984D02*
Y707968D01*
X1242776D01*
Y708984D01*
X1243792D01*
Y711016D01*
X1242776D01*
Y712032D01*
X1240744D01*
Y711016D01*
X1239728D01*
Y708984D01*
X1240744D01*
X1282984Y319984D02*
Y318968D01*
X1285016D01*
Y319984D01*
X1286032D01*
Y322016D01*
X1285016D01*
Y323032D01*
X1282984D01*
Y322016D01*
X1281968D01*
Y319984D01*
X1282984D01*
X1151984Y266984D02*
Y265968D01*
X1154016D01*
Y266984D01*
X1155032D01*
Y269016D01*
X1154016D01*
Y270032D01*
X1151984D01*
Y269016D01*
X1150968D01*
Y266984D01*
X1151984D01*
X601651Y259984D02*
Y258968D01*
X603683D01*
Y259984D01*
X604699D01*
Y262016D01*
X603683D01*
Y263032D01*
X601651D01*
Y262016D01*
X600635D01*
Y259984D01*
X601651D01*
X583317D02*
Y258968D01*
X585349D01*
Y259984D01*
X586365D01*
Y262016D01*
X585349D01*
Y263032D01*
X583317D01*
Y262016D01*
X582301D01*
Y259984D01*
X583317D01*
X619984D02*
Y258968D01*
X622016D01*
Y259984D01*
X623032D01*
Y262016D01*
X622016D01*
Y263032D01*
X619984D01*
Y262016D01*
X618968D01*
Y259984D01*
X619984D01*
X588496Y400984D02*
Y399968D01*
X590528D01*
Y400984D01*
X591544D01*
Y403016D01*
X590528D01*
Y404032D01*
X588496D01*
Y403016D01*
X587480D01*
Y400984D01*
X588496D01*
X1281524Y571444D02*
Y570428D01*
X1283556D01*
Y571444D01*
X1284572D01*
Y573476D01*
X1283556D01*
Y574492D01*
X1281524D01*
Y573476D01*
X1280508D01*
Y571444D01*
X1281524D01*
X1237234Y630984D02*
Y629968D01*
X1239266D01*
Y630984D01*
X1240282D01*
Y633016D01*
X1239266D01*
Y634032D01*
X1237234D01*
Y633016D01*
X1236218D01*
Y630984D01*
X1237234D01*
X1257554Y260414D02*
Y259398D01*
X1259586D01*
Y260414D01*
X1260602D01*
Y262446D01*
X1259586D01*
Y263462D01*
X1257554D01*
Y262446D01*
X1256538D01*
Y260414D01*
X1257554D01*
X1106984Y262984D02*
Y261968D01*
X1109016D01*
Y262984D01*
X1110032D01*
Y265016D01*
X1109016D01*
Y266032D01*
X1106984D01*
Y265016D01*
X1105968D01*
Y262984D01*
X1106984D01*
X1213104Y630984D02*
Y629968D01*
X1215136D01*
Y630984D01*
X1216152D01*
Y633016D01*
X1215136D01*
Y634032D01*
X1213104D01*
Y633016D01*
X1212088D01*
Y630984D01*
X1213104D01*
X621734Y176734D02*
Y175718D01*
X623766D01*
Y176734D01*
X624782D01*
Y178766D01*
X623766D01*
Y179782D01*
X621734D01*
Y178766D01*
X620718D01*
Y176734D01*
X621734D01*
X503984Y451914D02*
Y450898D01*
X506016D01*
Y451914D01*
X507032D01*
Y453946D01*
X506016D01*
Y454962D01*
X503984D01*
Y453946D01*
X502968D01*
Y451914D01*
X503984D01*
X370484Y191984D02*
Y190968D01*
X372516D01*
Y191984D01*
X373532D01*
Y194016D01*
X372516D01*
Y195032D01*
X370484D01*
Y194016D01*
X369468D01*
Y191984D01*
X370484D01*
X211484Y190984D02*
Y189968D01*
X213516D01*
Y190984D01*
X214532D01*
Y193016D01*
X213516D01*
Y194032D01*
X211484D01*
Y193016D01*
X210468D01*
Y190984D01*
X211484D01*
X1164284Y630984D02*
Y629968D01*
X1166316D01*
Y630984D01*
X1167332D01*
Y633016D01*
X1166316D01*
Y634032D01*
X1164284D01*
Y633016D01*
X1163268D01*
Y630984D01*
X1164284D01*
X1189144D02*
Y629968D01*
X1191176D01*
Y630984D01*
X1192192D01*
Y633016D01*
X1191176D01*
Y634032D01*
X1189144D01*
Y633016D01*
X1188128D01*
Y630984D01*
X1189144D01*
X1012984Y521984D02*
Y520968D01*
X1015016D01*
Y521984D01*
X1016032D01*
Y524016D01*
X1015016D01*
Y525032D01*
X1012984D01*
Y524016D01*
X1011968D01*
Y521984D01*
X1012984D01*
X1011984Y497984D02*
Y496968D01*
X1014016D01*
Y497984D01*
X1015032D01*
Y500016D01*
X1014016D01*
Y501032D01*
X1011984D01*
Y500016D01*
X1010968D01*
Y497984D01*
X1011984D01*
X1043394Y630984D02*
Y629968D01*
X1045426D01*
Y630984D01*
X1046442D01*
Y633016D01*
X1045426D01*
Y634032D01*
X1043394D01*
Y633016D01*
X1042378D01*
Y630984D01*
X1043394D01*
X1067924D02*
Y629968D01*
X1069956D01*
Y630984D01*
X1070972D01*
Y633016D01*
X1069956D01*
Y634032D01*
X1067924D01*
Y633016D01*
X1066908D01*
Y630984D01*
X1067924D01*
X1140714D02*
Y629968D01*
X1142746D01*
Y630984D01*
X1143762D01*
Y633016D01*
X1142746D01*
Y634032D01*
X1140714D01*
Y633016D01*
X1139698D01*
Y630984D01*
X1140714D01*
X1116584D02*
Y629968D01*
X1118616D01*
Y630984D01*
X1119632D01*
Y633016D01*
X1118616D01*
Y634032D01*
X1116584D01*
Y633016D01*
X1115568D01*
Y630984D01*
X1116584D01*
X1092454D02*
Y629968D01*
X1094486D01*
Y630984D01*
X1095502D01*
Y633016D01*
X1094486D01*
Y634032D01*
X1092454D01*
Y633016D01*
X1091438D01*
Y630984D01*
X1092454D01*
X564984Y259984D02*
Y258968D01*
X567016D01*
Y259984D01*
X568032D01*
Y262016D01*
X567016D01*
Y263032D01*
X564984D01*
Y262016D01*
X563968D01*
Y259984D01*
X564984D01*
X1104984Y779984D02*
Y778968D01*
X1107016D01*
Y779984D01*
X1108032D01*
Y782016D01*
X1107016D01*
Y783032D01*
X1104984D01*
Y782016D01*
X1103968D01*
Y779984D01*
X1104984D01*
X1233424Y259424D02*
Y258408D01*
X1235456D01*
Y259424D01*
X1236472D01*
Y261456D01*
X1235456D01*
Y262472D01*
X1233424D01*
Y261456D01*
X1232408D01*
Y259424D01*
X1233424D01*
X312984Y386984D02*
Y385968D01*
X315016D01*
Y386984D01*
X316032D01*
Y389016D01*
X315016D01*
Y390032D01*
X312984D01*
Y389016D01*
X311968D01*
Y386984D01*
X312984D01*
X365234Y234114D02*
Y233098D01*
X367266D01*
Y234114D01*
X368282D01*
Y236146D01*
X367266D01*
Y237162D01*
X365234D01*
Y236146D01*
X364218D01*
Y234114D01*
X365234D01*
X205984Y235984D02*
Y234968D01*
X208016D01*
Y235984D01*
X209032D01*
Y238016D01*
X208016D01*
Y239032D01*
X205984D01*
Y238016D01*
X204968D01*
Y235984D01*
X205984D01*
X1139984Y202984D02*
Y201968D01*
X1142016D01*
Y202984D01*
X1143032D01*
Y205016D01*
X1142016D01*
Y206032D01*
X1139984D01*
Y205016D01*
X1138968D01*
Y202984D01*
X1139984D01*
X1174984Y139984D02*
Y138968D01*
X1177016D01*
Y139984D01*
X1178032D01*
Y142016D01*
X1177016D01*
Y143032D01*
X1174984D01*
Y142016D01*
X1173968D01*
Y139984D01*
X1174984D01*
X1203984D02*
Y138968D01*
X1206016D01*
Y139984D01*
X1207032D01*
Y142016D01*
X1206016D01*
Y143032D01*
X1203984D01*
Y142016D01*
X1202968D01*
Y139984D01*
X1203984D01*
X1237984Y131984D02*
Y130968D01*
X1240016D01*
Y131984D01*
X1241032D01*
Y134016D01*
X1240016D01*
Y135032D01*
X1237984D01*
Y134016D01*
X1236968D01*
Y131984D01*
X1237984D01*
Y147984D02*
Y146968D01*
X1240016D01*
Y147984D01*
X1241032D01*
Y150016D01*
X1240016D01*
Y151032D01*
X1237984D01*
Y150016D01*
X1236968D01*
Y147984D01*
X1237984D01*
X37968Y847968D02*
X38984D01*
X40000Y848984D01*
X41016Y847968D01*
X42032D01*
Y848984D01*
X41016Y850000D01*
X42032Y851016D01*
Y852032D01*
X41016D01*
X40000Y851016D01*
X38984Y852032D01*
X37968D01*
Y851016D01*
X38984Y850000D01*
X37968Y848984D01*
Y847968D01*
X1257968D02*
X1258984D01*
X1260000Y848984D01*
X1261016Y847968D01*
X1262032D01*
Y848984D01*
X1261016Y850000D01*
X1262032Y851016D01*
Y852032D01*
X1261016D01*
X1260000Y851016D01*
X1258984Y852032D01*
X1257968D01*
Y851016D01*
X1258984Y850000D01*
X1257968Y848984D01*
Y847968D01*
Y47968D02*
X1258984D01*
X1260000Y48984D01*
X1261016Y47968D01*
X1262032D01*
Y48984D01*
X1261016Y50000D01*
X1262032Y51016D01*
Y52032D01*
X1261016D01*
X1260000Y51016D01*
X1258984Y52032D01*
X1257968D01*
Y51016D01*
X1258984Y50000D01*
X1257968Y48984D01*
Y47968D01*
X37968D02*
X38984D01*
X40000Y48984D01*
X41016Y47968D01*
X42032D01*
Y48984D01*
X41016Y50000D01*
X42032Y51016D01*
Y52032D01*
X41016D01*
X40000Y51016D01*
X38984Y52032D01*
X37968D01*
Y51016D01*
X38984Y50000D01*
X37968Y48984D01*
Y47968D01*
D74*
X1217602Y469660D02*
G03*
X1217602Y469660I-2032J0D01*
G01*
Y483660D02*
G03*
X1217602Y483660I-2032J0D01*
G01*
Y455660D02*
G03*
X1217602Y455660I-2032J0D01*
G01*
X1203602Y483660D02*
G03*
X1203602Y483660I-2032J0D01*
G01*
Y469660D02*
G03*
X1203602Y469660I-2032J0D01*
G01*
Y455660D02*
G03*
X1203602Y455660I-2032J0D01*
G01*
X1224602Y476660D02*
G03*
X1224602Y476660I-2032J0D01*
G01*
Y462660D02*
G03*
X1224602Y462660I-2032J0D01*
G01*
X1210602Y476660D02*
G03*
X1210602Y476660I-2032J0D01*
G01*
Y462660D02*
G03*
X1210602Y462660I-2032J0D01*
G01*
X1196602Y476660D02*
G03*
X1196602Y476660I-2032J0D01*
G01*
Y462660D02*
G03*
X1196602Y462660I-2032J0D01*
G01*
M02*
