G04*
G04 #@! TF.GenerationSoftware,Altium Limited,Altium Designer,22.0.2 (36)*
G04*
G04 Layer_Color=255*
%FSLAX44Y44*%
%MOMM*%
G71*
G04*
G04 #@! TF.SameCoordinates,44A75C0C-92E7-4886-82EC-FF5ABF5C97BD*
G04*
G04*
G04 #@! TF.FilePolarity,Positive*
G04*
G01*
G75*
%ADD11C,0.2540*%
%ADD13C,0.2000*%
%ADD14C,0.1000*%
%ADD15C,0.1270*%
%ADD16C,0.0500*%
%ADD17R,0.7500X1.0000*%
G04:AMPARAMS|DCode=18|XSize=0.6mm|YSize=0.5mm|CornerRadius=0.125mm|HoleSize=0mm|Usage=FLASHONLY|Rotation=90.000|XOffset=0mm|YOffset=0mm|HoleType=Round|Shape=RoundedRectangle|*
%AMROUNDEDRECTD18*
21,1,0.6000,0.2500,0,0,90.0*
21,1,0.3500,0.5000,0,0,90.0*
1,1,0.2500,0.1250,0.1750*
1,1,0.2500,0.1250,-0.1750*
1,1,0.2500,-0.1250,-0.1750*
1,1,0.2500,-0.1250,0.1750*
%
%ADD18ROUNDEDRECTD18*%
G04:AMPARAMS|DCode=19|XSize=1.04mm|YSize=0.85mm|CornerRadius=0.2125mm|HoleSize=0mm|Usage=FLASHONLY|Rotation=90.000|XOffset=0mm|YOffset=0mm|HoleType=Round|Shape=RoundedRectangle|*
%AMROUNDEDRECTD19*
21,1,1.0400,0.4250,0,0,90.0*
21,1,0.6150,0.8500,0,0,90.0*
1,1,0.4250,0.2125,0.3075*
1,1,0.4250,0.2125,-0.3075*
1,1,0.4250,-0.2125,-0.3075*
1,1,0.4250,-0.2125,0.3075*
%
%ADD19ROUNDEDRECTD19*%
%ADD20R,1.0000X2.1500*%
%ADD21R,3.3500X2.1500*%
%ADD22O,0.6000X1.6500*%
G04:AMPARAMS|DCode=23|XSize=1.45mm|YSize=0.3mm|CornerRadius=0.075mm|HoleSize=0mm|Usage=FLASHONLY|Rotation=180.000|XOffset=0mm|YOffset=0mm|HoleType=Round|Shape=RoundedRectangle|*
%AMROUNDEDRECTD23*
21,1,1.4500,0.1500,0,0,180.0*
21,1,1.3000,0.3000,0,0,180.0*
1,1,0.1500,-0.6500,0.0750*
1,1,0.1500,0.6500,0.0750*
1,1,0.1500,0.6500,-0.0750*
1,1,0.1500,-0.6500,-0.0750*
%
%ADD23ROUNDEDRECTD23*%
%ADD24O,0.6000X1.4500*%
%ADD25R,0.9000X0.9000*%
%ADD26R,0.9000X1.5000*%
%ADD27R,1.5000X0.9000*%
%ADD28R,0.8000X1.4000*%
%ADD29R,1.4000X0.8000*%
%ADD30R,1.0000X0.7500*%
%ADD31R,2.5000X1.8000*%
%ADD32R,0.3500X1.3000*%
%ADD33R,0.8000X1.4500*%
%ADD34R,1.4500X0.8000*%
%ADD63C,1.3000*%
%ADD64R,1.3000X1.3000*%
%ADD65C,0.4000*%
%ADD66C,2.0000*%
%ADD67R,1.5000X1.5000*%
%ADD68C,1.5000*%
%ADD69R,1.5000X1.5000*%
D11*
X1300000D02*
Y900000D01*
X0D02*
X1300000D01*
X1270Y6350D02*
X1301270D01*
X0Y0D02*
Y900000D01*
X1328170Y499660D02*
X1336634D01*
X1340866Y495428D01*
X1336634Y491196D01*
X1328170D01*
X1334518D01*
Y499660D01*
X1328170Y486964D02*
X1340866D01*
X1328170Y478500D01*
X1340866D01*
Y474268D02*
Y465804D01*
Y470036D01*
X1328170D01*
X1340866Y453108D02*
Y461572D01*
X1328170D01*
Y453108D01*
X1334518Y461572D02*
Y457340D01*
X1328170Y448876D02*
X1340866D01*
X1328170Y440412D01*
X1340866D01*
X1328170Y436181D02*
X1340866D01*
X1328170Y427717D01*
X1340866D01*
X1328170Y423485D02*
X1336634D01*
X1340866Y419253D01*
X1336634Y415021D01*
X1328170D01*
X1334518D01*
Y423485D01*
D13*
X1286770Y556660D02*
G03*
X1286770Y556660I-1000J0D01*
G01*
D14*
X578500Y369000D02*
G03*
X578500Y369000I-5000J0D01*
G01*
X605000Y216000D02*
G03*
X605000Y216000I-5000J0D01*
G01*
X352450Y282210D02*
G03*
X352450Y282210I-5000J0D01*
G01*
X193200Y284080D02*
G03*
X193200Y284080I-5000J0D01*
G01*
X1125270Y753760D02*
X1155270D01*
X1125270Y739760D02*
X1155270D01*
Y753760D01*
X1125270Y739760D02*
Y753760D01*
X1158170Y160320D02*
X1225170D01*
X1158170Y123320D02*
X1225170D01*
Y160320D01*
X1158170Y123320D02*
Y160320D01*
X477500Y378000D02*
X582500D01*
X477500Y328000D02*
X582500D01*
Y378000D01*
X477500Y328000D02*
Y378000D01*
X559000Y185000D02*
Y225000D01*
X609000Y185000D02*
Y225000D01*
X559000Y185000D02*
X609000D01*
X559000Y225000D02*
X609000D01*
X306450Y251210D02*
Y291210D01*
X356450Y251210D02*
Y291210D01*
X306450Y251210D02*
X356450D01*
X306450Y291210D02*
X356450D01*
X147200Y253080D02*
Y293080D01*
X197200Y253080D02*
Y293080D01*
X147200Y253080D02*
X197200D01*
X147200Y293080D02*
X197200D01*
X1084060Y232320D02*
X1105060D01*
X1084060Y219320D02*
X1105060D01*
X1084060D02*
Y232320D01*
X1105060Y219320D02*
Y232320D01*
X1042150Y206920D02*
X1063150D01*
X1042150Y193920D02*
X1063150D01*
X1042150D02*
Y206920D01*
X1063150Y193920D02*
Y206920D01*
X1084060D02*
X1105060D01*
X1084060Y193920D02*
X1105060D01*
X1084060D02*
Y206920D01*
X1105060Y193920D02*
Y206920D01*
X525500Y813500D02*
X546500D01*
X525500Y800500D02*
X546500D01*
X525500D02*
Y813500D01*
X546500Y800500D02*
Y813500D01*
X525500Y776500D02*
X546500D01*
X525500Y789500D02*
X546500D01*
Y776500D02*
Y789500D01*
X525500Y776500D02*
Y789500D01*
X596160Y132230D02*
Y153230D01*
X609160Y132230D02*
Y153230D01*
X596160Y132230D02*
X609160D01*
X596160Y153230D02*
X609160D01*
X1033440Y336700D02*
X1054440D01*
X1033440Y323700D02*
X1054440D01*
X1033440D02*
Y336700D01*
X1054440Y323700D02*
Y336700D01*
X1159360Y592750D02*
Y613750D01*
X1172360Y592750D02*
Y613750D01*
X1159360Y592750D02*
X1172360D01*
X1159360Y613750D02*
X1172360D01*
X1033440Y360830D02*
X1054440D01*
X1033440Y347830D02*
X1054440D01*
X1033440D02*
Y360830D01*
X1054440Y347830D02*
Y360830D01*
X1033440Y552600D02*
X1054440D01*
X1033440Y539600D02*
X1054440D01*
X1033440D02*
Y552600D01*
X1054440Y539600D02*
Y552600D01*
X1033440Y396090D02*
X1054440D01*
X1033440Y409090D02*
X1054440D01*
Y396090D02*
Y409090D01*
X1033440Y396090D02*
Y409090D01*
Y312570D02*
X1054440D01*
X1033440Y299570D02*
X1054440D01*
X1033440D02*
Y312570D01*
X1054440Y299570D02*
Y312570D01*
X1033440Y420220D02*
X1054440D01*
X1033440Y433220D02*
X1054440D01*
Y420220D02*
Y433220D01*
X1033440Y420220D02*
Y433220D01*
Y444350D02*
X1054440D01*
X1033440Y457350D02*
X1054440D01*
Y444350D02*
Y457350D01*
X1033440Y444350D02*
Y457350D01*
Y468480D02*
X1054440D01*
X1033440Y481480D02*
X1054440D01*
Y468480D02*
Y481480D01*
X1033440Y468480D02*
Y481480D01*
Y492610D02*
X1054440D01*
X1033440Y505610D02*
X1054440D01*
Y492610D02*
Y505610D01*
X1033440Y492610D02*
Y505610D01*
Y516740D02*
X1054440D01*
X1033440Y529740D02*
X1054440D01*
Y516740D02*
Y529740D01*
X1033440Y516740D02*
Y529740D01*
X1086970Y592750D02*
Y613750D01*
X1099970Y592750D02*
Y613750D01*
X1086970Y592750D02*
X1099970D01*
X1086970Y613750D02*
X1099970D01*
X1183490Y592750D02*
Y613750D01*
X1196490Y592750D02*
Y613750D01*
X1183490Y592750D02*
X1196490D01*
X1183490Y613750D02*
X1196490D01*
X1207620Y592750D02*
Y613750D01*
X1220620Y592750D02*
Y613750D01*
X1207620Y592750D02*
X1220620D01*
X1207620Y613750D02*
X1220620D01*
X1231750Y592750D02*
Y613750D01*
X1244750Y592750D02*
Y613750D01*
X1231750Y592750D02*
X1244750D01*
X1231750Y613750D02*
X1244750D01*
X609012Y390500D02*
X630012D01*
X609012Y377500D02*
X630012D01*
X609012D02*
Y390500D01*
X630012Y377500D02*
Y390500D01*
X609012Y366500D02*
X630012D01*
X609012Y353500D02*
X630012D01*
X609012D02*
Y366500D01*
X630012Y353500D02*
Y366500D01*
X1033440Y384960D02*
X1054440D01*
X1033440Y371960D02*
X1054440D01*
X1033440D02*
Y384960D01*
X1054440Y371960D02*
Y384960D01*
X1051710Y592750D02*
Y613750D01*
X1038710Y592750D02*
Y613750D01*
X1051710D01*
X1038710Y592750D02*
X1051710D01*
X1075840D02*
Y613750D01*
X1062840Y592750D02*
Y613750D01*
X1075840D01*
X1062840Y592750D02*
X1075840D01*
X1124100D02*
Y613750D01*
X1111100Y592750D02*
Y613750D01*
X1124100D01*
X1111100Y592750D02*
X1124100D01*
X1148230D02*
Y613750D01*
X1135230Y592750D02*
Y613750D01*
X1148230D01*
X1135230Y592750D02*
X1148230D01*
X1138070Y282500D02*
Y303500D01*
X1125070Y282500D02*
Y303500D01*
X1138070D01*
X1125070Y282500D02*
X1138070D01*
X1265070D02*
Y303500D01*
X1252070Y282500D02*
Y303500D01*
X1265070D01*
X1252070Y282500D02*
X1265070D01*
X1240940D02*
Y303500D01*
X1227940Y282500D02*
Y303500D01*
X1240940D01*
X1227940Y282500D02*
X1240940D01*
X1246500Y736500D02*
Y757500D01*
X1259500Y736500D02*
Y757500D01*
X1246500Y736500D02*
X1259500D01*
X1246500Y757500D02*
X1259500D01*
X1235510Y736260D02*
Y757260D01*
X1222510Y736260D02*
Y757260D01*
X1235510D01*
X1222510Y736260D02*
X1235510D01*
X1164440D02*
Y757260D01*
X1177440Y736260D02*
Y757260D01*
X1164440Y736260D02*
X1177440D01*
X1164440Y757260D02*
X1177440D01*
X1107100Y737530D02*
Y758530D01*
X1120100Y737530D02*
Y758530D01*
X1107100Y737530D02*
X1120100D01*
X1107100Y758530D02*
X1120100D01*
X1129770Y769470D02*
X1150770D01*
X1129770Y782470D02*
X1150770D01*
Y769470D02*
Y782470D01*
X1129770Y769470D02*
Y782470D01*
X1101500Y282500D02*
Y303500D01*
X1114500Y282500D02*
Y303500D01*
X1101500Y282500D02*
X1114500D01*
X1101500Y303500D02*
X1114500D01*
X162500Y198500D02*
X183500D01*
X162500Y185500D02*
X183500D01*
X162500D02*
Y198500D01*
X183500Y185500D02*
Y198500D01*
X192500Y143500D02*
Y164500D01*
X179500Y143500D02*
Y164500D01*
X192500D01*
X179500Y143500D02*
X192500D01*
X121250Y263850D02*
Y284850D01*
X134250Y263850D02*
Y284850D01*
X121250Y263850D02*
X134250D01*
X121250Y284850D02*
X134250D01*
X242500Y186500D02*
X263500D01*
X242500Y199500D02*
X263500D01*
Y186500D02*
Y199500D01*
X242500Y186500D02*
Y199500D01*
X273500Y143500D02*
Y164500D01*
X260500Y143500D02*
Y164500D01*
X273500D01*
X260500Y143500D02*
X273500D01*
X218500Y262500D02*
Y283500D01*
X205500Y262500D02*
Y283500D01*
X218500D01*
X205500Y262500D02*
X218500D01*
X321500Y199500D02*
X342500D01*
X321500Y186500D02*
X342500D01*
X321500D02*
Y199500D01*
X342500Y186500D02*
Y199500D01*
X352500Y143500D02*
Y164500D01*
X339500Y143500D02*
Y164500D01*
X352500D01*
X339500Y143500D02*
X352500D01*
X285500Y262500D02*
Y283500D01*
X298500Y262500D02*
Y283500D01*
X285500Y262500D02*
X298500D01*
X285500Y283500D02*
X298500D01*
X402500Y186500D02*
X423500D01*
X402500Y199500D02*
X423500D01*
Y186500D02*
Y199500D01*
X402500Y186500D02*
Y199500D01*
X433500Y143500D02*
Y164500D01*
X420500Y143500D02*
Y164500D01*
X433500D01*
X420500Y143500D02*
X433500D01*
X415420Y259440D02*
Y280440D01*
X402420Y259440D02*
Y280440D01*
X415420D01*
X402420Y259440D02*
X415420D01*
X530680Y822620D02*
Y852620D01*
X544680Y822620D02*
Y852620D01*
X530680D02*
X544680D01*
X530680Y822620D02*
X544680D01*
X1181340Y753760D02*
X1211340D01*
X1181340Y739760D02*
X1211340D01*
Y753760D01*
X1181340Y739760D02*
Y753760D01*
X482890Y803830D02*
X503890D01*
X482890Y790830D02*
X503890D01*
X482890D02*
Y803830D01*
X503890Y790830D02*
Y803830D01*
X717110Y615480D02*
X738110D01*
X717110Y602480D02*
X738110D01*
X717110D02*
Y615480D01*
X738110Y602480D02*
Y615480D01*
X1265500Y643500D02*
X1286500D01*
X1265500Y656500D02*
X1286500D01*
Y643500D02*
Y656500D01*
X1265500Y643500D02*
Y656500D01*
X1061880Y219320D02*
Y232320D01*
X1040880Y219320D02*
Y232320D01*
Y219320D02*
X1061880D01*
X1040880Y232320D02*
X1061880D01*
X498500Y430500D02*
X511500D01*
X498500Y409500D02*
X511500D01*
Y430500D01*
X498500Y409500D02*
Y430500D01*
X1067650Y758530D02*
X1080650D01*
X1067650Y737530D02*
X1080650D01*
Y758530D01*
X1067650Y737530D02*
Y758530D01*
X991450D02*
X1004450D01*
X991450Y737530D02*
X1004450D01*
Y758530D01*
X991450Y737530D02*
Y758530D01*
X966050D02*
X979050D01*
X966050Y737530D02*
X979050D01*
Y758530D01*
X966050Y737530D02*
Y758530D01*
X183970Y213240D02*
Y226240D01*
X162970Y213240D02*
Y226240D01*
Y213240D02*
X183970D01*
X162970Y226240D02*
X183970D01*
X185240Y319920D02*
Y332920D01*
X164240Y319920D02*
Y332920D01*
Y319920D02*
X185240D01*
X164240Y332920D02*
X185240D01*
X342500Y212500D02*
Y225500D01*
X321500Y212500D02*
Y225500D01*
Y212500D02*
X342500D01*
X321500Y225500D02*
X342500D01*
X341950Y319320D02*
Y332320D01*
X320950Y319320D02*
Y332320D01*
Y319320D02*
X341950D01*
X320950Y332320D02*
X341950D01*
X1095680Y155630D02*
Y176630D01*
X1108680Y155630D02*
Y176630D01*
X1095680Y155630D02*
X1108680D01*
X1095680Y176630D02*
X1108680D01*
X1196410Y193740D02*
X1217410D01*
X1196410Y206740D02*
X1217410D01*
Y193740D02*
Y206740D01*
X1196410Y193740D02*
Y206740D01*
Y221680D02*
X1217410D01*
X1196410Y234680D02*
X1217410D01*
Y221680D02*
Y234680D01*
X1196410Y221680D02*
Y234680D01*
X1033450Y155630D02*
Y176630D01*
X1046450Y155630D02*
Y176630D01*
X1033450Y155630D02*
X1046450D01*
X1033450Y176630D02*
X1046450D01*
X1059500Y124500D02*
X1080500D01*
X1059500Y137500D02*
X1080500D01*
Y124500D02*
Y137500D01*
X1059500Y124500D02*
Y137500D01*
X562500Y409500D02*
Y430500D01*
X549500Y409500D02*
Y430500D01*
X562500D01*
X549500Y409500D02*
X562500D01*
X536550Y409590D02*
Y430590D01*
X523550Y409590D02*
Y430590D01*
X536550D01*
X523550Y409590D02*
X536550D01*
X482890Y766700D02*
X503890D01*
X482890Y779700D02*
X503890D01*
Y766700D02*
Y779700D01*
X482890Y766700D02*
Y779700D01*
Y816230D02*
X503890D01*
X482890Y829230D02*
X503890D01*
Y816230D02*
Y829230D01*
X482890Y816230D02*
Y829230D01*
Y842900D02*
X503890D01*
X482890Y855900D02*
X503890D01*
Y842900D02*
Y855900D01*
X482890Y842900D02*
Y855900D01*
X717110Y591350D02*
X738110D01*
X717110Y578350D02*
X738110D01*
X717110D02*
Y591350D01*
X738110Y578350D02*
Y591350D01*
X717110Y639610D02*
X738110D01*
X717110Y626610D02*
X738110D01*
X717110D02*
Y639610D01*
X738110Y626610D02*
Y639610D01*
X717110Y665010D02*
X738110D01*
X717110Y652010D02*
X738110D01*
X717110D02*
Y665010D01*
X738110Y652010D02*
Y665010D01*
X1265500Y681500D02*
X1286500D01*
X1265500Y668500D02*
X1286500D01*
X1265500D02*
Y681500D01*
X1286500Y668500D02*
Y681500D01*
X1265500Y593500D02*
X1286500D01*
X1265500Y606500D02*
X1286500D01*
Y593500D02*
Y606500D01*
X1265500Y593500D02*
Y606500D01*
Y618500D02*
X1286500D01*
X1265500Y631500D02*
X1286500D01*
Y618500D02*
Y631500D01*
X1265500Y618500D02*
Y631500D01*
X1229500Y779500D02*
Y800500D01*
X1216500Y779500D02*
Y800500D01*
X1229500D01*
X1216500Y779500D02*
X1229500D01*
X1055250Y737530D02*
Y758530D01*
X1042250Y737530D02*
Y758530D01*
X1055250D01*
X1042250Y737530D02*
X1055250D01*
X1029850D02*
Y758530D01*
X1016850Y737530D02*
Y758530D01*
X1029850D01*
X1016850Y737530D02*
X1029850D01*
X953650D02*
Y758530D01*
X940650Y737530D02*
Y758530D01*
X953650D01*
X940650Y737530D02*
X953650D01*
X93310Y263850D02*
Y284850D01*
X106310Y263850D02*
Y284850D01*
X93310Y263850D02*
X106310D01*
X93310Y284850D02*
X106310D01*
X243500Y262500D02*
Y283500D01*
X230500Y262500D02*
Y283500D01*
X243500D01*
X230500Y262500D02*
X243500D01*
X260500D02*
Y283500D01*
X273500Y262500D02*
Y283500D01*
X260500Y262500D02*
X273500D01*
X260500Y283500D02*
X273500D01*
X383416Y259440D02*
Y280440D01*
X370416Y259440D02*
Y280440D01*
X383416D01*
X370416Y259440D02*
X383416D01*
X1140270Y741760D02*
Y751760D01*
X1135270Y746760D02*
X1145270D01*
X1191670Y136820D02*
Y146820D01*
X1186670Y141820D02*
X1196670D01*
X530000Y348000D02*
Y358000D01*
X525000Y353000D02*
X535000D01*
X579000Y205000D02*
X589000D01*
X584000Y200000D02*
Y210000D01*
X326450Y271210D02*
X336450D01*
X331450Y266210D02*
Y276210D01*
X167200Y273080D02*
X177200D01*
X172200Y268080D02*
Y278080D01*
X1094560Y220820D02*
Y230820D01*
X1089560Y225820D02*
X1099560D01*
X1052650Y195420D02*
Y205420D01*
X1047650Y200420D02*
X1057650D01*
X1094560Y195420D02*
Y205420D01*
X1089560Y200420D02*
X1099560D01*
X536000Y802000D02*
Y812000D01*
X531000Y807000D02*
X541000D01*
X536000Y778000D02*
Y788000D01*
X531000Y783000D02*
X541000D01*
X597660Y142730D02*
X607660D01*
X602660Y137730D02*
Y147730D01*
X1043940Y325200D02*
Y335200D01*
X1038940Y330200D02*
X1048940D01*
X1160860Y603250D02*
X1170860D01*
X1165860Y598250D02*
Y608250D01*
X1043940Y349330D02*
Y359330D01*
X1038940Y354330D02*
X1048940D01*
X1043940Y541100D02*
Y551100D01*
X1038940Y546100D02*
X1048940D01*
X1043940Y397590D02*
Y407590D01*
X1038940Y402590D02*
X1048940D01*
X1043940Y301070D02*
Y311070D01*
X1038940Y306070D02*
X1048940D01*
X1043940Y421720D02*
Y431720D01*
X1038940Y426720D02*
X1048940D01*
X1043940Y445850D02*
Y455850D01*
X1038940Y450850D02*
X1048940D01*
X1043940Y469980D02*
Y479980D01*
X1038940Y474980D02*
X1048940D01*
X1043940Y494110D02*
Y504110D01*
X1038940Y499110D02*
X1048940D01*
X1043940Y518240D02*
Y528240D01*
X1038940Y523240D02*
X1048940D01*
X1088470Y603250D02*
X1098470D01*
X1093470Y598250D02*
Y608250D01*
X1184990Y603250D02*
X1194990D01*
X1189990Y598250D02*
Y608250D01*
X1209120Y603250D02*
X1219120D01*
X1214120Y598250D02*
Y608250D01*
X1233250Y603250D02*
X1243250D01*
X1238250Y598250D02*
Y608250D01*
X619512Y379000D02*
Y389000D01*
X614512Y384000D02*
X624512D01*
X619512Y355000D02*
Y365000D01*
X614512Y360000D02*
X624512D01*
X1043940Y373460D02*
Y383460D01*
X1038940Y378460D02*
X1048940D01*
X1040210Y603250D02*
X1050210D01*
X1045210Y598250D02*
Y608250D01*
X1064340Y603250D02*
X1074340D01*
X1069340Y598250D02*
Y608250D01*
X1112600Y603250D02*
X1122600D01*
X1117600Y598250D02*
Y608250D01*
X1136730Y603250D02*
X1146730D01*
X1141730Y598250D02*
Y608250D01*
X1126570Y293000D02*
X1136570D01*
X1131570Y288000D02*
Y298000D01*
X1253570Y293000D02*
X1263570D01*
X1258570Y288000D02*
Y298000D01*
X1229440Y293000D02*
X1239440D01*
X1234440Y288000D02*
Y298000D01*
X1248000Y747000D02*
X1258000D01*
X1253000Y742000D02*
Y752000D01*
X1224010Y746760D02*
X1234010D01*
X1229010Y741760D02*
Y751760D01*
X1165940Y746760D02*
X1175940D01*
X1170940Y741760D02*
Y751760D01*
X1108600Y748030D02*
X1118600D01*
X1113600Y743030D02*
Y753030D01*
X1140270Y770970D02*
Y780970D01*
X1135270Y775970D02*
X1145270D01*
X1103000Y293000D02*
X1113000D01*
X1108000Y288000D02*
Y298000D01*
X173000Y187000D02*
Y197000D01*
X168000Y192000D02*
X178000D01*
X181000Y154000D02*
X191000D01*
X186000Y149000D02*
Y159000D01*
X122750Y274350D02*
X132750D01*
X127750Y269350D02*
Y279350D01*
X253000Y188000D02*
Y198000D01*
X248000Y193000D02*
X258000D01*
X262000Y154000D02*
X272000D01*
X267000Y149000D02*
Y159000D01*
X207000Y273000D02*
X217000D01*
X212000Y268000D02*
Y278000D01*
X332000Y188000D02*
Y198000D01*
X327000Y193000D02*
X337000D01*
X341000Y154000D02*
X351000D01*
X346000Y149000D02*
Y159000D01*
X287000Y273000D02*
X297000D01*
X292000Y268000D02*
Y278000D01*
X413000Y188000D02*
Y198000D01*
X408000Y193000D02*
X418000D01*
X422000Y154000D02*
X432000D01*
X427000Y149000D02*
Y159000D01*
X403920Y269940D02*
X413920D01*
X408920Y264940D02*
Y274940D01*
X532680Y837620D02*
X542680D01*
X537680Y832620D02*
Y842620D01*
X1196340Y741760D02*
Y751760D01*
X1191340Y746760D02*
X1201340D01*
X493390Y792330D02*
Y802330D01*
X488390Y797330D02*
X498390D01*
X727610Y603980D02*
Y613980D01*
X722610Y608980D02*
X732610D01*
X1276000Y645000D02*
Y655000D01*
X1271000Y650000D02*
X1281000D01*
X1046380Y225820D02*
X1056380D01*
X1051380Y220820D02*
Y230820D01*
X505000Y415000D02*
Y425000D01*
X500000Y420000D02*
X510000D01*
X1074150Y743030D02*
Y753030D01*
X1069150Y748030D02*
X1079150D01*
X997950Y743030D02*
Y753030D01*
X992950Y748030D02*
X1002950D01*
X972550Y743030D02*
Y753030D01*
X967550Y748030D02*
X977550D01*
X168470Y219740D02*
X178470D01*
X173470Y214740D02*
Y224740D01*
X169740Y326420D02*
X179740D01*
X174740Y321420D02*
Y331420D01*
X327000Y219000D02*
X337000D01*
X332000Y214000D02*
Y224000D01*
X326450Y325820D02*
X336450D01*
X331450Y320820D02*
Y330820D01*
X1097180Y166130D02*
X1107180D01*
X1102180Y161130D02*
Y171130D01*
X1206910Y195240D02*
Y205240D01*
X1201910Y200240D02*
X1211910D01*
X1206910Y223180D02*
Y233180D01*
X1201910Y228180D02*
X1211910D01*
X1034950Y166130D02*
X1044950D01*
X1039950Y161130D02*
Y171130D01*
X1070000Y126000D02*
Y136000D01*
X1065000Y131000D02*
X1075000D01*
X551000Y420000D02*
X561000D01*
X556000Y415000D02*
Y425000D01*
X525050Y420090D02*
X535050D01*
X530050Y415090D02*
Y425090D01*
X493390Y768200D02*
Y778200D01*
X488390Y773200D02*
X498390D01*
X493390Y817730D02*
Y827730D01*
X488390Y822730D02*
X498390D01*
X493390Y844400D02*
Y854400D01*
X488390Y849400D02*
X498390D01*
X727610Y579850D02*
Y589850D01*
X722610Y584850D02*
X732610D01*
X727610Y628110D02*
Y638110D01*
X722610Y633110D02*
X732610D01*
X727610Y653510D02*
Y663510D01*
X722610Y658510D02*
X732610D01*
X1276000Y670000D02*
Y680000D01*
X1271000Y675000D02*
X1281000D01*
X1276000Y595000D02*
Y605000D01*
X1271000Y600000D02*
X1281000D01*
X1276000Y620000D02*
Y630000D01*
X1271000Y625000D02*
X1281000D01*
X1218000Y790000D02*
X1228000D01*
X1223000Y785000D02*
Y795000D01*
X1043750Y748030D02*
X1053750D01*
X1048750Y743030D02*
Y753030D01*
X1018350Y748030D02*
X1028350D01*
X1023350Y743030D02*
Y753030D01*
X942150Y748030D02*
X952150D01*
X947150Y743030D02*
Y753030D01*
X94810Y274350D02*
X104810D01*
X99810Y269350D02*
Y279350D01*
X232000Y273000D02*
X242000D01*
X237000Y268000D02*
Y278000D01*
X262000Y273000D02*
X272000D01*
X267000Y268000D02*
Y278000D01*
X371916Y269940D02*
X381916D01*
X376916Y264940D02*
Y274940D01*
D15*
X1360670Y364660D02*
Y544660D01*
X1300670Y364660D02*
X1360670D01*
X1105670D02*
X1300670D01*
X1105670D02*
Y544660D01*
X1300670D01*
X1360670D01*
X1300670Y364660D02*
Y544660D01*
D16*
X1122770Y766010D02*
X1157770D01*
X1122770Y727510D02*
X1157770D01*
Y766010D01*
X1122770Y727510D02*
Y766010D01*
X1155670Y184320D02*
X1227670D01*
X1155670Y99320D02*
X1227670D01*
Y184320D01*
X1155670Y99320D02*
Y184320D01*
X475000Y397000D02*
X585000D01*
X475000Y309000D02*
X585000D01*
Y397000D01*
X475000Y309000D02*
Y397000D01*
X556500Y168000D02*
Y242000D01*
X611500Y168000D02*
Y242000D01*
X556500Y168000D02*
X611500D01*
X556500Y242000D02*
X611500D01*
X303950Y234210D02*
Y308210D01*
X358950Y234210D02*
Y308210D01*
X303950Y234210D02*
X358950D01*
X303950Y308210D02*
X358950D01*
X144700Y236080D02*
Y310080D01*
X199700Y236080D02*
Y310080D01*
X144700Y236080D02*
X199700D01*
X144700Y310080D02*
X199700D01*
X1098170Y552160D02*
X1363170D01*
Y357160D02*
Y552160D01*
X1098170Y357160D02*
X1363170D01*
X1098170D02*
Y552160D01*
X1073560Y237820D02*
X1115560D01*
X1073560Y213820D02*
X1115560D01*
X1073560D02*
Y237820D01*
X1115560Y213820D02*
Y237820D01*
X1031650Y212420D02*
X1073650D01*
X1031650Y188420D02*
X1073650D01*
X1031650D02*
Y212420D01*
X1073650Y188420D02*
Y212420D01*
X1073560D02*
X1115560D01*
X1073560Y188420D02*
X1115560D01*
X1073560D02*
Y212420D01*
X1115560Y188420D02*
Y212420D01*
X515000Y819000D02*
X557000D01*
X515000Y795000D02*
X557000D01*
X515000D02*
Y819000D01*
X557000Y795000D02*
Y819000D01*
X515000Y771000D02*
X557000D01*
X515000Y795000D02*
X557000D01*
Y771000D02*
Y795000D01*
X515000Y771000D02*
Y795000D01*
X590660Y121730D02*
Y163730D01*
X614660Y121730D02*
Y163730D01*
X590660Y121730D02*
X614660D01*
X590660Y163730D02*
X614660D01*
X1022940Y342200D02*
X1064940D01*
X1022940Y318200D02*
X1064940D01*
X1022940D02*
Y342200D01*
X1064940Y318200D02*
Y342200D01*
X1153860Y582250D02*
Y624250D01*
X1177860Y582250D02*
Y624250D01*
X1153860Y582250D02*
X1177860D01*
X1153860Y624250D02*
X1177860D01*
X1022940Y366330D02*
X1064940D01*
X1022940Y342330D02*
X1064940D01*
X1022940D02*
Y366330D01*
X1064940Y342330D02*
Y366330D01*
X1022940Y558100D02*
X1064940D01*
X1022940Y534100D02*
X1064940D01*
X1022940D02*
Y558100D01*
X1064940Y534100D02*
Y558100D01*
X1022940Y390590D02*
X1064940D01*
X1022940Y414590D02*
X1064940D01*
Y390590D02*
Y414590D01*
X1022940Y390590D02*
Y414590D01*
X1022940Y318070D02*
X1064940D01*
X1022940Y294070D02*
X1064940D01*
X1022940D02*
Y318070D01*
X1064940Y294070D02*
Y318070D01*
X1022940Y414720D02*
X1064940D01*
X1022940Y438720D02*
X1064940D01*
Y414720D02*
Y438720D01*
X1022940Y414720D02*
Y438720D01*
Y438850D02*
X1064940D01*
X1022940Y462850D02*
X1064940D01*
Y438850D02*
Y462850D01*
X1022940Y438850D02*
Y462850D01*
Y462980D02*
X1064940D01*
X1022940Y486980D02*
X1064940D01*
Y462980D02*
Y486980D01*
X1022940Y462980D02*
Y486980D01*
Y487110D02*
X1064940D01*
X1022940Y511110D02*
X1064940D01*
Y487110D02*
Y511110D01*
X1022940Y487110D02*
Y511110D01*
Y511240D02*
X1064940D01*
X1022940Y535240D02*
X1064940D01*
Y511240D02*
Y535240D01*
X1022940Y511240D02*
Y535240D01*
X1081470Y582250D02*
Y624250D01*
X1105470Y582250D02*
Y624250D01*
X1081470Y582250D02*
X1105470D01*
X1081470Y624250D02*
X1105470D01*
X1177990Y582250D02*
Y624250D01*
X1201990Y582250D02*
Y624250D01*
X1177990Y582250D02*
X1201990D01*
X1177990Y624250D02*
X1201990D01*
X1202120Y582250D02*
Y624250D01*
X1226120Y582250D02*
Y624250D01*
X1202120Y582250D02*
X1226120D01*
X1202120Y624250D02*
X1226120D01*
X1226250Y582250D02*
Y624250D01*
X1250250Y582250D02*
Y624250D01*
X1226250Y582250D02*
X1250250D01*
X1226250Y624250D02*
X1250250D01*
X598512Y396000D02*
X640512D01*
X598512Y372000D02*
X640512D01*
X598512D02*
Y396000D01*
X640512Y372000D02*
Y396000D01*
X598512Y372000D02*
X640512D01*
X598512Y348000D02*
X640512D01*
X598512D02*
Y372000D01*
X640512Y348000D02*
Y372000D01*
X1022940Y390460D02*
X1064940D01*
X1022940Y366460D02*
X1064940D01*
X1022940D02*
Y390460D01*
X1064940Y366460D02*
Y390460D01*
X1057210Y582250D02*
Y624250D01*
X1033210Y582250D02*
Y624250D01*
X1057210D01*
X1033210Y582250D02*
X1057210D01*
X1081340D02*
Y624250D01*
X1057340Y582250D02*
Y624250D01*
X1081340D01*
X1057340Y582250D02*
X1081340D01*
X1129600D02*
Y624250D01*
X1105600Y582250D02*
Y624250D01*
X1129600D01*
X1105600Y582250D02*
X1129600D01*
X1153730D02*
Y624250D01*
X1129730Y582250D02*
Y624250D01*
X1153730D01*
X1129730Y582250D02*
X1153730D01*
X1143570Y272000D02*
Y314000D01*
X1119570Y272000D02*
Y314000D01*
X1143570D01*
X1119570Y272000D02*
X1143570D01*
X1270570D02*
Y314000D01*
X1246570Y272000D02*
Y314000D01*
X1270570D01*
X1246570Y272000D02*
X1270570D01*
X1246440D02*
Y314000D01*
X1222440Y272000D02*
Y314000D01*
X1246440D01*
X1222440Y272000D02*
X1246440D01*
X1241000Y726000D02*
Y768000D01*
X1265000Y726000D02*
Y768000D01*
X1241000Y726000D02*
X1265000D01*
X1241000Y768000D02*
X1265000D01*
X1241010Y725760D02*
Y767760D01*
X1217010Y725760D02*
Y767760D01*
X1241010D01*
X1217010Y725760D02*
X1241010D01*
X1158940Y725760D02*
Y767760D01*
X1182940Y725760D02*
Y767760D01*
X1158940Y725760D02*
X1182940D01*
X1158940Y767760D02*
X1182940D01*
X1101600Y727030D02*
Y769030D01*
X1125600Y727030D02*
Y769030D01*
X1101600Y727030D02*
X1125600D01*
X1101600Y769030D02*
X1125600D01*
X1119270Y763970D02*
X1161270D01*
X1119270Y787970D02*
X1161270D01*
Y763970D02*
Y787970D01*
X1119270Y763970D02*
Y787970D01*
X1096000Y272000D02*
Y314000D01*
X1120000Y272000D02*
Y314000D01*
X1096000Y272000D02*
X1120000D01*
X1096000Y314000D02*
X1120000D01*
X152000Y204000D02*
X194000D01*
X152000Y180000D02*
X194000D01*
X152000D02*
Y204000D01*
X194000Y180000D02*
Y204000D01*
X198000Y133000D02*
Y175000D01*
X174000Y133000D02*
Y175000D01*
X198000D01*
X174000Y133000D02*
X198000D01*
X115750Y253350D02*
Y295350D01*
X139750Y253350D02*
Y295350D01*
X115750Y253350D02*
X139750D01*
X115750Y295350D02*
X139750D01*
X232000Y181000D02*
X274000D01*
X232000Y205000D02*
X274000D01*
Y181000D02*
Y205000D01*
X232000Y181000D02*
Y205000D01*
X279000Y133000D02*
Y175000D01*
X255000Y133000D02*
Y175000D01*
X279000D01*
X255000Y133000D02*
X279000D01*
X224000Y252000D02*
Y294000D01*
X200000Y252000D02*
Y294000D01*
X224000D01*
X200000Y252000D02*
X224000D01*
X311000Y205000D02*
X353000D01*
X311000Y181000D02*
X353000D01*
X311000D02*
Y205000D01*
X353000Y181000D02*
Y205000D01*
X358000Y133000D02*
Y175000D01*
X334000Y133000D02*
Y175000D01*
X358000D01*
X334000Y133000D02*
X358000D01*
X280000Y252000D02*
Y294000D01*
X304000Y252000D02*
Y294000D01*
X280000Y252000D02*
X304000D01*
X280000Y294000D02*
X304000D01*
X392000Y181000D02*
X434000D01*
X392000Y205000D02*
X434000D01*
Y181000D02*
Y205000D01*
X392000Y181000D02*
Y205000D01*
X439000Y133000D02*
Y175000D01*
X415000Y133000D02*
Y175000D01*
X439000D01*
X415000Y133000D02*
X439000D01*
X420920Y248940D02*
Y290940D01*
X396920Y248940D02*
Y290940D01*
X420920D01*
X396920Y248940D02*
X420920D01*
X518430Y820120D02*
Y855120D01*
X556930Y820120D02*
Y855120D01*
X518430D02*
X556930D01*
X518430Y820120D02*
X556930D01*
X1178840Y766010D02*
X1213840D01*
X1178840Y727510D02*
X1213840D01*
Y766010D01*
X1178840Y727510D02*
Y766010D01*
X472390Y809330D02*
X514390D01*
X472390Y785330D02*
X514390D01*
X472390D02*
Y809330D01*
X514390Y785330D02*
Y809330D01*
X706610Y620980D02*
X748610D01*
X706610Y596980D02*
X748610D01*
X706610D02*
Y620980D01*
X748610Y596980D02*
Y620980D01*
X1255000Y638000D02*
X1297000D01*
X1255000Y662000D02*
X1297000D01*
Y638000D02*
Y662000D01*
X1255000Y638000D02*
Y662000D01*
X1072880Y213320D02*
Y238320D01*
X1029880Y213320D02*
Y238320D01*
Y213320D02*
X1072880D01*
X1029880Y238320D02*
X1072880D01*
X492500Y441500D02*
X517500D01*
X492500Y398500D02*
X517500D01*
Y441500D01*
X492500Y398500D02*
Y441500D01*
X1061650Y769530D02*
X1086650D01*
X1061650Y726530D02*
X1086650D01*
Y769530D01*
X1061650Y726530D02*
Y769530D01*
X985450D02*
X1010450D01*
X985450Y726530D02*
X1010450D01*
Y769530D01*
X985450Y726530D02*
Y769530D01*
X960050D02*
X985050D01*
X960050Y726530D02*
X985050D01*
Y769530D01*
X960050Y726530D02*
Y769530D01*
X194970Y207240D02*
Y232240D01*
X151970Y207240D02*
Y232240D01*
Y207240D02*
X194970D01*
X151970Y232240D02*
X194970D01*
X196240Y313920D02*
Y338920D01*
X153240Y313920D02*
Y338920D01*
Y313920D02*
X196240D01*
X153240Y338920D02*
X196240D01*
X353500Y206500D02*
Y231500D01*
X310500Y206500D02*
Y231500D01*
Y206500D02*
X353500D01*
X310500Y231500D02*
X353500D01*
X352950Y313320D02*
Y338320D01*
X309950Y313320D02*
Y338320D01*
Y313320D02*
X352950D01*
X309950Y338320D02*
X352950D01*
X1089680Y144630D02*
Y187630D01*
X1114680Y144630D02*
Y187630D01*
X1089680Y144630D02*
X1114680D01*
X1089680Y187630D02*
X1114680D01*
X1185410Y187740D02*
X1228410D01*
X1185410Y212740D02*
X1228410D01*
Y187740D02*
Y212740D01*
X1185410Y187740D02*
Y212740D01*
Y215680D02*
X1228410D01*
X1185410Y240680D02*
X1228410D01*
Y215680D02*
Y240680D01*
X1185410Y215680D02*
Y240680D01*
X1027450Y144630D02*
Y187630D01*
X1052450Y144630D02*
Y187630D01*
X1027450Y144630D02*
X1052450D01*
X1027450Y187630D02*
X1052450D01*
X1048500Y118500D02*
X1091500D01*
X1048500Y143500D02*
X1091500D01*
Y118500D02*
Y143500D01*
X1048500Y118500D02*
Y143500D01*
X568500Y398500D02*
Y441500D01*
X543500Y398500D02*
Y441500D01*
X568500D01*
X543500Y398500D02*
X568500D01*
X542550Y398590D02*
Y441590D01*
X517550Y398590D02*
Y441590D01*
X542550D01*
X517550Y398590D02*
X542550D01*
X471890Y760700D02*
X514890D01*
X471890Y785700D02*
X514890D01*
Y760700D02*
Y785700D01*
X471890Y760700D02*
Y785700D01*
Y810230D02*
X514890D01*
X471890Y835230D02*
X514890D01*
Y810230D02*
Y835230D01*
X471890Y810230D02*
Y835230D01*
Y836900D02*
X514890D01*
X471890Y861900D02*
X514890D01*
Y836900D02*
Y861900D01*
X471890Y836900D02*
Y861900D01*
X706110Y597350D02*
X749110D01*
X706110Y572350D02*
X749110D01*
X706110D02*
Y597350D01*
X749110Y572350D02*
Y597350D01*
X706110Y645610D02*
X749110D01*
X706110Y620610D02*
X749110D01*
X706110D02*
Y645610D01*
X749110Y620610D02*
Y645610D01*
X706110Y671010D02*
X749110D01*
X706110Y646010D02*
X749110D01*
X706110D02*
Y671010D01*
X749110Y646010D02*
Y671010D01*
X1254500Y687500D02*
X1297500D01*
X1254500Y662500D02*
X1297500D01*
X1254500D02*
Y687500D01*
X1297500Y662500D02*
Y687500D01*
X1254500Y587500D02*
X1297500D01*
X1254500Y612500D02*
X1297500D01*
Y587500D02*
Y612500D01*
X1254500Y587500D02*
Y612500D01*
X1297500D01*
X1254500Y637500D02*
X1297500D01*
Y612500D02*
Y637500D01*
X1254500Y612500D02*
Y637500D01*
X1235500Y768500D02*
Y811500D01*
X1210500Y768500D02*
Y811500D01*
X1235500D01*
X1210500Y768500D02*
X1235500D01*
X1061250Y726530D02*
Y769530D01*
X1036250Y726530D02*
Y769530D01*
X1061250D01*
X1036250Y726530D02*
X1061250D01*
X1035850D02*
Y769530D01*
X1010850Y726530D02*
Y769530D01*
X1035850D01*
X1010850Y726530D02*
X1035850D01*
X959650D02*
Y769530D01*
X934650Y726530D02*
Y769530D01*
X959650D01*
X934650Y726530D02*
X959650D01*
X87310Y252850D02*
Y295850D01*
X112310Y252850D02*
Y295850D01*
X87310Y252850D02*
X112310D01*
X87310Y295850D02*
X112310D01*
X249500Y251500D02*
Y294500D01*
X224500Y251500D02*
Y294500D01*
X249500D01*
X224500Y251500D02*
X249500D01*
X254500Y251500D02*
Y294500D01*
X279500Y251500D02*
Y294500D01*
X254500Y251500D02*
X279500D01*
X254500Y294500D02*
X279500D01*
X389416Y248440D02*
Y291440D01*
X364416Y248440D02*
Y291440D01*
X389416D01*
X364416Y248440D02*
X389416D01*
D17*
X1149770Y758760D02*
D03*
X1130770D02*
D03*
X1140270Y734760D02*
D03*
X1205840Y758760D02*
D03*
X1186840D02*
D03*
X1196340Y734760D02*
D03*
D18*
X1061000Y153500D02*
D03*
X1067500D02*
D03*
X1080500Y174500D02*
D03*
X1074000D02*
D03*
X1061000D02*
D03*
X1067500D02*
D03*
X1080500Y153500D02*
D03*
X1074000D02*
D03*
D19*
X1065500Y164000D02*
D03*
X1076000D02*
D03*
D20*
X1214670Y171070D02*
D03*
X1191670D02*
D03*
X1168670D02*
D03*
D21*
X1191670Y112570D02*
D03*
D22*
X568100Y386250D02*
D03*
X555400D02*
D03*
X542700D02*
D03*
X530000D02*
D03*
X517300D02*
D03*
X504600D02*
D03*
X491900D02*
D03*
X568100Y319750D02*
D03*
X555400D02*
D03*
X542700D02*
D03*
X530000D02*
D03*
X517300D02*
D03*
X504600D02*
D03*
X491900D02*
D03*
D23*
X291000Y375000D02*
D03*
Y380000D02*
D03*
X247000Y395000D02*
D03*
Y390000D02*
D03*
X291000Y395000D02*
D03*
Y390000D02*
D03*
Y385000D02*
D03*
X247000Y375000D02*
D03*
Y385000D02*
D03*
Y380000D02*
D03*
D24*
X564950Y177750D02*
D03*
X577650D02*
D03*
X590350D02*
D03*
X603050D02*
D03*
X564950Y232250D02*
D03*
X577650D02*
D03*
X590350D02*
D03*
X603050D02*
D03*
X312400Y243960D02*
D03*
X325100D02*
D03*
X337800D02*
D03*
X350500D02*
D03*
X312400Y298460D02*
D03*
X325100D02*
D03*
X337800D02*
D03*
X350500D02*
D03*
X153150Y245830D02*
D03*
X165850D02*
D03*
X178550D02*
D03*
X191250D02*
D03*
X153150Y300330D02*
D03*
X165850D02*
D03*
X178550D02*
D03*
X191250D02*
D03*
D25*
X1208570Y469660D02*
D03*
Y483660D02*
D03*
Y455660D02*
D03*
X1194570Y483660D02*
D03*
Y469660D02*
D03*
Y455660D02*
D03*
X1222570Y483660D02*
D03*
Y469660D02*
D03*
Y455660D02*
D03*
D26*
X1285770Y542160D02*
D03*
X1273070D02*
D03*
X1260370D02*
D03*
X1247670D02*
D03*
X1234970D02*
D03*
X1222270D02*
D03*
X1209570D02*
D03*
X1196870D02*
D03*
X1184170D02*
D03*
X1171470D02*
D03*
X1158770D02*
D03*
X1146070D02*
D03*
X1133370D02*
D03*
X1120670D02*
D03*
Y367160D02*
D03*
X1133370D02*
D03*
X1146070D02*
D03*
X1158770D02*
D03*
X1171470D02*
D03*
X1184170D02*
D03*
X1196870D02*
D03*
X1209570D02*
D03*
X1222270D02*
D03*
X1234970D02*
D03*
X1247670D02*
D03*
X1260370D02*
D03*
X1273070D02*
D03*
X1285770D02*
D03*
D27*
X1108170Y524510D02*
D03*
Y511810D02*
D03*
Y499110D02*
D03*
Y486410D02*
D03*
Y473710D02*
D03*
Y461010D02*
D03*
Y448310D02*
D03*
Y435610D02*
D03*
Y422910D02*
D03*
Y410210D02*
D03*
Y397510D02*
D03*
Y384810D02*
D03*
D28*
X1085560Y225820D02*
D03*
X1103560D02*
D03*
X1043650Y200420D02*
D03*
X1061650D02*
D03*
X1085560D02*
D03*
X1103560D02*
D03*
X527000Y807000D02*
D03*
X545000D02*
D03*
X545000Y783000D02*
D03*
X527000D02*
D03*
X1034940Y330200D02*
D03*
X1052940D02*
D03*
X1034940Y354330D02*
D03*
X1052940D02*
D03*
X1034940Y546100D02*
D03*
X1052940D02*
D03*
X1052940Y402590D02*
D03*
X1034940D02*
D03*
X1034940Y306070D02*
D03*
X1052940D02*
D03*
X1052940Y426720D02*
D03*
X1034940D02*
D03*
X1052940Y450850D02*
D03*
X1034940D02*
D03*
X1052940Y474980D02*
D03*
X1034940D02*
D03*
X1052940Y499110D02*
D03*
X1034940D02*
D03*
X1052940Y523240D02*
D03*
X1034940D02*
D03*
X610512Y384000D02*
D03*
X628512D02*
D03*
X610512Y360000D02*
D03*
X628512D02*
D03*
X1034940Y378460D02*
D03*
X1052940D02*
D03*
X1149270Y775970D02*
D03*
X1131270D02*
D03*
X164000Y192000D02*
D03*
X182000D02*
D03*
X262000Y193000D02*
D03*
X244000D02*
D03*
X323000D02*
D03*
X341000D02*
D03*
X422000D02*
D03*
X404000D02*
D03*
X484390Y797330D02*
D03*
X502390D02*
D03*
X718610Y608980D02*
D03*
X736610D02*
D03*
X1285000Y650000D02*
D03*
X1267000D02*
D03*
D29*
X602660Y133730D02*
D03*
Y151730D02*
D03*
X1165860Y594250D02*
D03*
Y612250D02*
D03*
X1093470Y594250D02*
D03*
Y612250D02*
D03*
X1189990Y594250D02*
D03*
Y612250D02*
D03*
X1214120Y594250D02*
D03*
Y612250D02*
D03*
X1238250Y594250D02*
D03*
Y612250D02*
D03*
X1045210Y612250D02*
D03*
Y594250D02*
D03*
X1069340Y612250D02*
D03*
Y594250D02*
D03*
X1117600Y612250D02*
D03*
Y594250D02*
D03*
X1141730Y612250D02*
D03*
Y594250D02*
D03*
X1131570Y302000D02*
D03*
Y284000D02*
D03*
X1258570Y302000D02*
D03*
Y284000D02*
D03*
X1234440Y302000D02*
D03*
Y284000D02*
D03*
X1253000Y738000D02*
D03*
Y756000D02*
D03*
X1229010Y755760D02*
D03*
Y737760D02*
D03*
X1170940Y737760D02*
D03*
Y755760D02*
D03*
X1113600Y739030D02*
D03*
Y757030D02*
D03*
X1108000Y284000D02*
D03*
Y302000D02*
D03*
X186000Y163000D02*
D03*
Y145000D02*
D03*
X127750Y265350D02*
D03*
Y283350D02*
D03*
X267000Y163000D02*
D03*
Y145000D02*
D03*
X212000Y282000D02*
D03*
Y264000D02*
D03*
X346000Y163000D02*
D03*
Y145000D02*
D03*
X292000Y264000D02*
D03*
Y282000D02*
D03*
X427000Y163000D02*
D03*
Y145000D02*
D03*
X408920Y278940D02*
D03*
Y260940D02*
D03*
D30*
X525680Y847120D02*
D03*
Y828120D02*
D03*
X549680Y837620D02*
D03*
D31*
X722360Y729890D02*
D03*
X584360D02*
D03*
D32*
X700860Y696390D02*
D03*
X695860D02*
D03*
X690860D02*
D03*
X685860D02*
D03*
X680860D02*
D03*
X675860D02*
D03*
X670860D02*
D03*
X665860D02*
D03*
X655860D02*
D03*
X660860D02*
D03*
X605860D02*
D03*
X610860D02*
D03*
X615860D02*
D03*
X620860D02*
D03*
X625860D02*
D03*
X630860D02*
D03*
X635860D02*
D03*
X640860D02*
D03*
X650860D02*
D03*
X645860D02*
D03*
D33*
X1060380Y225820D02*
D03*
X1042380D02*
D03*
X182470Y219740D02*
D03*
X164470D02*
D03*
X183740Y326420D02*
D03*
X165740D02*
D03*
X341000Y219000D02*
D03*
X323000D02*
D03*
X340450Y325820D02*
D03*
X322450D02*
D03*
X1215910Y200240D02*
D03*
X1197910D02*
D03*
X1215910Y228180D02*
D03*
X1197910D02*
D03*
X1079000Y131000D02*
D03*
X1061000D02*
D03*
X502390Y773200D02*
D03*
X484390D02*
D03*
X502390Y822730D02*
D03*
X484390D02*
D03*
X502390Y849400D02*
D03*
X484390D02*
D03*
X718610Y584850D02*
D03*
X736610D02*
D03*
X718610Y633110D02*
D03*
X736610D02*
D03*
X718610Y658510D02*
D03*
X736610D02*
D03*
X1267000Y675000D02*
D03*
X1285000D02*
D03*
X1285000Y600000D02*
D03*
X1267000D02*
D03*
X1285000Y625000D02*
D03*
X1267000D02*
D03*
D34*
X505000Y429000D02*
D03*
Y411000D02*
D03*
X1074150Y757030D02*
D03*
Y739030D02*
D03*
X997950Y757030D02*
D03*
Y739030D02*
D03*
X972550Y757030D02*
D03*
Y739030D02*
D03*
X1102180Y157130D02*
D03*
Y175130D02*
D03*
X1039950Y157130D02*
D03*
Y175130D02*
D03*
X556000Y429000D02*
D03*
Y411000D02*
D03*
X530050Y429090D02*
D03*
Y411090D02*
D03*
X1223000Y799000D02*
D03*
Y781000D02*
D03*
X1048750Y757030D02*
D03*
Y739030D02*
D03*
X1023350Y757030D02*
D03*
Y739030D02*
D03*
X947150Y757030D02*
D03*
Y739030D02*
D03*
X99810Y265350D02*
D03*
Y283350D02*
D03*
X237000Y282000D02*
D03*
Y264000D02*
D03*
X267000Y264000D02*
D03*
Y282000D02*
D03*
X376916Y278940D02*
D03*
Y260940D02*
D03*
D63*
X882650Y66040D02*
D03*
Y91440D02*
D03*
Y116840D02*
D03*
Y193040D02*
D03*
Y167640D02*
D03*
Y142240D02*
D03*
X679450Y193040D02*
D03*
Y167640D02*
D03*
Y142240D02*
D03*
Y91440D02*
D03*
Y116840D02*
D03*
D64*
Y66040D02*
D03*
D65*
X1215570Y469660D02*
D03*
Y483660D02*
D03*
Y455660D02*
D03*
X1201570Y483660D02*
D03*
Y469660D02*
D03*
Y455660D02*
D03*
X1222570Y476660D02*
D03*
Y462660D02*
D03*
X1208570Y476660D02*
D03*
Y462660D02*
D03*
X1194570Y476660D02*
D03*
Y462660D02*
D03*
D66*
X1002000Y48000D02*
D03*
X1052000D02*
D03*
X568000Y50000D02*
D03*
X618000D02*
D03*
X111000Y48270D02*
D03*
X161000D02*
D03*
X222333D02*
D03*
X272333D02*
D03*
X333667Y49000D02*
D03*
X383667D02*
D03*
X445000Y50000D02*
D03*
X495000D02*
D03*
D67*
X602660Y108440D02*
D03*
X1061720Y847090D02*
D03*
D68*
X577260Y108440D02*
D03*
X1087120Y847090D02*
D03*
X1112520D02*
D03*
X1137920D02*
D03*
X1163320D02*
D03*
X1188720D02*
D03*
X161000Y166700D02*
D03*
X241000D02*
D03*
X321000D02*
D03*
X401300D02*
D03*
D69*
X161000Y141300D02*
D03*
X241000D02*
D03*
X321000D02*
D03*
X401300D02*
D03*
M02*
