G04*
G04 #@! TF.GenerationSoftware,Altium Limited,Altium Designer,22.0.2 (36)*
G04*
G04 Layer_Color=16711935*
%FSLAX44Y44*%
%MOMM*%
G71*
G04*
G04 #@! TF.SameCoordinates,76A5FEE2-DACC-452D-9E28-76F0DD73E44E*
G04*
G04*
G04 #@! TF.FilePolarity,Positive*
G04*
G01*
G75*
%ADD11C,0.2540*%
%ADD13C,0.2000*%
%ADD14C,0.1000*%
%ADD15C,0.1270*%
D11*
X1328170Y499660D02*
X1336634D01*
X1340866Y495428D01*
X1336634Y491196D01*
X1328170D01*
X1334518D01*
Y499660D01*
X1328170Y486964D02*
X1340866D01*
X1328170Y478500D01*
X1340866D01*
Y474268D02*
Y465804D01*
Y470036D01*
X1328170D01*
X1340866Y453108D02*
Y461572D01*
X1328170D01*
Y453108D01*
X1334518Y461572D02*
Y457340D01*
X1328170Y448876D02*
X1340866D01*
X1328170Y440412D01*
X1340866D01*
X1328170Y436181D02*
X1340866D01*
X1328170Y427717D01*
X1340866D01*
X1328170Y423485D02*
X1336634D01*
X1340866Y419253D01*
X1336634Y415021D01*
X1328170D01*
X1334518D01*
Y423485D01*
X1300000Y0D02*
Y900000D01*
X0D02*
X1300000D01*
X1270Y0D02*
X1301270D01*
X0D02*
Y900000D01*
D13*
X1286770Y556660D02*
G03*
X1286770Y556660I-1000J0D01*
G01*
D14*
X578500Y369000D02*
G03*
X578500Y369000I-5000J0D01*
G01*
X605000Y216000D02*
G03*
X605000Y216000I-5000J0D01*
G01*
X352450Y282210D02*
G03*
X352450Y282210I-5000J0D01*
G01*
X193200Y284080D02*
G03*
X193200Y284080I-5000J0D01*
G01*
X1125270Y753760D02*
X1155270D01*
X1125270Y739760D02*
X1155270D01*
Y753760D01*
X1125270Y739760D02*
Y753760D01*
X1158170Y160320D02*
X1225170D01*
X1158170Y123320D02*
X1225170D01*
Y160320D01*
X1158170Y123320D02*
Y160320D01*
X477500Y378000D02*
X582500D01*
X477500Y328000D02*
X582500D01*
Y378000D01*
X477500Y328000D02*
Y378000D01*
X559000Y185000D02*
Y225000D01*
X609000Y185000D02*
Y225000D01*
X559000Y185000D02*
X609000D01*
X559000Y225000D02*
X609000D01*
X306450Y251210D02*
Y291210D01*
X356450Y251210D02*
Y291210D01*
X306450Y251210D02*
X356450D01*
X306450Y291210D02*
X356450D01*
X147200Y253080D02*
Y293080D01*
X197200Y253080D02*
Y293080D01*
X147200Y253080D02*
X197200D01*
X147200Y293080D02*
X197200D01*
X1084060Y232320D02*
X1105060D01*
X1084060Y219320D02*
X1105060D01*
X1084060D02*
Y232320D01*
X1105060Y219320D02*
Y232320D01*
X1042150Y206920D02*
X1063150D01*
X1042150Y193920D02*
X1063150D01*
X1042150D02*
Y206920D01*
X1063150Y193920D02*
Y206920D01*
X1084060D02*
X1105060D01*
X1084060Y193920D02*
X1105060D01*
X1084060D02*
Y206920D01*
X1105060Y193920D02*
Y206920D01*
X525500Y813500D02*
X546500D01*
X525500Y800500D02*
X546500D01*
X525500D02*
Y813500D01*
X546500Y800500D02*
Y813500D01*
X525500Y776500D02*
X546500D01*
X525500Y789500D02*
X546500D01*
Y776500D02*
Y789500D01*
X525500Y776500D02*
Y789500D01*
X596160Y132230D02*
Y153230D01*
X609160Y132230D02*
Y153230D01*
X596160Y132230D02*
X609160D01*
X596160Y153230D02*
X609160D01*
X1033440Y336700D02*
X1054440D01*
X1033440Y323700D02*
X1054440D01*
X1033440D02*
Y336700D01*
X1054440Y323700D02*
Y336700D01*
X1159360Y592750D02*
Y613750D01*
X1172360Y592750D02*
Y613750D01*
X1159360Y592750D02*
X1172360D01*
X1159360Y613750D02*
X1172360D01*
X1033440Y360830D02*
X1054440D01*
X1033440Y347830D02*
X1054440D01*
X1033440D02*
Y360830D01*
X1054440Y347830D02*
Y360830D01*
X1033440Y552600D02*
X1054440D01*
X1033440Y539600D02*
X1054440D01*
X1033440D02*
Y552600D01*
X1054440Y539600D02*
Y552600D01*
X1033440Y396090D02*
X1054440D01*
X1033440Y409090D02*
X1054440D01*
Y396090D02*
Y409090D01*
X1033440Y396090D02*
Y409090D01*
Y312570D02*
X1054440D01*
X1033440Y299570D02*
X1054440D01*
X1033440D02*
Y312570D01*
X1054440Y299570D02*
Y312570D01*
X1033440Y420220D02*
X1054440D01*
X1033440Y433220D02*
X1054440D01*
Y420220D02*
Y433220D01*
X1033440Y420220D02*
Y433220D01*
Y444350D02*
X1054440D01*
X1033440Y457350D02*
X1054440D01*
Y444350D02*
Y457350D01*
X1033440Y444350D02*
Y457350D01*
Y468480D02*
X1054440D01*
X1033440Y481480D02*
X1054440D01*
Y468480D02*
Y481480D01*
X1033440Y468480D02*
Y481480D01*
Y492610D02*
X1054440D01*
X1033440Y505610D02*
X1054440D01*
Y492610D02*
Y505610D01*
X1033440Y492610D02*
Y505610D01*
Y516740D02*
X1054440D01*
X1033440Y529740D02*
X1054440D01*
Y516740D02*
Y529740D01*
X1033440Y516740D02*
Y529740D01*
X1086970Y592750D02*
Y613750D01*
X1099970Y592750D02*
Y613750D01*
X1086970Y592750D02*
X1099970D01*
X1086970Y613750D02*
X1099970D01*
X1183490Y592750D02*
Y613750D01*
X1196490Y592750D02*
Y613750D01*
X1183490Y592750D02*
X1196490D01*
X1183490Y613750D02*
X1196490D01*
X1207620Y592750D02*
Y613750D01*
X1220620Y592750D02*
Y613750D01*
X1207620Y592750D02*
X1220620D01*
X1207620Y613750D02*
X1220620D01*
X1231750Y592750D02*
Y613750D01*
X1244750Y592750D02*
Y613750D01*
X1231750Y592750D02*
X1244750D01*
X1231750Y613750D02*
X1244750D01*
X609012Y390500D02*
X630012D01*
X609012Y377500D02*
X630012D01*
X609012D02*
Y390500D01*
X630012Y377500D02*
Y390500D01*
X609012Y366500D02*
X630012D01*
X609012Y353500D02*
X630012D01*
X609012D02*
Y366500D01*
X630012Y353500D02*
Y366500D01*
X1033440Y384960D02*
X1054440D01*
X1033440Y371960D02*
X1054440D01*
X1033440D02*
Y384960D01*
X1054440Y371960D02*
Y384960D01*
X1051710Y592750D02*
Y613750D01*
X1038710Y592750D02*
Y613750D01*
X1051710D01*
X1038710Y592750D02*
X1051710D01*
X1075840D02*
Y613750D01*
X1062840Y592750D02*
Y613750D01*
X1075840D01*
X1062840Y592750D02*
X1075840D01*
X1124100D02*
Y613750D01*
X1111100Y592750D02*
Y613750D01*
X1124100D01*
X1111100Y592750D02*
X1124100D01*
X1148230D02*
Y613750D01*
X1135230Y592750D02*
Y613750D01*
X1148230D01*
X1135230Y592750D02*
X1148230D01*
X1138070Y282500D02*
Y303500D01*
X1125070Y282500D02*
Y303500D01*
X1138070D01*
X1125070Y282500D02*
X1138070D01*
X1265070D02*
Y303500D01*
X1252070Y282500D02*
Y303500D01*
X1265070D01*
X1252070Y282500D02*
X1265070D01*
X1240940D02*
Y303500D01*
X1227940Y282500D02*
Y303500D01*
X1240940D01*
X1227940Y282500D02*
X1240940D01*
X1246500Y736500D02*
Y757500D01*
X1259500Y736500D02*
Y757500D01*
X1246500Y736500D02*
X1259500D01*
X1246500Y757500D02*
X1259500D01*
X1235510Y736260D02*
Y757260D01*
X1222510Y736260D02*
Y757260D01*
X1235510D01*
X1222510Y736260D02*
X1235510D01*
X1164440D02*
Y757260D01*
X1177440Y736260D02*
Y757260D01*
X1164440Y736260D02*
X1177440D01*
X1164440Y757260D02*
X1177440D01*
X1107100Y737530D02*
Y758530D01*
X1120100Y737530D02*
Y758530D01*
X1107100Y737530D02*
X1120100D01*
X1107100Y758530D02*
X1120100D01*
X1129770Y769470D02*
X1150770D01*
X1129770Y782470D02*
X1150770D01*
Y769470D02*
Y782470D01*
X1129770Y769470D02*
Y782470D01*
X1101500Y282500D02*
Y303500D01*
X1114500Y282500D02*
Y303500D01*
X1101500Y282500D02*
X1114500D01*
X1101500Y303500D02*
X1114500D01*
X162500Y198500D02*
X183500D01*
X162500Y185500D02*
X183500D01*
X162500D02*
Y198500D01*
X183500Y185500D02*
Y198500D01*
X192500Y143500D02*
Y164500D01*
X179500Y143500D02*
Y164500D01*
X192500D01*
X179500Y143500D02*
X192500D01*
X121250Y263850D02*
Y284850D01*
X134250Y263850D02*
Y284850D01*
X121250Y263850D02*
X134250D01*
X121250Y284850D02*
X134250D01*
X242500Y186500D02*
X263500D01*
X242500Y199500D02*
X263500D01*
Y186500D02*
Y199500D01*
X242500Y186500D02*
Y199500D01*
X273500Y143500D02*
Y164500D01*
X260500Y143500D02*
Y164500D01*
X273500D01*
X260500Y143500D02*
X273500D01*
X218500Y262500D02*
Y283500D01*
X205500Y262500D02*
Y283500D01*
X218500D01*
X205500Y262500D02*
X218500D01*
X321500Y199500D02*
X342500D01*
X321500Y186500D02*
X342500D01*
X321500D02*
Y199500D01*
X342500Y186500D02*
Y199500D01*
X352500Y143500D02*
Y164500D01*
X339500Y143500D02*
Y164500D01*
X352500D01*
X339500Y143500D02*
X352500D01*
X285500Y262500D02*
Y283500D01*
X298500Y262500D02*
Y283500D01*
X285500Y262500D02*
X298500D01*
X285500Y283500D02*
X298500D01*
X402500Y186500D02*
X423500D01*
X402500Y199500D02*
X423500D01*
Y186500D02*
Y199500D01*
X402500Y186500D02*
Y199500D01*
X433500Y143500D02*
Y164500D01*
X420500Y143500D02*
Y164500D01*
X433500D01*
X420500Y143500D02*
X433500D01*
X415420Y259440D02*
Y280440D01*
X402420Y259440D02*
Y280440D01*
X415420D01*
X402420Y259440D02*
X415420D01*
X530680Y822620D02*
Y852620D01*
X544680Y822620D02*
Y852620D01*
X530680D02*
X544680D01*
X530680Y822620D02*
X544680D01*
X1181340Y753760D02*
X1211340D01*
X1181340Y739760D02*
X1211340D01*
Y753760D01*
X1181340Y739760D02*
Y753760D01*
X482890Y803830D02*
X503890D01*
X482890Y790830D02*
X503890D01*
X482890D02*
Y803830D01*
X503890Y790830D02*
Y803830D01*
X717110Y615480D02*
X738110D01*
X717110Y602480D02*
X738110D01*
X717110D02*
Y615480D01*
X738110Y602480D02*
Y615480D01*
X1265500Y643500D02*
X1286500D01*
X1265500Y656500D02*
X1286500D01*
Y643500D02*
Y656500D01*
X1265500Y643500D02*
Y656500D01*
X1061880Y219320D02*
Y232320D01*
X1040880Y219320D02*
Y232320D01*
Y219320D02*
X1061880D01*
X1040880Y232320D02*
X1061880D01*
X498500Y430500D02*
X511500D01*
X498500Y409500D02*
X511500D01*
Y430500D01*
X498500Y409500D02*
Y430500D01*
X1067650Y758530D02*
X1080650D01*
X1067650Y737530D02*
X1080650D01*
Y758530D01*
X1067650Y737530D02*
Y758530D01*
X991450D02*
X1004450D01*
X991450Y737530D02*
X1004450D01*
Y758530D01*
X991450Y737530D02*
Y758530D01*
X966050D02*
X979050D01*
X966050Y737530D02*
X979050D01*
Y758530D01*
X966050Y737530D02*
Y758530D01*
X183970Y213240D02*
Y226240D01*
X162970Y213240D02*
Y226240D01*
Y213240D02*
X183970D01*
X162970Y226240D02*
X183970D01*
X185240Y319920D02*
Y332920D01*
X164240Y319920D02*
Y332920D01*
Y319920D02*
X185240D01*
X164240Y332920D02*
X185240D01*
X342500Y212500D02*
Y225500D01*
X321500Y212500D02*
Y225500D01*
Y212500D02*
X342500D01*
X321500Y225500D02*
X342500D01*
X341950Y319320D02*
Y332320D01*
X320950Y319320D02*
Y332320D01*
Y319320D02*
X341950D01*
X320950Y332320D02*
X341950D01*
X1095680Y155630D02*
Y176630D01*
X1108680Y155630D02*
Y176630D01*
X1095680Y155630D02*
X1108680D01*
X1095680Y176630D02*
X1108680D01*
X1196410Y193740D02*
X1217410D01*
X1196410Y206740D02*
X1217410D01*
Y193740D02*
Y206740D01*
X1196410Y193740D02*
Y206740D01*
Y221680D02*
X1217410D01*
X1196410Y234680D02*
X1217410D01*
Y221680D02*
Y234680D01*
X1196410Y221680D02*
Y234680D01*
X1033450Y155630D02*
Y176630D01*
X1046450Y155630D02*
Y176630D01*
X1033450Y155630D02*
X1046450D01*
X1033450Y176630D02*
X1046450D01*
X1059500Y124500D02*
X1080500D01*
X1059500Y137500D02*
X1080500D01*
Y124500D02*
Y137500D01*
X1059500Y124500D02*
Y137500D01*
X562500Y409500D02*
Y430500D01*
X549500Y409500D02*
Y430500D01*
X562500D01*
X549500Y409500D02*
X562500D01*
X536550Y409590D02*
Y430590D01*
X523550Y409590D02*
Y430590D01*
X536550D01*
X523550Y409590D02*
X536550D01*
X482890Y766700D02*
X503890D01*
X482890Y779700D02*
X503890D01*
Y766700D02*
Y779700D01*
X482890Y766700D02*
Y779700D01*
Y816230D02*
X503890D01*
X482890Y829230D02*
X503890D01*
Y816230D02*
Y829230D01*
X482890Y816230D02*
Y829230D01*
Y842900D02*
X503890D01*
X482890Y855900D02*
X503890D01*
Y842900D02*
Y855900D01*
X482890Y842900D02*
Y855900D01*
X717110Y591350D02*
X738110D01*
X717110Y578350D02*
X738110D01*
X717110D02*
Y591350D01*
X738110Y578350D02*
Y591350D01*
X717110Y639610D02*
X738110D01*
X717110Y626610D02*
X738110D01*
X717110D02*
Y639610D01*
X738110Y626610D02*
Y639610D01*
X717110Y665010D02*
X738110D01*
X717110Y652010D02*
X738110D01*
X717110D02*
Y665010D01*
X738110Y652010D02*
Y665010D01*
X1265500Y681500D02*
X1286500D01*
X1265500Y668500D02*
X1286500D01*
X1265500D02*
Y681500D01*
X1286500Y668500D02*
Y681500D01*
X1265500Y593500D02*
X1286500D01*
X1265500Y606500D02*
X1286500D01*
Y593500D02*
Y606500D01*
X1265500Y593500D02*
Y606500D01*
Y618500D02*
X1286500D01*
X1265500Y631500D02*
X1286500D01*
Y618500D02*
Y631500D01*
X1265500Y618500D02*
Y631500D01*
X1229500Y779500D02*
Y800500D01*
X1216500Y779500D02*
Y800500D01*
X1229500D01*
X1216500Y779500D02*
X1229500D01*
X1055250Y737530D02*
Y758530D01*
X1042250Y737530D02*
Y758530D01*
X1055250D01*
X1042250Y737530D02*
X1055250D01*
X1029850D02*
Y758530D01*
X1016850Y737530D02*
Y758530D01*
X1029850D01*
X1016850Y737530D02*
X1029850D01*
X953650D02*
Y758530D01*
X940650Y737530D02*
Y758530D01*
X953650D01*
X940650Y737530D02*
X953650D01*
X93310Y263850D02*
Y284850D01*
X106310Y263850D02*
Y284850D01*
X93310Y263850D02*
X106310D01*
X93310Y284850D02*
X106310D01*
X243500Y262500D02*
Y283500D01*
X230500Y262500D02*
Y283500D01*
X243500D01*
X230500Y262500D02*
X243500D01*
X260500D02*
Y283500D01*
X273500Y262500D02*
Y283500D01*
X260500Y262500D02*
X273500D01*
X260500Y283500D02*
X273500D01*
X383416Y259440D02*
Y280440D01*
X370416Y259440D02*
Y280440D01*
X383416D01*
X370416Y259440D02*
X383416D01*
D15*
X1360670Y364660D02*
Y544660D01*
X1300670Y364660D02*
X1360670D01*
X1105670D02*
X1300670D01*
X1105670D02*
Y544660D01*
X1300670D01*
X1360670D01*
X1300670Y364660D02*
Y544660D01*
M02*
