G04*
G04 #@! TF.GenerationSoftware,Altium Limited,Altium Designer,22.0.2 (36)*
G04*
G04 Layer_Physical_Order=4*
G04 Layer_Color=16711680*
%FSLAX44Y44*%
%MOMM*%
G71*
G04*
G04 #@! TF.SameCoordinates,44A75C0C-92E7-4886-82EC-FF5ABF5C97BD*
G04*
G04*
G04 #@! TF.FilePolarity,Positive*
G04*
G01*
G75*
%ADD11C,0.2540*%
%ADD13C,0.2000*%
%ADD14C,0.1000*%
%ADD15C,0.1270*%
%ADD16C,0.0500*%
%ADD63C,1.3000*%
%ADD64R,1.3000X1.3000*%
%ADD65C,0.4000*%
%ADD66C,2.0000*%
%ADD67R,1.5000X1.5000*%
%ADD68C,1.5000*%
%ADD69R,1.5000X1.5000*%
%ADD70C,1.0000*%
%ADD71C,1.2700*%
%ADD72C,5.0000*%
G36*
X1290000Y10000D02*
X10000D01*
Y890000D01*
X1290000D01*
Y10000D01*
D02*
G37*
%LPC*%
G36*
X1088442Y857130D02*
X1088390D01*
Y848360D01*
X1097160D01*
Y848412D01*
X1096476Y850965D01*
X1095154Y853255D01*
X1093285Y855124D01*
X1090995Y856446D01*
X1088442Y857130D01*
D02*
G37*
G36*
X1085850D02*
X1085798D01*
X1083245Y856446D01*
X1080955Y855124D01*
X1079086Y853255D01*
X1077764Y850965D01*
X1077080Y848412D01*
Y848360D01*
X1085850D01*
Y857130D01*
D02*
G37*
G36*
X1190042D02*
X1187398D01*
X1184845Y856446D01*
X1182555Y855124D01*
X1180686Y853255D01*
X1179364Y850965D01*
X1178680Y848412D01*
Y845768D01*
X1179364Y843215D01*
X1180686Y840925D01*
X1182555Y839056D01*
X1184845Y837734D01*
X1187398Y837050D01*
X1190042D01*
X1192595Y837734D01*
X1194885Y839056D01*
X1196754Y840925D01*
X1198076Y843215D01*
X1198760Y845768D01*
Y848412D01*
X1198076Y850965D01*
X1196754Y853255D01*
X1194885Y855124D01*
X1192595Y856446D01*
X1190042Y857130D01*
D02*
G37*
G36*
X1164642D02*
X1161998D01*
X1159445Y856446D01*
X1157155Y855124D01*
X1155286Y853255D01*
X1153964Y850965D01*
X1153280Y848412D01*
Y845768D01*
X1153964Y843215D01*
X1155286Y840925D01*
X1157155Y839056D01*
X1159445Y837734D01*
X1161998Y837050D01*
X1164642D01*
X1167195Y837734D01*
X1169485Y839056D01*
X1171354Y840925D01*
X1172676Y843215D01*
X1173360Y845768D01*
Y848412D01*
X1172676Y850965D01*
X1171354Y853255D01*
X1169485Y855124D01*
X1167195Y856446D01*
X1164642Y857130D01*
D02*
G37*
G36*
X1139242D02*
X1136598D01*
X1134045Y856446D01*
X1131755Y855124D01*
X1129886Y853255D01*
X1128564Y850965D01*
X1127880Y848412D01*
Y845768D01*
X1128564Y843215D01*
X1129886Y840925D01*
X1131755Y839056D01*
X1134045Y837734D01*
X1136598Y837050D01*
X1139242D01*
X1141795Y837734D01*
X1144085Y839056D01*
X1145954Y840925D01*
X1147276Y843215D01*
X1147960Y845768D01*
Y848412D01*
X1147276Y850965D01*
X1145954Y853255D01*
X1144085Y855124D01*
X1141795Y856446D01*
X1139242Y857130D01*
D02*
G37*
G36*
X1113842D02*
X1111198D01*
X1108645Y856446D01*
X1106355Y855124D01*
X1104486Y853255D01*
X1103164Y850965D01*
X1102480Y848412D01*
Y845768D01*
X1103164Y843215D01*
X1104486Y840925D01*
X1106355Y839056D01*
X1108645Y837734D01*
X1111198Y837050D01*
X1113842D01*
X1116395Y837734D01*
X1118685Y839056D01*
X1120554Y840925D01*
X1121876Y843215D01*
X1122560Y845768D01*
Y848412D01*
X1121876Y850965D01*
X1120554Y853255D01*
X1118685Y855124D01*
X1116395Y856446D01*
X1113842Y857130D01*
D02*
G37*
G36*
X1097160Y845820D02*
X1088390D01*
Y837050D01*
X1088442D01*
X1090995Y837734D01*
X1093285Y839056D01*
X1095154Y840925D01*
X1096476Y843215D01*
X1097160Y845768D01*
Y845820D01*
D02*
G37*
G36*
X1085850D02*
X1077080D01*
Y845768D01*
X1077764Y843215D01*
X1079086Y840925D01*
X1080955Y839056D01*
X1083245Y837734D01*
X1085798Y837050D01*
X1085850D01*
Y845820D01*
D02*
G37*
G36*
X1071760Y857130D02*
X1051680D01*
Y837050D01*
X1071760D01*
Y857130D01*
D02*
G37*
G36*
X1262168Y877540D02*
X1257832D01*
X1253551Y876862D01*
X1249428Y875522D01*
X1245566Y873554D01*
X1242059Y871006D01*
X1238994Y867941D01*
X1236446Y864434D01*
X1234478Y860572D01*
X1233138Y856449D01*
X1232460Y852168D01*
Y847832D01*
X1233138Y843551D01*
X1234478Y839428D01*
X1236446Y835566D01*
X1238994Y832059D01*
X1242059Y828994D01*
X1245566Y826446D01*
X1249428Y824478D01*
X1253551Y823138D01*
X1257832Y822460D01*
X1262168D01*
X1266449Y823138D01*
X1270572Y824478D01*
X1274434Y826446D01*
X1277941Y828994D01*
X1281006Y832059D01*
X1283554Y835566D01*
X1285522Y839428D01*
X1286862Y843551D01*
X1287540Y847832D01*
Y852168D01*
X1286862Y856449D01*
X1285522Y860572D01*
X1283554Y864434D01*
X1281006Y867941D01*
X1277941Y871006D01*
X1274434Y873554D01*
X1270572Y875522D01*
X1266449Y876862D01*
X1262168Y877540D01*
D02*
G37*
G36*
X42168D02*
X37833D01*
X33551Y876862D01*
X29428Y875522D01*
X25566Y873554D01*
X22059Y871006D01*
X18994Y867941D01*
X16446Y864434D01*
X14478Y860572D01*
X13138Y856449D01*
X12460Y852168D01*
Y847832D01*
X13138Y843551D01*
X14478Y839428D01*
X16446Y835566D01*
X18994Y832059D01*
X22059Y828994D01*
X25566Y826446D01*
X29428Y824478D01*
X33551Y823138D01*
X37833Y822460D01*
X42168D01*
X46449Y823138D01*
X50572Y824478D01*
X54434Y826446D01*
X57941Y828994D01*
X61006Y832059D01*
X63554Y835566D01*
X65522Y839428D01*
X66862Y843551D01*
X67540Y847832D01*
Y852168D01*
X66862Y856449D01*
X65522Y860572D01*
X63554Y864434D01*
X61006Y867941D01*
X57941Y871006D01*
X54434Y873554D01*
X50572Y875522D01*
X46449Y876862D01*
X42168Y877540D01*
D02*
G37*
G36*
X1107170Y789890D02*
X1104830D01*
X1102569Y789284D01*
X1100541Y788114D01*
X1098886Y786459D01*
X1097716Y784431D01*
X1097110Y782170D01*
Y779830D01*
X1097716Y777569D01*
X1098886Y775541D01*
X1100541Y773886D01*
X1102569Y772716D01*
X1104830Y772110D01*
X1107170D01*
X1109431Y772716D01*
X1111459Y773886D01*
X1113114Y775541D01*
X1114284Y777569D01*
X1114890Y779830D01*
Y782170D01*
X1114284Y784431D01*
X1113114Y786459D01*
X1111459Y788114D01*
X1109431Y789284D01*
X1107170Y789890D01*
D02*
G37*
G36*
X490170Y761890D02*
X487830D01*
X485569Y761284D01*
X483541Y760114D01*
X481886Y758459D01*
X480716Y756432D01*
X480110Y754171D01*
Y751830D01*
X480716Y749569D01*
X481886Y747542D01*
X483541Y745886D01*
X485569Y744716D01*
X487830Y744110D01*
X490170D01*
X492431Y744716D01*
X494459Y745886D01*
X496114Y747542D01*
X497284Y749569D01*
X497890Y751830D01*
Y754171D01*
X497284Y756432D01*
X496114Y758459D01*
X494459Y760114D01*
X492431Y761284D01*
X490170Y761890D01*
D02*
G37*
G36*
X1242930Y718890D02*
X1240590D01*
X1238329Y718284D01*
X1236301Y717114D01*
X1234646Y715459D01*
X1233476Y713431D01*
X1232870Y711170D01*
Y708830D01*
X1233476Y706569D01*
X1234646Y704541D01*
X1236301Y702886D01*
X1238329Y701716D01*
X1240590Y701110D01*
X1242930D01*
X1245191Y701716D01*
X1247219Y702886D01*
X1248874Y704541D01*
X1250044Y706569D01*
X1250650Y708830D01*
Y711170D01*
X1250044Y713431D01*
X1248874Y715459D01*
X1247219Y717114D01*
X1245191Y718284D01*
X1242930Y718890D01*
D02*
G37*
G36*
X692170Y682890D02*
X689830D01*
X687569Y682284D01*
X685541Y681114D01*
X683886Y679459D01*
X682716Y677431D01*
X682110Y675170D01*
Y672830D01*
X682574Y671097D01*
X682482Y670821D01*
X681870Y670035D01*
X681641Y669890D01*
X679830D01*
X677569Y669284D01*
X675541Y668114D01*
X673886Y666459D01*
X672716Y664431D01*
X672110Y662170D01*
Y659830D01*
X672716Y657569D01*
X673886Y655541D01*
X675541Y653886D01*
X677569Y652716D01*
X679830Y652110D01*
X682170D01*
X684431Y652716D01*
X686459Y653886D01*
X688114Y655541D01*
X689284Y657569D01*
X689890Y659830D01*
Y662170D01*
X689426Y663903D01*
X689518Y664179D01*
X690130Y664965D01*
X690359Y665110D01*
X692170D01*
X694431Y665716D01*
X696459Y666886D01*
X698114Y668541D01*
X699284Y670569D01*
X699890Y672830D01*
Y675170D01*
X699284Y677431D01*
X698114Y679459D01*
X696459Y681114D01*
X694431Y682284D01*
X692170Y682890D01*
D02*
G37*
G36*
X1239420Y640890D02*
X1237080D01*
X1234819Y640284D01*
X1232791Y639114D01*
X1231136Y637459D01*
X1229966Y635431D01*
X1229360Y633170D01*
Y630830D01*
X1229966Y628569D01*
X1231136Y626541D01*
X1232791Y624886D01*
X1234819Y623716D01*
X1237080Y623110D01*
X1239420D01*
X1241681Y623716D01*
X1243709Y624886D01*
X1245364Y626541D01*
X1246534Y628569D01*
X1247140Y630830D01*
Y633170D01*
X1246534Y635431D01*
X1245364Y637459D01*
X1243709Y639114D01*
X1241681Y640284D01*
X1239420Y640890D01*
D02*
G37*
G36*
X1215290D02*
X1212950D01*
X1210689Y640284D01*
X1208661Y639114D01*
X1207006Y637459D01*
X1205836Y635431D01*
X1205230Y633170D01*
Y630830D01*
X1205836Y628569D01*
X1207006Y626541D01*
X1208661Y624886D01*
X1210689Y623716D01*
X1212950Y623110D01*
X1215290D01*
X1217551Y623716D01*
X1219579Y624886D01*
X1221234Y626541D01*
X1222404Y628569D01*
X1223010Y630830D01*
Y633170D01*
X1222404Y635431D01*
X1221234Y637459D01*
X1219579Y639114D01*
X1217551Y640284D01*
X1215290Y640890D01*
D02*
G37*
G36*
X1191330D02*
X1188990D01*
X1186729Y640284D01*
X1184701Y639114D01*
X1183046Y637459D01*
X1181876Y635431D01*
X1181270Y633170D01*
Y630830D01*
X1181876Y628569D01*
X1183046Y626541D01*
X1184701Y624886D01*
X1186729Y623716D01*
X1188990Y623110D01*
X1191330D01*
X1193591Y623716D01*
X1195619Y624886D01*
X1197274Y626541D01*
X1198444Y628569D01*
X1199050Y630830D01*
Y633170D01*
X1198444Y635431D01*
X1197274Y637459D01*
X1195619Y639114D01*
X1193591Y640284D01*
X1191330Y640890D01*
D02*
G37*
G36*
X1166470D02*
X1164130D01*
X1161869Y640284D01*
X1159841Y639114D01*
X1158186Y637459D01*
X1157016Y635431D01*
X1156410Y633170D01*
Y630830D01*
X1157016Y628569D01*
X1158186Y626541D01*
X1159841Y624886D01*
X1161869Y623716D01*
X1164130Y623110D01*
X1166470D01*
X1168731Y623716D01*
X1170759Y624886D01*
X1172414Y626541D01*
X1173584Y628569D01*
X1174190Y630830D01*
Y633170D01*
X1173584Y635431D01*
X1172414Y637459D01*
X1170759Y639114D01*
X1168731Y640284D01*
X1166470Y640890D01*
D02*
G37*
G36*
X1142900D02*
X1140560D01*
X1138299Y640284D01*
X1136271Y639114D01*
X1134616Y637459D01*
X1133446Y635431D01*
X1132840Y633170D01*
Y630830D01*
X1133446Y628569D01*
X1134616Y626541D01*
X1136271Y624886D01*
X1138299Y623716D01*
X1140560Y623110D01*
X1142900D01*
X1145161Y623716D01*
X1147189Y624886D01*
X1148844Y626541D01*
X1150014Y628569D01*
X1150620Y630830D01*
Y633170D01*
X1150014Y635431D01*
X1148844Y637459D01*
X1147189Y639114D01*
X1145161Y640284D01*
X1142900Y640890D01*
D02*
G37*
G36*
X1118770D02*
X1116430D01*
X1114169Y640284D01*
X1112141Y639114D01*
X1110486Y637459D01*
X1109316Y635431D01*
X1108710Y633170D01*
Y630830D01*
X1109316Y628569D01*
X1110486Y626541D01*
X1112141Y624886D01*
X1114169Y623716D01*
X1116430Y623110D01*
X1118770D01*
X1121031Y623716D01*
X1123059Y624886D01*
X1124714Y626541D01*
X1125884Y628569D01*
X1126490Y630830D01*
Y633170D01*
X1125884Y635431D01*
X1124714Y637459D01*
X1123059Y639114D01*
X1121031Y640284D01*
X1118770Y640890D01*
D02*
G37*
G36*
X1094640D02*
X1092300D01*
X1090039Y640284D01*
X1088011Y639114D01*
X1086356Y637459D01*
X1085186Y635431D01*
X1084580Y633170D01*
Y630830D01*
X1085186Y628569D01*
X1086356Y626541D01*
X1088011Y624886D01*
X1090039Y623716D01*
X1092300Y623110D01*
X1094640D01*
X1096901Y623716D01*
X1098929Y624886D01*
X1100584Y626541D01*
X1101754Y628569D01*
X1102360Y630830D01*
Y633170D01*
X1101754Y635431D01*
X1100584Y637459D01*
X1098929Y639114D01*
X1096901Y640284D01*
X1094640Y640890D01*
D02*
G37*
G36*
X1070110D02*
X1067770D01*
X1065509Y640284D01*
X1063481Y639114D01*
X1061826Y637459D01*
X1060656Y635431D01*
X1060050Y633170D01*
Y630830D01*
X1060656Y628569D01*
X1061826Y626541D01*
X1063481Y624886D01*
X1065509Y623716D01*
X1067770Y623110D01*
X1070110D01*
X1072371Y623716D01*
X1074399Y624886D01*
X1076054Y626541D01*
X1077224Y628569D01*
X1077830Y630830D01*
Y633170D01*
X1077224Y635431D01*
X1076054Y637459D01*
X1074399Y639114D01*
X1072371Y640284D01*
X1070110Y640890D01*
D02*
G37*
G36*
X1045580D02*
X1043240D01*
X1040979Y640284D01*
X1038951Y639114D01*
X1037296Y637459D01*
X1036126Y635431D01*
X1035520Y633170D01*
Y630830D01*
X1036126Y628569D01*
X1037296Y626541D01*
X1038951Y624886D01*
X1040979Y623716D01*
X1043240Y623110D01*
X1045580D01*
X1047841Y623716D01*
X1049869Y624886D01*
X1051524Y626541D01*
X1052694Y628569D01*
X1053300Y630830D01*
Y633170D01*
X1052694Y635431D01*
X1051524Y637459D01*
X1049869Y639114D01*
X1047841Y640284D01*
X1045580Y640890D01*
D02*
G37*
G36*
X738355Y567074D02*
X736014D01*
X733753Y566468D01*
X731726Y565298D01*
X730070Y563643D01*
X728900Y561616D01*
X728294Y559355D01*
Y557014D01*
X728900Y554753D01*
X730070Y552726D01*
X731726Y551070D01*
X733753Y549900D01*
X736014Y549294D01*
X738355D01*
X740616Y549900D01*
X742643Y551070D01*
X744298Y552726D01*
X745468Y554753D01*
X746074Y557014D01*
Y559355D01*
X745468Y561616D01*
X744298Y563643D01*
X742643Y565298D01*
X740616Y566468D01*
X738355Y567074D01*
D02*
G37*
G36*
X1015170Y531890D02*
X1012830D01*
X1010569Y531284D01*
X1008541Y530114D01*
X1006886Y528459D01*
X1005716Y526431D01*
X1005110Y524170D01*
Y521830D01*
X1005716Y519569D01*
X1006886Y517541D01*
X1008541Y515886D01*
X1010569Y514716D01*
X1012830Y514110D01*
X1015170D01*
X1017431Y514716D01*
X1019459Y515886D01*
X1021114Y517541D01*
X1022284Y519569D01*
X1022890Y521830D01*
Y524170D01*
X1022284Y526431D01*
X1021114Y528459D01*
X1019459Y530114D01*
X1017431Y531284D01*
X1015170Y531890D01*
D02*
G37*
G36*
X1014170Y507890D02*
X1011830D01*
X1009569Y507284D01*
X1007541Y506114D01*
X1005886Y504459D01*
X1004716Y502431D01*
X1004110Y500170D01*
Y497830D01*
X1004716Y495569D01*
X1005886Y493541D01*
X1007541Y491886D01*
X1009569Y490716D01*
X1011830Y490110D01*
X1014170D01*
X1016431Y490716D01*
X1018459Y491886D01*
X1020114Y493541D01*
X1021284Y495569D01*
X1021890Y497830D01*
Y500170D01*
X1021284Y502431D01*
X1020114Y504459D01*
X1018459Y506114D01*
X1016431Y507284D01*
X1014170Y507890D01*
D02*
G37*
G36*
X1216473Y488200D02*
X1214667D01*
X1212998Y487509D01*
X1211721Y486232D01*
X1211030Y484563D01*
Y482757D01*
X1211444Y481758D01*
X1210472Y480786D01*
X1209473Y481200D01*
X1207667D01*
X1206668Y480786D01*
X1205696Y481758D01*
X1206110Y482757D01*
Y484563D01*
X1205419Y486232D01*
X1204142Y487509D01*
X1202473Y488200D01*
X1200667D01*
X1198998Y487509D01*
X1197721Y486232D01*
X1197030Y484563D01*
Y482757D01*
X1197444Y481758D01*
X1196472Y480786D01*
X1195473Y481200D01*
X1193667D01*
X1191998Y480509D01*
X1190721Y479232D01*
X1190030Y477563D01*
Y475757D01*
X1190721Y474088D01*
X1191998Y472811D01*
X1193667Y472120D01*
X1195473D01*
X1196472Y472534D01*
X1197444Y471562D01*
X1197030Y470563D01*
Y468757D01*
X1197444Y467758D01*
X1196472Y466786D01*
X1195473Y467200D01*
X1193667D01*
X1191998Y466509D01*
X1190721Y465232D01*
X1190030Y463563D01*
Y461757D01*
X1190721Y460088D01*
X1191998Y458811D01*
X1193667Y458120D01*
X1195473D01*
X1196472Y458534D01*
X1197444Y457562D01*
X1197030Y456563D01*
Y454757D01*
X1197721Y453088D01*
X1198998Y451811D01*
X1200667Y451120D01*
X1202473D01*
X1204142Y451811D01*
X1205419Y453088D01*
X1206110Y454757D01*
Y456563D01*
X1205696Y457562D01*
X1206668Y458534D01*
X1207667Y458120D01*
X1209473D01*
X1210472Y458534D01*
X1211444Y457562D01*
X1211030Y456563D01*
Y454757D01*
X1211721Y453088D01*
X1212998Y451811D01*
X1214667Y451120D01*
X1216473D01*
X1218142Y451811D01*
X1219419Y453088D01*
X1220110Y454757D01*
Y456563D01*
X1219696Y457562D01*
X1220668Y458534D01*
X1221667Y458120D01*
X1223473D01*
X1225142Y458811D01*
X1226419Y460088D01*
X1227110Y461757D01*
Y463563D01*
X1226419Y465232D01*
X1225142Y466509D01*
X1223473Y467200D01*
X1221667D01*
X1220668Y466786D01*
X1219696Y467758D01*
X1220110Y468757D01*
Y470563D01*
X1219696Y471562D01*
X1220668Y472534D01*
X1221667Y472120D01*
X1223473D01*
X1225142Y472811D01*
X1226419Y474088D01*
X1227110Y475757D01*
Y477563D01*
X1226419Y479232D01*
X1225142Y480509D01*
X1223473Y481200D01*
X1221667D01*
X1220668Y480786D01*
X1219696Y481758D01*
X1220110Y482757D01*
Y484563D01*
X1219419Y486232D01*
X1218142Y487509D01*
X1216473Y488200D01*
D02*
G37*
G36*
X506170Y461820D02*
X503830D01*
X501569Y461214D01*
X499541Y460044D01*
X497886Y458389D01*
X496716Y456361D01*
X496110Y454100D01*
Y451760D01*
X496716Y449499D01*
X497886Y447471D01*
X499541Y445816D01*
X501569Y444646D01*
X503830Y444040D01*
X506170D01*
X508431Y444646D01*
X510459Y445816D01*
X512114Y447471D01*
X513284Y449499D01*
X513890Y451760D01*
Y454100D01*
X513284Y456361D01*
X512114Y458389D01*
X510459Y460044D01*
X508431Y461214D01*
X506170Y461820D01*
D02*
G37*
G36*
X590682Y410890D02*
X588342D01*
X586081Y410284D01*
X584053Y409114D01*
X582398Y407459D01*
X581228Y405431D01*
X580622Y403170D01*
Y400830D01*
X581228Y398569D01*
X582398Y396541D01*
X584053Y394886D01*
X586081Y393716D01*
X588342Y393110D01*
X590682D01*
X592943Y393716D01*
X594971Y394886D01*
X596626Y396541D01*
X597796Y398569D01*
X598402Y400830D01*
Y403170D01*
X597796Y405431D01*
X596626Y407459D01*
X594971Y409114D01*
X592943Y410284D01*
X590682Y410890D01*
D02*
G37*
G36*
X315170Y396890D02*
X312830D01*
X310569Y396284D01*
X308541Y395114D01*
X306886Y393459D01*
X305716Y391431D01*
X305110Y389170D01*
Y386830D01*
X305716Y384569D01*
X306886Y382541D01*
X308541Y380886D01*
X310569Y379716D01*
X312830Y379110D01*
X315170D01*
X317431Y379716D01*
X319459Y380886D01*
X321114Y382541D01*
X322284Y384569D01*
X322890Y386830D01*
Y389170D01*
X322284Y391431D01*
X321114Y393459D01*
X319459Y395114D01*
X317431Y396284D01*
X315170Y396890D01*
D02*
G37*
G36*
X655683Y392890D02*
X653342D01*
X651081Y392284D01*
X649053Y391114D01*
X647398Y389459D01*
X646228Y387431D01*
X645622Y385170D01*
Y382830D01*
X646228Y380569D01*
X647398Y378541D01*
X649053Y376886D01*
X651081Y375716D01*
X653342Y375110D01*
X655683D01*
X657943Y375716D01*
X659971Y376886D01*
X661626Y378541D01*
X662796Y380569D01*
X663402Y382830D01*
Y385170D01*
X662796Y387431D01*
X661626Y389459D01*
X659971Y391114D01*
X657943Y392284D01*
X655683Y392890D01*
D02*
G37*
G36*
Y369890D02*
X653342D01*
X651081Y369284D01*
X649053Y368114D01*
X647398Y366459D01*
X646228Y364431D01*
X645622Y362170D01*
Y359830D01*
X646228Y357569D01*
X647398Y355541D01*
X649053Y353886D01*
X651081Y352716D01*
X653342Y352110D01*
X655683D01*
X657943Y352716D01*
X659971Y353886D01*
X661626Y355541D01*
X662796Y357569D01*
X663402Y359830D01*
Y362170D01*
X662796Y364431D01*
X661626Y366459D01*
X659971Y368114D01*
X657943Y369284D01*
X655683Y369890D01*
D02*
G37*
G36*
X622170Y269890D02*
X619830D01*
X617569Y269284D01*
X615541Y268114D01*
X613886Y266459D01*
X612716Y264431D01*
X612491Y263591D01*
X611176D01*
X610951Y264431D01*
X609780Y266459D01*
X608125Y268114D01*
X606098Y269284D01*
X603837Y269890D01*
X601496D01*
X599235Y269284D01*
X597208Y268114D01*
X595553Y266459D01*
X594383Y264431D01*
X594157Y263591D01*
X592843D01*
X592617Y264431D01*
X591447Y266459D01*
X589792Y268114D01*
X587765Y269284D01*
X585504Y269890D01*
X583163D01*
X580902Y269284D01*
X578875Y268114D01*
X577220Y266459D01*
X576049Y264431D01*
X575824Y263591D01*
X574509D01*
X574284Y264431D01*
X573114Y266459D01*
X571459Y268114D01*
X569431Y269284D01*
X567170Y269890D01*
X564830D01*
X562569Y269284D01*
X560541Y268114D01*
X558886Y266459D01*
X557716Y264431D01*
X557110Y262170D01*
Y259830D01*
X557716Y257569D01*
X558886Y255541D01*
X560541Y253886D01*
X562569Y252716D01*
X564830Y252110D01*
X567170D01*
X569431Y252716D01*
X571459Y253886D01*
X573114Y255541D01*
X574284Y257569D01*
X574509Y258409D01*
X575824D01*
X576049Y257569D01*
X577220Y255541D01*
X578875Y253886D01*
X580902Y252716D01*
X583163Y252110D01*
X585504D01*
X587765Y252716D01*
X589792Y253886D01*
X591447Y255541D01*
X592617Y257569D01*
X592843Y258409D01*
X594157D01*
X594383Y257569D01*
X595553Y255541D01*
X597208Y253886D01*
X599235Y252716D01*
X601496Y252110D01*
X603837D01*
X606098Y252716D01*
X608125Y253886D01*
X609780Y255541D01*
X610951Y257569D01*
X611176Y258409D01*
X612491D01*
X612716Y257569D01*
X613886Y255541D01*
X615541Y253886D01*
X617569Y252716D01*
X619830Y252110D01*
X622170D01*
X624431Y252716D01*
X626459Y253886D01*
X628114Y255541D01*
X629284Y257569D01*
X629890Y259830D01*
Y262170D01*
X629284Y264431D01*
X628114Y266459D01*
X626459Y268114D01*
X624431Y269284D01*
X622170Y269890D01*
D02*
G37*
G36*
X1154170Y276890D02*
X1151830D01*
X1149569Y276284D01*
X1147541Y275114D01*
X1145886Y273459D01*
X1144716Y271431D01*
X1144110Y269170D01*
Y266830D01*
X1144716Y264569D01*
X1145886Y262541D01*
X1147541Y260886D01*
X1149569Y259716D01*
X1151830Y259110D01*
X1154170D01*
X1156431Y259716D01*
X1158459Y260886D01*
X1160114Y262541D01*
X1161284Y264569D01*
X1161890Y266830D01*
Y269170D01*
X1161284Y271431D01*
X1160114Y273459D01*
X1158459Y275114D01*
X1156431Y276284D01*
X1154170Y276890D01*
D02*
G37*
G36*
X1109170Y272890D02*
X1106830D01*
X1104569Y272284D01*
X1102541Y271114D01*
X1100886Y269459D01*
X1099716Y267431D01*
X1099110Y265170D01*
Y262830D01*
X1099716Y260569D01*
X1100886Y258541D01*
X1102541Y256886D01*
X1104569Y255716D01*
X1106830Y255110D01*
X1109170D01*
X1111431Y255716D01*
X1113459Y256886D01*
X1115114Y258541D01*
X1116284Y260569D01*
X1116890Y262830D01*
Y265170D01*
X1116284Y267431D01*
X1115114Y269459D01*
X1113459Y271114D01*
X1111431Y272284D01*
X1109170Y272890D01*
D02*
G37*
G36*
X1259740Y270320D02*
X1257400D01*
X1255139Y269714D01*
X1253111Y268544D01*
X1251456Y266889D01*
X1250286Y264861D01*
X1249680Y262600D01*
Y260260D01*
X1250286Y257999D01*
X1251456Y255971D01*
X1253111Y254316D01*
X1255139Y253146D01*
X1257400Y252540D01*
X1259740D01*
X1262001Y253146D01*
X1264029Y254316D01*
X1265684Y255971D01*
X1266854Y257999D01*
X1267460Y260260D01*
Y262600D01*
X1266854Y264861D01*
X1265684Y266889D01*
X1264029Y268544D01*
X1262001Y269714D01*
X1259740Y270320D01*
D02*
G37*
G36*
X1235610Y269330D02*
X1233270D01*
X1231009Y268724D01*
X1228981Y267554D01*
X1227326Y265899D01*
X1226156Y263871D01*
X1225550Y261610D01*
Y259270D01*
X1226156Y257009D01*
X1227326Y254981D01*
X1228981Y253326D01*
X1231009Y252156D01*
X1233270Y251550D01*
X1235610D01*
X1237871Y252156D01*
X1239899Y253326D01*
X1241554Y254981D01*
X1242724Y257009D01*
X1243330Y259270D01*
Y261610D01*
X1242724Y263871D01*
X1241554Y265899D01*
X1239899Y267554D01*
X1237871Y268724D01*
X1235610Y269330D01*
D02*
G37*
G36*
X208170Y245890D02*
X205830D01*
X203569Y245284D01*
X201541Y244114D01*
X199886Y242459D01*
X198716Y240431D01*
X198110Y238170D01*
Y235830D01*
X198716Y233569D01*
X199886Y231541D01*
X201541Y229886D01*
X203569Y228716D01*
X205830Y228110D01*
X208170D01*
X210431Y228716D01*
X212459Y229886D01*
X214114Y231541D01*
X215284Y233569D01*
X215890Y235830D01*
Y238170D01*
X215284Y240431D01*
X214114Y242459D01*
X212459Y244114D01*
X210431Y245284D01*
X208170Y245890D01*
D02*
G37*
G36*
X367420Y244020D02*
X365080D01*
X362819Y243414D01*
X360791Y242244D01*
X359136Y240588D01*
X357966Y238561D01*
X357360Y236300D01*
Y233960D01*
X357966Y231698D01*
X359136Y229671D01*
X360791Y228016D01*
X362819Y226846D01*
X365080Y226240D01*
X367420D01*
X369681Y226846D01*
X371709Y228016D01*
X373364Y229671D01*
X374534Y231698D01*
X375140Y233960D01*
Y236300D01*
X374534Y238561D01*
X373364Y240588D01*
X371709Y242244D01*
X369681Y243414D01*
X367420Y244020D01*
D02*
G37*
G36*
X1142170Y212890D02*
X1139830D01*
X1137569Y212284D01*
X1135541Y211114D01*
X1133886Y209459D01*
X1132716Y207431D01*
X1132110Y205170D01*
Y202830D01*
X1132716Y200569D01*
X1133886Y198541D01*
X1135541Y196886D01*
X1137569Y195716D01*
X1139830Y195110D01*
X1142170D01*
X1144431Y195716D01*
X1146459Y196886D01*
X1148114Y198541D01*
X1149284Y200569D01*
X1149890Y202830D01*
Y205170D01*
X1149284Y207431D01*
X1148114Y209459D01*
X1146459Y211114D01*
X1144431Y212284D01*
X1142170Y212890D01*
D02*
G37*
G36*
X372670Y201890D02*
X370330D01*
X368069Y201284D01*
X366041Y200114D01*
X364386Y198459D01*
X363216Y196431D01*
X362610Y194170D01*
Y191830D01*
X363216Y189569D01*
X364386Y187541D01*
X366041Y185886D01*
X368069Y184716D01*
X370330Y184110D01*
X372670D01*
X374931Y184716D01*
X376959Y185886D01*
X378614Y187541D01*
X379784Y189569D01*
X380390Y191830D01*
Y194170D01*
X379784Y196431D01*
X378614Y198459D01*
X376959Y200114D01*
X374931Y201284D01*
X372670Y201890D01*
D02*
G37*
G36*
X883840Y202080D02*
X881460D01*
X879161Y201464D01*
X877099Y200274D01*
X875416Y198591D01*
X874226Y196529D01*
X873610Y194230D01*
Y191850D01*
X874226Y189551D01*
X875416Y187489D01*
X877099Y185806D01*
X879161Y184616D01*
X881460Y184000D01*
X883840D01*
X886139Y184616D01*
X888201Y185806D01*
X889884Y187489D01*
X891074Y189551D01*
X891690Y191850D01*
Y194230D01*
X891074Y196529D01*
X889884Y198591D01*
X888201Y200274D01*
X886139Y201464D01*
X883840Y202080D01*
D02*
G37*
G36*
X680640D02*
X678260D01*
X675961Y201464D01*
X673899Y200274D01*
X672216Y198591D01*
X671026Y196529D01*
X670410Y194230D01*
Y191850D01*
X671026Y189551D01*
X672216Y187489D01*
X673899Y185806D01*
X675961Y184616D01*
X678260Y184000D01*
X680640D01*
X682939Y184616D01*
X685001Y185806D01*
X686684Y187489D01*
X687874Y189551D01*
X688490Y191850D01*
Y194230D01*
X687874Y196529D01*
X686684Y198591D01*
X685001Y200274D01*
X682939Y201464D01*
X680640Y202080D01*
D02*
G37*
G36*
X213670Y200890D02*
X211330D01*
X209069Y200284D01*
X207041Y199114D01*
X205386Y197459D01*
X204216Y195431D01*
X203610Y193170D01*
Y190830D01*
X204216Y188569D01*
X205386Y186541D01*
X207041Y184886D01*
X209069Y183716D01*
X211330Y183110D01*
X213670D01*
X215931Y183716D01*
X217959Y184886D01*
X219614Y186541D01*
X220784Y188569D01*
X221390Y190830D01*
Y193170D01*
X220784Y195431D01*
X219614Y197459D01*
X217959Y199114D01*
X215931Y200284D01*
X213670Y200890D01*
D02*
G37*
G36*
X623920Y186640D02*
X621580D01*
X619319Y186034D01*
X617291Y184864D01*
X615636Y183209D01*
X614466Y181181D01*
X613860Y178920D01*
Y176580D01*
X614466Y174319D01*
X615636Y172291D01*
X617291Y170636D01*
X619319Y169466D01*
X621580Y168860D01*
X623920D01*
X626181Y169466D01*
X628209Y170636D01*
X629864Y172291D01*
X631034Y174319D01*
X631640Y176580D01*
Y178920D01*
X631034Y181181D01*
X629864Y183209D01*
X628209Y184864D01*
X626181Y186034D01*
X623920Y186640D01*
D02*
G37*
G36*
X883840Y176680D02*
X881460D01*
X879161Y176064D01*
X877099Y174874D01*
X875416Y173191D01*
X874226Y171129D01*
X873610Y168830D01*
Y166450D01*
X874226Y164151D01*
X875416Y162089D01*
X877099Y160406D01*
X879161Y159216D01*
X881460Y158600D01*
X883840D01*
X886139Y159216D01*
X888201Y160406D01*
X889884Y162089D01*
X891074Y164151D01*
X891690Y166450D01*
Y168830D01*
X891074Y171129D01*
X889884Y173191D01*
X888201Y174874D01*
X886139Y176064D01*
X883840Y176680D01*
D02*
G37*
G36*
X680640D02*
X678260D01*
X675961Y176064D01*
X673899Y174874D01*
X672216Y173191D01*
X671026Y171129D01*
X670410Y168830D01*
Y166450D01*
X671026Y164151D01*
X672216Y162089D01*
X673899Y160406D01*
X675961Y159216D01*
X678260Y158600D01*
X680640D01*
X682939Y159216D01*
X685001Y160406D01*
X686684Y162089D01*
X687874Y164151D01*
X688490Y166450D01*
Y168830D01*
X687874Y171129D01*
X686684Y173191D01*
X685001Y174874D01*
X682939Y176064D01*
X680640Y176680D01*
D02*
G37*
G36*
X402622Y176740D02*
X399978D01*
X397425Y176056D01*
X395135Y174734D01*
X393266Y172865D01*
X391944Y170575D01*
X391260Y168022D01*
Y165378D01*
X391944Y162825D01*
X393266Y160535D01*
X395135Y158666D01*
X397425Y157344D01*
X399978Y156660D01*
X402622D01*
X405175Y157344D01*
X407465Y158666D01*
X409334Y160535D01*
X410656Y162825D01*
X411340Y165378D01*
Y168022D01*
X410656Y170575D01*
X409334Y172865D01*
X407465Y174734D01*
X405175Y176056D01*
X402622Y176740D01*
D02*
G37*
G36*
X322322D02*
X319678D01*
X317125Y176056D01*
X314835Y174734D01*
X312966Y172865D01*
X311644Y170575D01*
X310960Y168022D01*
Y165378D01*
X311644Y162825D01*
X312966Y160535D01*
X314835Y158666D01*
X317125Y157344D01*
X319678Y156660D01*
X322322D01*
X324875Y157344D01*
X327165Y158666D01*
X329034Y160535D01*
X330356Y162825D01*
X331040Y165378D01*
Y168022D01*
X330356Y170575D01*
X329034Y172865D01*
X327165Y174734D01*
X324875Y176056D01*
X322322Y176740D01*
D02*
G37*
G36*
X242322D02*
X239678D01*
X237125Y176056D01*
X234835Y174734D01*
X232966Y172865D01*
X231644Y170575D01*
X230960Y168022D01*
Y165378D01*
X231644Y162825D01*
X232966Y160535D01*
X234835Y158666D01*
X237125Y157344D01*
X239678Y156660D01*
X242322D01*
X244875Y157344D01*
X247165Y158666D01*
X249034Y160535D01*
X250356Y162825D01*
X251040Y165378D01*
Y168022D01*
X250356Y170575D01*
X249034Y172865D01*
X247165Y174734D01*
X244875Y176056D01*
X242322Y176740D01*
D02*
G37*
G36*
X162322D02*
X159678D01*
X157125Y176056D01*
X154835Y174734D01*
X152966Y172865D01*
X151644Y170575D01*
X150960Y168022D01*
Y165378D01*
X151644Y162825D01*
X152966Y160535D01*
X154835Y158666D01*
X157125Y157344D01*
X159678Y156660D01*
X162322D01*
X164875Y157344D01*
X167165Y158666D01*
X169034Y160535D01*
X170356Y162825D01*
X171040Y165378D01*
Y168022D01*
X170356Y170575D01*
X169034Y172865D01*
X167165Y174734D01*
X164875Y176056D01*
X162322Y176740D01*
D02*
G37*
G36*
X411340Y151340D02*
X402570D01*
Y142570D01*
X411340D01*
Y151340D01*
D02*
G37*
G36*
X331040D02*
X322270D01*
Y142570D01*
X331040D01*
Y151340D01*
D02*
G37*
G36*
X251040D02*
X242270D01*
Y142570D01*
X251040D01*
Y151340D01*
D02*
G37*
G36*
X171040D02*
X162270D01*
Y142570D01*
X171040D01*
Y151340D01*
D02*
G37*
G36*
X400030D02*
X391260D01*
Y142570D01*
X400030D01*
Y151340D01*
D02*
G37*
G36*
X319730D02*
X310960D01*
Y142570D01*
X319730D01*
Y151340D01*
D02*
G37*
G36*
X239730D02*
X230960D01*
Y142570D01*
X239730D01*
Y151340D01*
D02*
G37*
G36*
X159730D02*
X150960D01*
Y142570D01*
X159730D01*
Y151340D01*
D02*
G37*
G36*
X883840Y151280D02*
X881460D01*
X879161Y150664D01*
X877099Y149474D01*
X875416Y147791D01*
X874226Y145729D01*
X873610Y143430D01*
Y141050D01*
X874226Y138751D01*
X875416Y136689D01*
X877099Y135006D01*
X879161Y133816D01*
X881460Y133200D01*
X883840D01*
X886139Y133816D01*
X888201Y135006D01*
X889884Y136689D01*
X891074Y138751D01*
X891690Y141050D01*
Y143430D01*
X891074Y145729D01*
X889884Y147791D01*
X888201Y149474D01*
X886139Y150664D01*
X883840Y151280D01*
D02*
G37*
G36*
X680640D02*
X678260D01*
X675961Y150664D01*
X673899Y149474D01*
X672216Y147791D01*
X671026Y145729D01*
X670410Y143430D01*
Y141050D01*
X671026Y138751D01*
X672216Y136689D01*
X673899Y135006D01*
X675961Y133816D01*
X678260Y133200D01*
X680640D01*
X682939Y133816D01*
X685001Y135006D01*
X686684Y136689D01*
X687874Y138751D01*
X688490Y141050D01*
Y143430D01*
X687874Y145729D01*
X686684Y147791D01*
X685001Y149474D01*
X682939Y150664D01*
X680640Y151280D01*
D02*
G37*
G36*
X1206170Y149890D02*
X1203830D01*
X1201569Y149284D01*
X1199541Y148114D01*
X1197886Y146459D01*
X1196716Y144431D01*
X1196110Y142170D01*
Y139830D01*
X1196716Y137569D01*
X1197886Y135541D01*
X1199541Y133886D01*
X1201569Y132716D01*
X1203830Y132110D01*
X1206170D01*
X1208431Y132716D01*
X1210459Y133886D01*
X1212114Y135541D01*
X1213284Y137569D01*
X1213890Y139830D01*
Y142170D01*
X1213284Y144431D01*
X1212114Y146459D01*
X1210459Y148114D01*
X1208431Y149284D01*
X1206170Y149890D01*
D02*
G37*
G36*
X1177170D02*
X1174830D01*
X1172569Y149284D01*
X1170541Y148114D01*
X1168886Y146459D01*
X1167716Y144431D01*
X1167110Y142170D01*
Y139830D01*
X1167716Y137569D01*
X1168886Y135541D01*
X1170541Y133886D01*
X1172569Y132716D01*
X1174830Y132110D01*
X1177170D01*
X1179431Y132716D01*
X1181459Y133886D01*
X1183114Y135541D01*
X1184284Y137569D01*
X1184890Y139830D01*
Y142170D01*
X1184284Y144431D01*
X1183114Y146459D01*
X1181459Y148114D01*
X1179431Y149284D01*
X1177170Y149890D01*
D02*
G37*
G36*
X411340Y140030D02*
X402570D01*
Y131260D01*
X411340D01*
Y140030D01*
D02*
G37*
G36*
X400030D02*
X391260D01*
Y131260D01*
X400030D01*
Y140030D01*
D02*
G37*
G36*
X331040D02*
X322270D01*
Y131260D01*
X331040D01*
Y140030D01*
D02*
G37*
G36*
X319730D02*
X310960D01*
Y131260D01*
X319730D01*
Y140030D01*
D02*
G37*
G36*
X251040D02*
X242270D01*
Y131260D01*
X251040D01*
Y140030D01*
D02*
G37*
G36*
X239730D02*
X230960D01*
Y131260D01*
X239730D01*
Y140030D01*
D02*
G37*
G36*
X171040D02*
X162270D01*
Y131260D01*
X171040D01*
Y140030D01*
D02*
G37*
G36*
X159730D02*
X150960D01*
Y131260D01*
X159730D01*
Y140030D01*
D02*
G37*
G36*
X1240170Y157890D02*
X1237830D01*
X1235569Y157284D01*
X1233541Y156114D01*
X1231886Y154459D01*
X1230716Y152431D01*
X1230110Y150170D01*
Y147830D01*
X1230716Y145569D01*
X1231886Y143541D01*
X1233541Y141886D01*
X1233977Y141635D01*
Y140365D01*
X1233541Y140114D01*
X1231886Y138459D01*
X1230716Y136431D01*
X1230110Y134170D01*
Y131830D01*
X1230716Y129569D01*
X1231886Y127541D01*
X1233541Y125886D01*
X1235569Y124716D01*
X1237830Y124110D01*
X1240170D01*
X1242431Y124716D01*
X1244459Y125886D01*
X1246114Y127541D01*
X1247284Y129569D01*
X1247890Y131830D01*
Y134170D01*
X1247284Y136431D01*
X1246114Y138459D01*
X1244459Y140114D01*
X1244024Y140365D01*
Y141635D01*
X1244459Y141886D01*
X1246114Y143541D01*
X1247284Y145569D01*
X1247890Y147830D01*
Y150170D01*
X1247284Y152431D01*
X1246114Y154459D01*
X1244459Y156114D01*
X1242431Y157284D01*
X1240170Y157890D01*
D02*
G37*
G36*
X883840Y125880D02*
X881460D01*
X879161Y125264D01*
X877099Y124074D01*
X875416Y122391D01*
X874226Y120329D01*
X873610Y118030D01*
Y115650D01*
X874226Y113351D01*
X875416Y111289D01*
X877099Y109606D01*
X879161Y108416D01*
X881460Y107800D01*
X883840D01*
X886139Y108416D01*
X888201Y109606D01*
X889884Y111289D01*
X891074Y113351D01*
X891690Y115650D01*
Y118030D01*
X891074Y120329D01*
X889884Y122391D01*
X888201Y124074D01*
X886139Y125264D01*
X883840Y125880D01*
D02*
G37*
G36*
X680640D02*
X678260D01*
X675961Y125264D01*
X673899Y124074D01*
X672216Y122391D01*
X671026Y120329D01*
X670410Y118030D01*
Y115650D01*
X671026Y113351D01*
X672216Y111289D01*
X673899Y109606D01*
X675961Y108416D01*
X678260Y107800D01*
X680640D01*
X682939Y108416D01*
X685001Y109606D01*
X686684Y111289D01*
X687874Y113351D01*
X688490Y115650D01*
Y118030D01*
X687874Y120329D01*
X686684Y122391D01*
X685001Y124074D01*
X682939Y125264D01*
X680640Y125880D01*
D02*
G37*
G36*
X612700Y118480D02*
X592620D01*
Y98400D01*
X612700D01*
Y118480D01*
D02*
G37*
G36*
X578582D02*
X575938D01*
X573385Y117796D01*
X571095Y116474D01*
X569226Y114605D01*
X567904Y112315D01*
X567220Y109762D01*
Y107118D01*
X567904Y104565D01*
X569226Y102275D01*
X571095Y100406D01*
X573385Y99084D01*
X575938Y98400D01*
X578582D01*
X581135Y99084D01*
X583425Y100406D01*
X585294Y102275D01*
X586616Y104565D01*
X587300Y107118D01*
Y109762D01*
X586616Y112315D01*
X585294Y114605D01*
X583425Y116474D01*
X581135Y117796D01*
X578582Y118480D01*
D02*
G37*
G36*
X883920Y100459D02*
Y92710D01*
X891669D01*
X891074Y94929D01*
X889884Y96991D01*
X888201Y98674D01*
X886139Y99864D01*
X883920Y100459D01*
D02*
G37*
G36*
X881380D02*
X879161Y99864D01*
X877099Y98674D01*
X875416Y96991D01*
X874226Y94929D01*
X873631Y92710D01*
X881380D01*
Y100459D01*
D02*
G37*
G36*
X891669Y90170D02*
X883920D01*
Y82421D01*
X886139Y83016D01*
X888201Y84206D01*
X889884Y85889D01*
X891074Y87951D01*
X891669Y90170D01*
D02*
G37*
G36*
X881380D02*
X873631D01*
X874226Y87951D01*
X875416Y85889D01*
X877099Y84206D01*
X879161Y83016D01*
X881380Y82421D01*
Y90170D01*
D02*
G37*
G36*
X680640Y100480D02*
X678260D01*
X675961Y99864D01*
X673899Y98674D01*
X672216Y96991D01*
X671026Y94929D01*
X670410Y92630D01*
Y90250D01*
X671026Y87951D01*
X672216Y85889D01*
X673899Y84206D01*
X675961Y83016D01*
X678260Y82400D01*
X680640D01*
X682939Y83016D01*
X685001Y84206D01*
X686684Y85889D01*
X687874Y87951D01*
X688490Y90250D01*
Y92630D01*
X687874Y94929D01*
X686684Y96991D01*
X685001Y98674D01*
X682939Y99864D01*
X680640Y100480D01*
D02*
G37*
G36*
X688490Y75080D02*
X680720D01*
Y67310D01*
X688490D01*
Y75080D01*
D02*
G37*
G36*
X883920Y75059D02*
Y67310D01*
X891669D01*
X891074Y69529D01*
X889884Y71591D01*
X888201Y73274D01*
X886139Y74464D01*
X883920Y75059D01*
D02*
G37*
G36*
X881380D02*
X879161Y74464D01*
X877099Y73274D01*
X875416Y71591D01*
X874226Y69529D01*
X873631Y67310D01*
X881380D01*
Y75059D01*
D02*
G37*
G36*
X678180Y75080D02*
X670410D01*
Y67310D01*
X678180D01*
Y75080D01*
D02*
G37*
G36*
X891669Y64770D02*
X883920D01*
Y57021D01*
X886139Y57616D01*
X888201Y58806D01*
X889884Y60489D01*
X891074Y62551D01*
X891669Y64770D01*
D02*
G37*
G36*
X881380D02*
X873631D01*
X874226Y62551D01*
X875416Y60489D01*
X877099Y58806D01*
X879161Y57616D01*
X881380Y57021D01*
Y64770D01*
D02*
G37*
G36*
X688490D02*
X680720D01*
Y57000D01*
X688490D01*
Y64770D01*
D02*
G37*
G36*
X678180D02*
X670410D01*
Y57000D01*
X678180D01*
Y64770D01*
D02*
G37*
G36*
X446651Y62540D02*
X446270D01*
Y51270D01*
X457540D01*
Y51651D01*
X456685Y54840D01*
X455034Y57700D01*
X452700Y60034D01*
X449840Y61685D01*
X446651Y62540D01*
D02*
G37*
G36*
X443730D02*
X443349D01*
X440160Y61685D01*
X437300Y60034D01*
X434966Y57700D01*
X433315Y54840D01*
X432460Y51651D01*
Y51270D01*
X443730D01*
Y62540D01*
D02*
G37*
G36*
X335318Y61540D02*
X334937D01*
Y50270D01*
X346207D01*
Y50651D01*
X345352Y53840D01*
X343701Y56700D01*
X341366Y59035D01*
X338507Y60685D01*
X335318Y61540D01*
D02*
G37*
G36*
X332397D02*
X332016D01*
X328826Y60685D01*
X325967Y59035D01*
X323632Y56700D01*
X321981Y53840D01*
X321127Y50651D01*
Y50270D01*
X332397D01*
Y61540D01*
D02*
G37*
G36*
X223984Y60810D02*
X223603D01*
Y49540D01*
X234873D01*
Y49921D01*
X234019Y53110D01*
X232368Y55970D01*
X230033Y58305D01*
X227174Y59955D01*
X223984Y60810D01*
D02*
G37*
G36*
X112651D02*
X112270D01*
Y49540D01*
X123540D01*
Y49921D01*
X122685Y53110D01*
X121034Y55970D01*
X118700Y58305D01*
X115840Y59955D01*
X112651Y60810D01*
D02*
G37*
G36*
X109730D02*
X109349D01*
X106160Y59955D01*
X103300Y58305D01*
X100965Y55970D01*
X99315Y53110D01*
X98460Y49921D01*
Y49540D01*
X109730D01*
Y60810D01*
D02*
G37*
G36*
X221063D02*
X220682D01*
X217493Y59955D01*
X214634Y58305D01*
X212299Y55970D01*
X210648Y53110D01*
X209793Y49921D01*
Y49540D01*
X221063D01*
Y60810D01*
D02*
G37*
G36*
X1053651Y60540D02*
X1053270D01*
Y49270D01*
X1064540D01*
Y49651D01*
X1063685Y52840D01*
X1062035Y55700D01*
X1059700Y58035D01*
X1056840Y59685D01*
X1053651Y60540D01*
D02*
G37*
G36*
X1050730D02*
X1050349D01*
X1047160Y59685D01*
X1044300Y58035D01*
X1041965Y55700D01*
X1040315Y52840D01*
X1039460Y49651D01*
Y49270D01*
X1050730D01*
Y60540D01*
D02*
G37*
G36*
X619651Y62540D02*
X616349D01*
X613160Y61685D01*
X610300Y60034D01*
X607966Y57700D01*
X606315Y54840D01*
X605460Y51651D01*
Y48349D01*
X606315Y45160D01*
X607966Y42300D01*
X610300Y39966D01*
X613160Y38315D01*
X616349Y37460D01*
X619651D01*
X622840Y38315D01*
X625700Y39966D01*
X628035Y42300D01*
X629685Y45160D01*
X630540Y48349D01*
Y51651D01*
X629685Y54840D01*
X628035Y57700D01*
X625700Y60034D01*
X622840Y61685D01*
X619651Y62540D01*
D02*
G37*
G36*
X569651D02*
X566349D01*
X563160Y61685D01*
X560300Y60034D01*
X557966Y57700D01*
X556315Y54840D01*
X555460Y51651D01*
Y48349D01*
X556315Y45160D01*
X557966Y42300D01*
X560300Y39966D01*
X563160Y38315D01*
X566349Y37460D01*
X569651D01*
X572840Y38315D01*
X575700Y39966D01*
X578035Y42300D01*
X579685Y45160D01*
X580540Y48349D01*
Y51651D01*
X579685Y54840D01*
X578035Y57700D01*
X575700Y60034D01*
X572840Y61685D01*
X569651Y62540D01*
D02*
G37*
G36*
X496651D02*
X493349D01*
X490160Y61685D01*
X487300Y60034D01*
X484966Y57700D01*
X483315Y54840D01*
X482460Y51651D01*
Y48349D01*
X483315Y45160D01*
X484966Y42300D01*
X487300Y39966D01*
X490160Y38315D01*
X493349Y37460D01*
X496651D01*
X499840Y38315D01*
X502700Y39966D01*
X505034Y42300D01*
X506685Y45160D01*
X507540Y48349D01*
Y51651D01*
X506685Y54840D01*
X505034Y57700D01*
X502700Y60034D01*
X499840Y61685D01*
X496651Y62540D01*
D02*
G37*
G36*
X457540Y48730D02*
X446270D01*
Y37460D01*
X446651D01*
X449840Y38315D01*
X452700Y39966D01*
X455034Y42300D01*
X456685Y45160D01*
X457540Y48349D01*
Y48730D01*
D02*
G37*
G36*
X443730D02*
X432460D01*
Y48349D01*
X433315Y45160D01*
X434966Y42300D01*
X437300Y39966D01*
X440160Y38315D01*
X443349Y37460D01*
X443730D01*
Y48730D01*
D02*
G37*
G36*
X385318Y61540D02*
X382016D01*
X378826Y60685D01*
X375967Y59035D01*
X373632Y56700D01*
X371981Y53840D01*
X371127Y50651D01*
Y47349D01*
X371981Y44160D01*
X373632Y41300D01*
X375967Y38965D01*
X378826Y37315D01*
X382016Y36460D01*
X385318D01*
X388507Y37315D01*
X391366Y38965D01*
X393701Y41300D01*
X395352Y44160D01*
X396207Y47349D01*
Y50651D01*
X395352Y53840D01*
X393701Y56700D01*
X391366Y59035D01*
X388507Y60685D01*
X385318Y61540D01*
D02*
G37*
G36*
X346207Y47730D02*
X334937D01*
Y36460D01*
X335318D01*
X338507Y37315D01*
X341366Y38965D01*
X343701Y41300D01*
X345352Y44160D01*
X346207Y47349D01*
Y47730D01*
D02*
G37*
G36*
X332397D02*
X321127D01*
Y47349D01*
X321981Y44160D01*
X323632Y41300D01*
X325967Y38965D01*
X328826Y37315D01*
X332016Y36460D01*
X332397D01*
Y47730D01*
D02*
G37*
G36*
X273984Y60810D02*
X270682D01*
X267493Y59955D01*
X264634Y58305D01*
X262299Y55970D01*
X260648Y53110D01*
X259793Y49921D01*
Y46619D01*
X260648Y43430D01*
X262299Y40570D01*
X264634Y38235D01*
X267493Y36585D01*
X270682Y35730D01*
X273984D01*
X277174Y36585D01*
X280033Y38235D01*
X282368Y40570D01*
X284019Y43430D01*
X284873Y46619D01*
Y49921D01*
X284019Y53110D01*
X282368Y55970D01*
X280033Y58305D01*
X277174Y59955D01*
X273984Y60810D01*
D02*
G37*
G36*
X234873Y47000D02*
X223603D01*
Y35730D01*
X223984D01*
X227174Y36585D01*
X230033Y38235D01*
X232368Y40570D01*
X234019Y43430D01*
X234873Y46619D01*
Y47000D01*
D02*
G37*
G36*
X221063D02*
X209793D01*
Y46619D01*
X210648Y43430D01*
X212299Y40570D01*
X214634Y38235D01*
X217493Y36585D01*
X220682Y35730D01*
X221063D01*
Y47000D01*
D02*
G37*
G36*
X162651Y60810D02*
X159349D01*
X156160Y59955D01*
X153300Y58305D01*
X150965Y55970D01*
X149315Y53110D01*
X148460Y49921D01*
Y46619D01*
X149315Y43430D01*
X150965Y40570D01*
X153300Y38235D01*
X156160Y36585D01*
X159349Y35730D01*
X162651D01*
X165840Y36585D01*
X168700Y38235D01*
X171035Y40570D01*
X172685Y43430D01*
X173540Y46619D01*
Y49921D01*
X172685Y53110D01*
X171035Y55970D01*
X168700Y58305D01*
X165840Y59955D01*
X162651Y60810D01*
D02*
G37*
G36*
X123540Y47000D02*
X112270D01*
Y35730D01*
X112651D01*
X115840Y36585D01*
X118700Y38235D01*
X121034Y40570D01*
X122685Y43430D01*
X123540Y46619D01*
Y47000D01*
D02*
G37*
G36*
X109730D02*
X98460D01*
Y46619D01*
X99315Y43430D01*
X100965Y40570D01*
X103300Y38235D01*
X106160Y36585D01*
X109349Y35730D01*
X109730D01*
Y47000D01*
D02*
G37*
G36*
X1064540Y46730D02*
X1053270D01*
Y35460D01*
X1053651D01*
X1056840Y36315D01*
X1059700Y37966D01*
X1062035Y40300D01*
X1063685Y43160D01*
X1064540Y46349D01*
Y46730D01*
D02*
G37*
G36*
X1050730D02*
X1039460D01*
Y46349D01*
X1040315Y43160D01*
X1041965Y40300D01*
X1044300Y37966D01*
X1047160Y36315D01*
X1050349Y35460D01*
X1050730D01*
Y46730D01*
D02*
G37*
G36*
X1003651Y60540D02*
X1000349D01*
X997160Y59685D01*
X994300Y58035D01*
X991965Y55700D01*
X990315Y52840D01*
X989460Y49651D01*
Y46349D01*
X990315Y43160D01*
X991965Y40300D01*
X994300Y37966D01*
X997160Y36315D01*
X1000349Y35460D01*
X1003651D01*
X1006840Y36315D01*
X1009700Y37966D01*
X1012035Y40300D01*
X1013685Y43160D01*
X1014540Y46349D01*
Y49651D01*
X1013685Y52840D01*
X1012035Y55700D01*
X1009700Y58035D01*
X1006840Y59685D01*
X1003651Y60540D01*
D02*
G37*
G36*
X1262168Y77540D02*
X1257832D01*
X1253551Y76862D01*
X1249428Y75522D01*
X1245566Y73554D01*
X1242059Y71006D01*
X1238994Y67941D01*
X1236446Y64434D01*
X1234478Y60572D01*
X1233138Y56449D01*
X1232460Y52168D01*
Y47832D01*
X1233138Y43551D01*
X1234478Y39428D01*
X1236446Y35566D01*
X1238994Y32059D01*
X1242059Y28994D01*
X1245566Y26446D01*
X1249428Y24478D01*
X1253551Y23138D01*
X1257832Y22460D01*
X1262168D01*
X1266449Y23138D01*
X1270572Y24478D01*
X1274434Y26446D01*
X1277941Y28994D01*
X1281006Y32059D01*
X1283554Y35566D01*
X1285522Y39428D01*
X1286862Y43551D01*
X1287540Y47832D01*
Y52168D01*
X1286862Y56449D01*
X1285522Y60572D01*
X1283554Y64434D01*
X1281006Y67941D01*
X1277941Y71006D01*
X1274434Y73554D01*
X1270572Y75522D01*
X1266449Y76862D01*
X1262168Y77540D01*
D02*
G37*
G36*
X42168D02*
X37833D01*
X33551Y76862D01*
X29428Y75522D01*
X25566Y73554D01*
X22059Y71006D01*
X18994Y67941D01*
X16446Y64434D01*
X14478Y60572D01*
X13138Y56449D01*
X12460Y52168D01*
Y47832D01*
X13138Y43551D01*
X14478Y39428D01*
X16446Y35566D01*
X18994Y32059D01*
X22059Y28994D01*
X25566Y26446D01*
X29428Y24478D01*
X33551Y23138D01*
X37833Y22460D01*
X42168D01*
X46449Y23138D01*
X50572Y24478D01*
X54434Y26446D01*
X57941Y28994D01*
X61006Y32059D01*
X63554Y35566D01*
X65522Y39428D01*
X66862Y43551D01*
X67540Y47832D01*
Y52168D01*
X66862Y56449D01*
X65522Y60572D01*
X63554Y64434D01*
X61006Y67941D01*
X57941Y71006D01*
X54434Y73554D01*
X50572Y75522D01*
X46449Y76862D01*
X42168Y77540D01*
D02*
G37*
%LPD*%
D11*
X1300000Y0D02*
Y900000D01*
X0D02*
X1300000D01*
X1270Y6350D02*
X1301270D01*
X0Y0D02*
Y900000D01*
X1328170Y499660D02*
X1336634D01*
X1340866Y495428D01*
X1336634Y491196D01*
X1328170D01*
X1334518D01*
Y499660D01*
X1328170Y486964D02*
X1340866D01*
X1328170Y478500D01*
X1340866D01*
Y474268D02*
Y465804D01*
Y470036D01*
X1328170D01*
X1340866Y453108D02*
Y461572D01*
X1328170D01*
Y453108D01*
X1334518Y461572D02*
Y457340D01*
X1328170Y448876D02*
X1340866D01*
X1328170Y440412D01*
X1340866D01*
X1328170Y436181D02*
X1340866D01*
X1328170Y427717D01*
X1340866D01*
X1328170Y423485D02*
X1336634D01*
X1340866Y419253D01*
X1336634Y415021D01*
X1328170D01*
X1334518D01*
Y423485D01*
D13*
X1286770Y556660D02*
G03*
X1286770Y556660I-1000J0D01*
G01*
D14*
X578500Y369000D02*
G03*
X578500Y369000I-5000J0D01*
G01*
X605000Y216000D02*
G03*
X605000Y216000I-5000J0D01*
G01*
X352450Y282210D02*
G03*
X352450Y282210I-5000J0D01*
G01*
X193200Y284080D02*
G03*
X193200Y284080I-5000J0D01*
G01*
X1125270Y753760D02*
X1155270D01*
X1125270Y739760D02*
X1155270D01*
Y753760D01*
X1125270Y739760D02*
Y753760D01*
X1158170Y160320D02*
X1225170D01*
X1158170Y123320D02*
X1225170D01*
Y160320D01*
X1158170Y123320D02*
Y160320D01*
X477500Y378000D02*
X582500D01*
X477500Y328000D02*
X582500D01*
Y378000D01*
X477500Y328000D02*
Y378000D01*
X559000Y185000D02*
Y225000D01*
X609000Y185000D02*
Y225000D01*
X559000Y185000D02*
X609000D01*
X559000Y225000D02*
X609000D01*
X306450Y251210D02*
Y291210D01*
X356450Y251210D02*
Y291210D01*
X306450Y251210D02*
X356450D01*
X306450Y291210D02*
X356450D01*
X147200Y253080D02*
Y293080D01*
X197200Y253080D02*
Y293080D01*
X147200Y253080D02*
X197200D01*
X147200Y293080D02*
X197200D01*
X1084060Y232320D02*
X1105060D01*
X1084060Y219320D02*
X1105060D01*
X1084060D02*
Y232320D01*
X1105060Y219320D02*
Y232320D01*
X1042150Y206920D02*
X1063150D01*
X1042150Y193920D02*
X1063150D01*
X1042150D02*
Y206920D01*
X1063150Y193920D02*
Y206920D01*
X1084060D02*
X1105060D01*
X1084060Y193920D02*
X1105060D01*
X1084060D02*
Y206920D01*
X1105060Y193920D02*
Y206920D01*
X525500Y813500D02*
X546500D01*
X525500Y800500D02*
X546500D01*
X525500D02*
Y813500D01*
X546500Y800500D02*
Y813500D01*
X525500Y776500D02*
X546500D01*
X525500Y789500D02*
X546500D01*
Y776500D02*
Y789500D01*
X525500Y776500D02*
Y789500D01*
X596160Y132230D02*
Y153230D01*
X609160Y132230D02*
Y153230D01*
X596160Y132230D02*
X609160D01*
X596160Y153230D02*
X609160D01*
X1033440Y336700D02*
X1054440D01*
X1033440Y323700D02*
X1054440D01*
X1033440D02*
Y336700D01*
X1054440Y323700D02*
Y336700D01*
X1159360Y592750D02*
Y613750D01*
X1172360Y592750D02*
Y613750D01*
X1159360Y592750D02*
X1172360D01*
X1159360Y613750D02*
X1172360D01*
X1033440Y360830D02*
X1054440D01*
X1033440Y347830D02*
X1054440D01*
X1033440D02*
Y360830D01*
X1054440Y347830D02*
Y360830D01*
X1033440Y552600D02*
X1054440D01*
X1033440Y539600D02*
X1054440D01*
X1033440D02*
Y552600D01*
X1054440Y539600D02*
Y552600D01*
X1033440Y396090D02*
X1054440D01*
X1033440Y409090D02*
X1054440D01*
Y396090D02*
Y409090D01*
X1033440Y396090D02*
Y409090D01*
Y312570D02*
X1054440D01*
X1033440Y299570D02*
X1054440D01*
X1033440D02*
Y312570D01*
X1054440Y299570D02*
Y312570D01*
X1033440Y420220D02*
X1054440D01*
X1033440Y433220D02*
X1054440D01*
Y420220D02*
Y433220D01*
X1033440Y420220D02*
Y433220D01*
Y444350D02*
X1054440D01*
X1033440Y457350D02*
X1054440D01*
Y444350D02*
Y457350D01*
X1033440Y444350D02*
Y457350D01*
Y468480D02*
X1054440D01*
X1033440Y481480D02*
X1054440D01*
Y468480D02*
Y481480D01*
X1033440Y468480D02*
Y481480D01*
Y492610D02*
X1054440D01*
X1033440Y505610D02*
X1054440D01*
Y492610D02*
Y505610D01*
X1033440Y492610D02*
Y505610D01*
Y516740D02*
X1054440D01*
X1033440Y529740D02*
X1054440D01*
Y516740D02*
Y529740D01*
X1033440Y516740D02*
Y529740D01*
X1086970Y592750D02*
Y613750D01*
X1099970Y592750D02*
Y613750D01*
X1086970Y592750D02*
X1099970D01*
X1086970Y613750D02*
X1099970D01*
X1183490Y592750D02*
Y613750D01*
X1196490Y592750D02*
Y613750D01*
X1183490Y592750D02*
X1196490D01*
X1183490Y613750D02*
X1196490D01*
X1207620Y592750D02*
Y613750D01*
X1220620Y592750D02*
Y613750D01*
X1207620Y592750D02*
X1220620D01*
X1207620Y613750D02*
X1220620D01*
X1231750Y592750D02*
Y613750D01*
X1244750Y592750D02*
Y613750D01*
X1231750Y592750D02*
X1244750D01*
X1231750Y613750D02*
X1244750D01*
X609012Y390500D02*
X630012D01*
X609012Y377500D02*
X630012D01*
X609012D02*
Y390500D01*
X630012Y377500D02*
Y390500D01*
X609012Y366500D02*
X630012D01*
X609012Y353500D02*
X630012D01*
X609012D02*
Y366500D01*
X630012Y353500D02*
Y366500D01*
X1033440Y384960D02*
X1054440D01*
X1033440Y371960D02*
X1054440D01*
X1033440D02*
Y384960D01*
X1054440Y371960D02*
Y384960D01*
X1051710Y592750D02*
Y613750D01*
X1038710Y592750D02*
Y613750D01*
X1051710D01*
X1038710Y592750D02*
X1051710D01*
X1075840D02*
Y613750D01*
X1062840Y592750D02*
Y613750D01*
X1075840D01*
X1062840Y592750D02*
X1075840D01*
X1124100D02*
Y613750D01*
X1111100Y592750D02*
Y613750D01*
X1124100D01*
X1111100Y592750D02*
X1124100D01*
X1148230D02*
Y613750D01*
X1135230Y592750D02*
Y613750D01*
X1148230D01*
X1135230Y592750D02*
X1148230D01*
X1138070Y282500D02*
Y303500D01*
X1125070Y282500D02*
Y303500D01*
X1138070D01*
X1125070Y282500D02*
X1138070D01*
X1265070D02*
Y303500D01*
X1252070Y282500D02*
Y303500D01*
X1265070D01*
X1252070Y282500D02*
X1265070D01*
X1240940D02*
Y303500D01*
X1227940Y282500D02*
Y303500D01*
X1240940D01*
X1227940Y282500D02*
X1240940D01*
X1246500Y736500D02*
Y757500D01*
X1259500Y736500D02*
Y757500D01*
X1246500Y736500D02*
X1259500D01*
X1246500Y757500D02*
X1259500D01*
X1235510Y736260D02*
Y757260D01*
X1222510Y736260D02*
Y757260D01*
X1235510D01*
X1222510Y736260D02*
X1235510D01*
X1164440D02*
Y757260D01*
X1177440Y736260D02*
Y757260D01*
X1164440Y736260D02*
X1177440D01*
X1164440Y757260D02*
X1177440D01*
X1107100Y737530D02*
Y758530D01*
X1120100Y737530D02*
Y758530D01*
X1107100Y737530D02*
X1120100D01*
X1107100Y758530D02*
X1120100D01*
X1129770Y769470D02*
X1150770D01*
X1129770Y782470D02*
X1150770D01*
Y769470D02*
Y782470D01*
X1129770Y769470D02*
Y782470D01*
X1101500Y282500D02*
Y303500D01*
X1114500Y282500D02*
Y303500D01*
X1101500Y282500D02*
X1114500D01*
X1101500Y303500D02*
X1114500D01*
X162500Y198500D02*
X183500D01*
X162500Y185500D02*
X183500D01*
X162500D02*
Y198500D01*
X183500Y185500D02*
Y198500D01*
X192500Y143500D02*
Y164500D01*
X179500Y143500D02*
Y164500D01*
X192500D01*
X179500Y143500D02*
X192500D01*
X121250Y263850D02*
Y284850D01*
X134250Y263850D02*
Y284850D01*
X121250Y263850D02*
X134250D01*
X121250Y284850D02*
X134250D01*
X242500Y186500D02*
X263500D01*
X242500Y199500D02*
X263500D01*
Y186500D02*
Y199500D01*
X242500Y186500D02*
Y199500D01*
X273500Y143500D02*
Y164500D01*
X260500Y143500D02*
Y164500D01*
X273500D01*
X260500Y143500D02*
X273500D01*
X218500Y262500D02*
Y283500D01*
X205500Y262500D02*
Y283500D01*
X218500D01*
X205500Y262500D02*
X218500D01*
X321500Y199500D02*
X342500D01*
X321500Y186500D02*
X342500D01*
X321500D02*
Y199500D01*
X342500Y186500D02*
Y199500D01*
X352500Y143500D02*
Y164500D01*
X339500Y143500D02*
Y164500D01*
X352500D01*
X339500Y143500D02*
X352500D01*
X285500Y262500D02*
Y283500D01*
X298500Y262500D02*
Y283500D01*
X285500Y262500D02*
X298500D01*
X285500Y283500D02*
X298500D01*
X402500Y186500D02*
X423500D01*
X402500Y199500D02*
X423500D01*
Y186500D02*
Y199500D01*
X402500Y186500D02*
Y199500D01*
X433500Y143500D02*
Y164500D01*
X420500Y143500D02*
Y164500D01*
X433500D01*
X420500Y143500D02*
X433500D01*
X415420Y259440D02*
Y280440D01*
X402420Y259440D02*
Y280440D01*
X415420D01*
X402420Y259440D02*
X415420D01*
X530680Y822620D02*
Y852620D01*
X544680Y822620D02*
Y852620D01*
X530680D02*
X544680D01*
X530680Y822620D02*
X544680D01*
X1181340Y753760D02*
X1211340D01*
X1181340Y739760D02*
X1211340D01*
Y753760D01*
X1181340Y739760D02*
Y753760D01*
X482890Y803830D02*
X503890D01*
X482890Y790830D02*
X503890D01*
X482890D02*
Y803830D01*
X503890Y790830D02*
Y803830D01*
X717110Y615480D02*
X738110D01*
X717110Y602480D02*
X738110D01*
X717110D02*
Y615480D01*
X738110Y602480D02*
Y615480D01*
X1265500Y643500D02*
X1286500D01*
X1265500Y656500D02*
X1286500D01*
Y643500D02*
Y656500D01*
X1265500Y643500D02*
Y656500D01*
X1061880Y219320D02*
Y232320D01*
X1040880Y219320D02*
Y232320D01*
Y219320D02*
X1061880D01*
X1040880Y232320D02*
X1061880D01*
X498500Y430500D02*
X511500D01*
X498500Y409500D02*
X511500D01*
Y430500D01*
X498500Y409500D02*
Y430500D01*
X1067650Y758530D02*
X1080650D01*
X1067650Y737530D02*
X1080650D01*
Y758530D01*
X1067650Y737530D02*
Y758530D01*
X991450D02*
X1004450D01*
X991450Y737530D02*
X1004450D01*
Y758530D01*
X991450Y737530D02*
Y758530D01*
X966050D02*
X979050D01*
X966050Y737530D02*
X979050D01*
Y758530D01*
X966050Y737530D02*
Y758530D01*
X183970Y213240D02*
Y226240D01*
X162970Y213240D02*
Y226240D01*
Y213240D02*
X183970D01*
X162970Y226240D02*
X183970D01*
X185240Y319920D02*
Y332920D01*
X164240Y319920D02*
Y332920D01*
Y319920D02*
X185240D01*
X164240Y332920D02*
X185240D01*
X342500Y212500D02*
Y225500D01*
X321500Y212500D02*
Y225500D01*
Y212500D02*
X342500D01*
X321500Y225500D02*
X342500D01*
X341950Y319320D02*
Y332320D01*
X320950Y319320D02*
Y332320D01*
Y319320D02*
X341950D01*
X320950Y332320D02*
X341950D01*
X1095680Y155630D02*
Y176630D01*
X1108680Y155630D02*
Y176630D01*
X1095680Y155630D02*
X1108680D01*
X1095680Y176630D02*
X1108680D01*
X1196410Y193740D02*
X1217410D01*
X1196410Y206740D02*
X1217410D01*
Y193740D02*
Y206740D01*
X1196410Y193740D02*
Y206740D01*
Y221680D02*
X1217410D01*
X1196410Y234680D02*
X1217410D01*
Y221680D02*
Y234680D01*
X1196410Y221680D02*
Y234680D01*
X1033450Y155630D02*
Y176630D01*
X1046450Y155630D02*
Y176630D01*
X1033450Y155630D02*
X1046450D01*
X1033450Y176630D02*
X1046450D01*
X1059500Y124500D02*
X1080500D01*
X1059500Y137500D02*
X1080500D01*
Y124500D02*
Y137500D01*
X1059500Y124500D02*
Y137500D01*
X562500Y409500D02*
Y430500D01*
X549500Y409500D02*
Y430500D01*
X562500D01*
X549500Y409500D02*
X562500D01*
X536550Y409590D02*
Y430590D01*
X523550Y409590D02*
Y430590D01*
X536550D01*
X523550Y409590D02*
X536550D01*
X482890Y766700D02*
X503890D01*
X482890Y779700D02*
X503890D01*
Y766700D02*
Y779700D01*
X482890Y766700D02*
Y779700D01*
Y816230D02*
X503890D01*
X482890Y829230D02*
X503890D01*
Y816230D02*
Y829230D01*
X482890Y816230D02*
Y829230D01*
Y842900D02*
X503890D01*
X482890Y855900D02*
X503890D01*
Y842900D02*
Y855900D01*
X482890Y842900D02*
Y855900D01*
X717110Y591350D02*
X738110D01*
X717110Y578350D02*
X738110D01*
X717110D02*
Y591350D01*
X738110Y578350D02*
Y591350D01*
X717110Y639610D02*
X738110D01*
X717110Y626610D02*
X738110D01*
X717110D02*
Y639610D01*
X738110Y626610D02*
Y639610D01*
X717110Y665010D02*
X738110D01*
X717110Y652010D02*
X738110D01*
X717110D02*
Y665010D01*
X738110Y652010D02*
Y665010D01*
X1265500Y681500D02*
X1286500D01*
X1265500Y668500D02*
X1286500D01*
X1265500D02*
Y681500D01*
X1286500Y668500D02*
Y681500D01*
X1265500Y593500D02*
X1286500D01*
X1265500Y606500D02*
X1286500D01*
Y593500D02*
Y606500D01*
X1265500Y593500D02*
Y606500D01*
Y618500D02*
X1286500D01*
X1265500Y631500D02*
X1286500D01*
Y618500D02*
Y631500D01*
X1265500Y618500D02*
Y631500D01*
X1229500Y779500D02*
Y800500D01*
X1216500Y779500D02*
Y800500D01*
X1229500D01*
X1216500Y779500D02*
X1229500D01*
X1055250Y737530D02*
Y758530D01*
X1042250Y737530D02*
Y758530D01*
X1055250D01*
X1042250Y737530D02*
X1055250D01*
X1029850D02*
Y758530D01*
X1016850Y737530D02*
Y758530D01*
X1029850D01*
X1016850Y737530D02*
X1029850D01*
X953650D02*
Y758530D01*
X940650Y737530D02*
Y758530D01*
X953650D01*
X940650Y737530D02*
X953650D01*
X93310Y263850D02*
Y284850D01*
X106310Y263850D02*
Y284850D01*
X93310Y263850D02*
X106310D01*
X93310Y284850D02*
X106310D01*
X243500Y262500D02*
Y283500D01*
X230500Y262500D02*
Y283500D01*
X243500D01*
X230500Y262500D02*
X243500D01*
X260500D02*
Y283500D01*
X273500Y262500D02*
Y283500D01*
X260500Y262500D02*
X273500D01*
X260500Y283500D02*
X273500D01*
X383416Y259440D02*
Y280440D01*
X370416Y259440D02*
Y280440D01*
X383416D01*
X370416Y259440D02*
X383416D01*
X1140270Y741760D02*
Y751760D01*
X1135270Y746760D02*
X1145270D01*
X1191670Y136820D02*
Y146820D01*
X1186670Y141820D02*
X1196670D01*
X530000Y348000D02*
Y358000D01*
X525000Y353000D02*
X535000D01*
X579000Y205000D02*
X589000D01*
X584000Y200000D02*
Y210000D01*
X326450Y271210D02*
X336450D01*
X331450Y266210D02*
Y276210D01*
X167200Y273080D02*
X177200D01*
X172200Y268080D02*
Y278080D01*
X1094560Y220820D02*
Y230820D01*
X1089560Y225820D02*
X1099560D01*
X1052650Y195420D02*
Y205420D01*
X1047650Y200420D02*
X1057650D01*
X1094560Y195420D02*
Y205420D01*
X1089560Y200420D02*
X1099560D01*
X536000Y802000D02*
Y812000D01*
X531000Y807000D02*
X541000D01*
X536000Y778000D02*
Y788000D01*
X531000Y783000D02*
X541000D01*
X597660Y142730D02*
X607660D01*
X602660Y137730D02*
Y147730D01*
X1043940Y325200D02*
Y335200D01*
X1038940Y330200D02*
X1048940D01*
X1160860Y603250D02*
X1170860D01*
X1165860Y598250D02*
Y608250D01*
X1043940Y349330D02*
Y359330D01*
X1038940Y354330D02*
X1048940D01*
X1043940Y541100D02*
Y551100D01*
X1038940Y546100D02*
X1048940D01*
X1043940Y397590D02*
Y407590D01*
X1038940Y402590D02*
X1048940D01*
X1043940Y301070D02*
Y311070D01*
X1038940Y306070D02*
X1048940D01*
X1043940Y421720D02*
Y431720D01*
X1038940Y426720D02*
X1048940D01*
X1043940Y445850D02*
Y455850D01*
X1038940Y450850D02*
X1048940D01*
X1043940Y469980D02*
Y479980D01*
X1038940Y474980D02*
X1048940D01*
X1043940Y494110D02*
Y504110D01*
X1038940Y499110D02*
X1048940D01*
X1043940Y518240D02*
Y528240D01*
X1038940Y523240D02*
X1048940D01*
X1088470Y603250D02*
X1098470D01*
X1093470Y598250D02*
Y608250D01*
X1184990Y603250D02*
X1194990D01*
X1189990Y598250D02*
Y608250D01*
X1209120Y603250D02*
X1219120D01*
X1214120Y598250D02*
Y608250D01*
X1233250Y603250D02*
X1243250D01*
X1238250Y598250D02*
Y608250D01*
X619512Y379000D02*
Y389000D01*
X614512Y384000D02*
X624512D01*
X619512Y355000D02*
Y365000D01*
X614512Y360000D02*
X624512D01*
X1043940Y373460D02*
Y383460D01*
X1038940Y378460D02*
X1048940D01*
X1040210Y603250D02*
X1050210D01*
X1045210Y598250D02*
Y608250D01*
X1064340Y603250D02*
X1074340D01*
X1069340Y598250D02*
Y608250D01*
X1112600Y603250D02*
X1122600D01*
X1117600Y598250D02*
Y608250D01*
X1136730Y603250D02*
X1146730D01*
X1141730Y598250D02*
Y608250D01*
X1126570Y293000D02*
X1136570D01*
X1131570Y288000D02*
Y298000D01*
X1253570Y293000D02*
X1263570D01*
X1258570Y288000D02*
Y298000D01*
X1229440Y293000D02*
X1239440D01*
X1234440Y288000D02*
Y298000D01*
X1248000Y747000D02*
X1258000D01*
X1253000Y742000D02*
Y752000D01*
X1224010Y746760D02*
X1234010D01*
X1229010Y741760D02*
Y751760D01*
X1165940Y746760D02*
X1175940D01*
X1170940Y741760D02*
Y751760D01*
X1108600Y748030D02*
X1118600D01*
X1113600Y743030D02*
Y753030D01*
X1140270Y770970D02*
Y780970D01*
X1135270Y775970D02*
X1145270D01*
X1103000Y293000D02*
X1113000D01*
X1108000Y288000D02*
Y298000D01*
X173000Y187000D02*
Y197000D01*
X168000Y192000D02*
X178000D01*
X181000Y154000D02*
X191000D01*
X186000Y149000D02*
Y159000D01*
X122750Y274350D02*
X132750D01*
X127750Y269350D02*
Y279350D01*
X253000Y188000D02*
Y198000D01*
X248000Y193000D02*
X258000D01*
X262000Y154000D02*
X272000D01*
X267000Y149000D02*
Y159000D01*
X207000Y273000D02*
X217000D01*
X212000Y268000D02*
Y278000D01*
X332000Y188000D02*
Y198000D01*
X327000Y193000D02*
X337000D01*
X341000Y154000D02*
X351000D01*
X346000Y149000D02*
Y159000D01*
X287000Y273000D02*
X297000D01*
X292000Y268000D02*
Y278000D01*
X413000Y188000D02*
Y198000D01*
X408000Y193000D02*
X418000D01*
X422000Y154000D02*
X432000D01*
X427000Y149000D02*
Y159000D01*
X403920Y269940D02*
X413920D01*
X408920Y264940D02*
Y274940D01*
X532680Y837620D02*
X542680D01*
X537680Y832620D02*
Y842620D01*
X1196340Y741760D02*
Y751760D01*
X1191340Y746760D02*
X1201340D01*
X493390Y792330D02*
Y802330D01*
X488390Y797330D02*
X498390D01*
X727610Y603980D02*
Y613980D01*
X722610Y608980D02*
X732610D01*
X1276000Y645000D02*
Y655000D01*
X1271000Y650000D02*
X1281000D01*
X1046380Y225820D02*
X1056380D01*
X1051380Y220820D02*
Y230820D01*
X505000Y415000D02*
Y425000D01*
X500000Y420000D02*
X510000D01*
X1074150Y743030D02*
Y753030D01*
X1069150Y748030D02*
X1079150D01*
X997950Y743030D02*
Y753030D01*
X992950Y748030D02*
X1002950D01*
X972550Y743030D02*
Y753030D01*
X967550Y748030D02*
X977550D01*
X168470Y219740D02*
X178470D01*
X173470Y214740D02*
Y224740D01*
X169740Y326420D02*
X179740D01*
X174740Y321420D02*
Y331420D01*
X327000Y219000D02*
X337000D01*
X332000Y214000D02*
Y224000D01*
X326450Y325820D02*
X336450D01*
X331450Y320820D02*
Y330820D01*
X1097180Y166130D02*
X1107180D01*
X1102180Y161130D02*
Y171130D01*
X1206910Y195240D02*
Y205240D01*
X1201910Y200240D02*
X1211910D01*
X1206910Y223180D02*
Y233180D01*
X1201910Y228180D02*
X1211910D01*
X1034950Y166130D02*
X1044950D01*
X1039950Y161130D02*
Y171130D01*
X1070000Y126000D02*
Y136000D01*
X1065000Y131000D02*
X1075000D01*
X551000Y420000D02*
X561000D01*
X556000Y415000D02*
Y425000D01*
X525050Y420090D02*
X535050D01*
X530050Y415090D02*
Y425090D01*
X493390Y768200D02*
Y778200D01*
X488390Y773200D02*
X498390D01*
X493390Y817730D02*
Y827730D01*
X488390Y822730D02*
X498390D01*
X493390Y844400D02*
Y854400D01*
X488390Y849400D02*
X498390D01*
X727610Y579850D02*
Y589850D01*
X722610Y584850D02*
X732610D01*
X727610Y628110D02*
Y638110D01*
X722610Y633110D02*
X732610D01*
X727610Y653510D02*
Y663510D01*
X722610Y658510D02*
X732610D01*
X1276000Y670000D02*
Y680000D01*
X1271000Y675000D02*
X1281000D01*
X1276000Y595000D02*
Y605000D01*
X1271000Y600000D02*
X1281000D01*
X1276000Y620000D02*
Y630000D01*
X1271000Y625000D02*
X1281000D01*
X1218000Y790000D02*
X1228000D01*
X1223000Y785000D02*
Y795000D01*
X1043750Y748030D02*
X1053750D01*
X1048750Y743030D02*
Y753030D01*
X1018350Y748030D02*
X1028350D01*
X1023350Y743030D02*
Y753030D01*
X942150Y748030D02*
X952150D01*
X947150Y743030D02*
Y753030D01*
X94810Y274350D02*
X104810D01*
X99810Y269350D02*
Y279350D01*
X232000Y273000D02*
X242000D01*
X237000Y268000D02*
Y278000D01*
X262000Y273000D02*
X272000D01*
X267000Y268000D02*
Y278000D01*
X371916Y269940D02*
X381916D01*
X376916Y264940D02*
Y274940D01*
D15*
X1360670Y364660D02*
Y544660D01*
X1300670Y364660D02*
X1360670D01*
X1105670D02*
X1300670D01*
X1105670D02*
Y544660D01*
X1300670D01*
X1360670D01*
X1300670Y364660D02*
Y544660D01*
D16*
X1122770Y766010D02*
X1157770D01*
X1122770Y727510D02*
X1157770D01*
Y766010D01*
X1122770Y727510D02*
Y766010D01*
X1155670Y184320D02*
X1227670D01*
X1155670Y99320D02*
X1227670D01*
Y184320D01*
X1155670Y99320D02*
Y184320D01*
X475000Y397000D02*
X585000D01*
X475000Y309000D02*
X585000D01*
Y397000D01*
X475000Y309000D02*
Y397000D01*
X556500Y168000D02*
Y242000D01*
X611500Y168000D02*
Y242000D01*
X556500Y168000D02*
X611500D01*
X556500Y242000D02*
X611500D01*
X303950Y234210D02*
Y308210D01*
X358950Y234210D02*
Y308210D01*
X303950Y234210D02*
X358950D01*
X303950Y308210D02*
X358950D01*
X144700Y236080D02*
Y310080D01*
X199700Y236080D02*
Y310080D01*
X144700Y236080D02*
X199700D01*
X144700Y310080D02*
X199700D01*
X1098170Y552160D02*
X1363170D01*
Y357160D02*
Y552160D01*
X1098170Y357160D02*
X1363170D01*
X1098170D02*
Y552160D01*
X1073560Y237820D02*
X1115560D01*
X1073560Y213820D02*
X1115560D01*
X1073560D02*
Y237820D01*
X1115560Y213820D02*
Y237820D01*
X1031650Y212420D02*
X1073650D01*
X1031650Y188420D02*
X1073650D01*
X1031650D02*
Y212420D01*
X1073650Y188420D02*
Y212420D01*
X1073560D02*
X1115560D01*
X1073560Y188420D02*
X1115560D01*
X1073560D02*
Y212420D01*
X1115560Y188420D02*
Y212420D01*
X515000Y819000D02*
X557000D01*
X515000Y795000D02*
X557000D01*
X515000D02*
Y819000D01*
X557000Y795000D02*
Y819000D01*
X515000Y771000D02*
X557000D01*
X515000Y795000D02*
X557000D01*
Y771000D02*
Y795000D01*
X515000Y771000D02*
Y795000D01*
X590660Y121730D02*
Y163730D01*
X614660Y121730D02*
Y163730D01*
X590660Y121730D02*
X614660D01*
X590660Y163730D02*
X614660D01*
X1022940Y342200D02*
X1064940D01*
X1022940Y318200D02*
X1064940D01*
X1022940D02*
Y342200D01*
X1064940Y318200D02*
Y342200D01*
X1153860Y582250D02*
Y624250D01*
X1177860Y582250D02*
Y624250D01*
X1153860Y582250D02*
X1177860D01*
X1153860Y624250D02*
X1177860D01*
X1022940Y366330D02*
X1064940D01*
X1022940Y342330D02*
X1064940D01*
X1022940D02*
Y366330D01*
X1064940Y342330D02*
Y366330D01*
X1022940Y558100D02*
X1064940D01*
X1022940Y534100D02*
X1064940D01*
X1022940D02*
Y558100D01*
X1064940Y534100D02*
Y558100D01*
X1022940Y390590D02*
X1064940D01*
X1022940Y414590D02*
X1064940D01*
Y390590D02*
Y414590D01*
X1022940Y390590D02*
Y414590D01*
X1022940Y318070D02*
X1064940D01*
X1022940Y294070D02*
X1064940D01*
X1022940D02*
Y318070D01*
X1064940Y294070D02*
Y318070D01*
X1022940Y414720D02*
X1064940D01*
X1022940Y438720D02*
X1064940D01*
Y414720D02*
Y438720D01*
X1022940Y414720D02*
Y438720D01*
Y438850D02*
X1064940D01*
X1022940Y462850D02*
X1064940D01*
Y438850D02*
Y462850D01*
X1022940Y438850D02*
Y462850D01*
Y462980D02*
X1064940D01*
X1022940Y486980D02*
X1064940D01*
Y462980D02*
Y486980D01*
X1022940Y462980D02*
Y486980D01*
Y487110D02*
X1064940D01*
X1022940Y511110D02*
X1064940D01*
Y487110D02*
Y511110D01*
X1022940Y487110D02*
Y511110D01*
Y511240D02*
X1064940D01*
X1022940Y535240D02*
X1064940D01*
Y511240D02*
Y535240D01*
X1022940Y511240D02*
Y535240D01*
X1081470Y582250D02*
Y624250D01*
X1105470Y582250D02*
Y624250D01*
X1081470Y582250D02*
X1105470D01*
X1081470Y624250D02*
X1105470D01*
X1177990Y582250D02*
Y624250D01*
X1201990Y582250D02*
Y624250D01*
X1177990Y582250D02*
X1201990D01*
X1177990Y624250D02*
X1201990D01*
X1202120Y582250D02*
Y624250D01*
X1226120Y582250D02*
Y624250D01*
X1202120Y582250D02*
X1226120D01*
X1202120Y624250D02*
X1226120D01*
X1226250Y582250D02*
Y624250D01*
X1250250Y582250D02*
Y624250D01*
X1226250Y582250D02*
X1250250D01*
X1226250Y624250D02*
X1250250D01*
X598512Y396000D02*
X640512D01*
X598512Y372000D02*
X640512D01*
X598512D02*
Y396000D01*
X640512Y372000D02*
Y396000D01*
X598512Y372000D02*
X640512D01*
X598512Y348000D02*
X640512D01*
X598512D02*
Y372000D01*
X640512Y348000D02*
Y372000D01*
X1022940Y390460D02*
X1064940D01*
X1022940Y366460D02*
X1064940D01*
X1022940D02*
Y390460D01*
X1064940Y366460D02*
Y390460D01*
X1057210Y582250D02*
Y624250D01*
X1033210Y582250D02*
Y624250D01*
X1057210D01*
X1033210Y582250D02*
X1057210D01*
X1081340D02*
Y624250D01*
X1057340Y582250D02*
Y624250D01*
X1081340D01*
X1057340Y582250D02*
X1081340D01*
X1129600D02*
Y624250D01*
X1105600Y582250D02*
Y624250D01*
X1129600D01*
X1105600Y582250D02*
X1129600D01*
X1153730D02*
Y624250D01*
X1129730Y582250D02*
Y624250D01*
X1153730D01*
X1129730Y582250D02*
X1153730D01*
X1143570Y272000D02*
Y314000D01*
X1119570Y272000D02*
Y314000D01*
X1143570D01*
X1119570Y272000D02*
X1143570D01*
X1270570D02*
Y314000D01*
X1246570Y272000D02*
Y314000D01*
X1270570D01*
X1246570Y272000D02*
X1270570D01*
X1246440D02*
Y314000D01*
X1222440Y272000D02*
Y314000D01*
X1246440D01*
X1222440Y272000D02*
X1246440D01*
X1241000Y726000D02*
Y768000D01*
X1265000Y726000D02*
Y768000D01*
X1241000Y726000D02*
X1265000D01*
X1241000Y768000D02*
X1265000D01*
X1241010Y725760D02*
Y767760D01*
X1217010Y725760D02*
Y767760D01*
X1241010D01*
X1217010Y725760D02*
X1241010D01*
X1158940Y725760D02*
Y767760D01*
X1182940Y725760D02*
Y767760D01*
X1158940Y725760D02*
X1182940D01*
X1158940Y767760D02*
X1182940D01*
X1101600Y727030D02*
Y769030D01*
X1125600Y727030D02*
Y769030D01*
X1101600Y727030D02*
X1125600D01*
X1101600Y769030D02*
X1125600D01*
X1119270Y763970D02*
X1161270D01*
X1119270Y787970D02*
X1161270D01*
Y763970D02*
Y787970D01*
X1119270Y763970D02*
Y787970D01*
X1096000Y272000D02*
Y314000D01*
X1120000Y272000D02*
Y314000D01*
X1096000Y272000D02*
X1120000D01*
X1096000Y314000D02*
X1120000D01*
X152000Y204000D02*
X194000D01*
X152000Y180000D02*
X194000D01*
X152000D02*
Y204000D01*
X194000Y180000D02*
Y204000D01*
X198000Y133000D02*
Y175000D01*
X174000Y133000D02*
Y175000D01*
X198000D01*
X174000Y133000D02*
X198000D01*
X115750Y253350D02*
Y295350D01*
X139750Y253350D02*
Y295350D01*
X115750Y253350D02*
X139750D01*
X115750Y295350D02*
X139750D01*
X232000Y181000D02*
X274000D01*
X232000Y205000D02*
X274000D01*
Y181000D02*
Y205000D01*
X232000Y181000D02*
Y205000D01*
X279000Y133000D02*
Y175000D01*
X255000Y133000D02*
Y175000D01*
X279000D01*
X255000Y133000D02*
X279000D01*
X224000Y252000D02*
Y294000D01*
X200000Y252000D02*
Y294000D01*
X224000D01*
X200000Y252000D02*
X224000D01*
X311000Y205000D02*
X353000D01*
X311000Y181000D02*
X353000D01*
X311000D02*
Y205000D01*
X353000Y181000D02*
Y205000D01*
X358000Y133000D02*
Y175000D01*
X334000Y133000D02*
Y175000D01*
X358000D01*
X334000Y133000D02*
X358000D01*
X280000Y252000D02*
Y294000D01*
X304000Y252000D02*
Y294000D01*
X280000Y252000D02*
X304000D01*
X280000Y294000D02*
X304000D01*
X392000Y181000D02*
X434000D01*
X392000Y205000D02*
X434000D01*
Y181000D02*
Y205000D01*
X392000Y181000D02*
Y205000D01*
X439000Y133000D02*
Y175000D01*
X415000Y133000D02*
Y175000D01*
X439000D01*
X415000Y133000D02*
X439000D01*
X420920Y248940D02*
Y290940D01*
X396920Y248940D02*
Y290940D01*
X420920D01*
X396920Y248940D02*
X420920D01*
X518430Y820120D02*
Y855120D01*
X556930Y820120D02*
Y855120D01*
X518430D02*
X556930D01*
X518430Y820120D02*
X556930D01*
X1178840Y766010D02*
X1213840D01*
X1178840Y727510D02*
X1213840D01*
Y766010D01*
X1178840Y727510D02*
Y766010D01*
X472390Y809330D02*
X514390D01*
X472390Y785330D02*
X514390D01*
X472390D02*
Y809330D01*
X514390Y785330D02*
Y809330D01*
X706610Y620980D02*
X748610D01*
X706610Y596980D02*
X748610D01*
X706610D02*
Y620980D01*
X748610Y596980D02*
Y620980D01*
X1255000Y638000D02*
X1297000D01*
X1255000Y662000D02*
X1297000D01*
Y638000D02*
Y662000D01*
X1255000Y638000D02*
Y662000D01*
X1072880Y213320D02*
Y238320D01*
X1029880Y213320D02*
Y238320D01*
Y213320D02*
X1072880D01*
X1029880Y238320D02*
X1072880D01*
X492500Y441500D02*
X517500D01*
X492500Y398500D02*
X517500D01*
Y441500D01*
X492500Y398500D02*
Y441500D01*
X1061650Y769530D02*
X1086650D01*
X1061650Y726530D02*
X1086650D01*
Y769530D01*
X1061650Y726530D02*
Y769530D01*
X985450D02*
X1010450D01*
X985450Y726530D02*
X1010450D01*
Y769530D01*
X985450Y726530D02*
Y769530D01*
X960050D02*
X985050D01*
X960050Y726530D02*
X985050D01*
Y769530D01*
X960050Y726530D02*
Y769530D01*
X194970Y207240D02*
Y232240D01*
X151970Y207240D02*
Y232240D01*
Y207240D02*
X194970D01*
X151970Y232240D02*
X194970D01*
X196240Y313920D02*
Y338920D01*
X153240Y313920D02*
Y338920D01*
Y313920D02*
X196240D01*
X153240Y338920D02*
X196240D01*
X353500Y206500D02*
Y231500D01*
X310500Y206500D02*
Y231500D01*
Y206500D02*
X353500D01*
X310500Y231500D02*
X353500D01*
X352950Y313320D02*
Y338320D01*
X309950Y313320D02*
Y338320D01*
Y313320D02*
X352950D01*
X309950Y338320D02*
X352950D01*
X1089680Y144630D02*
Y187630D01*
X1114680Y144630D02*
Y187630D01*
X1089680Y144630D02*
X1114680D01*
X1089680Y187630D02*
X1114680D01*
X1185410Y187740D02*
X1228410D01*
X1185410Y212740D02*
X1228410D01*
Y187740D02*
Y212740D01*
X1185410Y187740D02*
Y212740D01*
Y215680D02*
X1228410D01*
X1185410Y240680D02*
X1228410D01*
Y215680D02*
Y240680D01*
X1185410Y215680D02*
Y240680D01*
X1027450Y144630D02*
Y187630D01*
X1052450Y144630D02*
Y187630D01*
X1027450Y144630D02*
X1052450D01*
X1027450Y187630D02*
X1052450D01*
X1048500Y118500D02*
X1091500D01*
X1048500Y143500D02*
X1091500D01*
Y118500D02*
Y143500D01*
X1048500Y118500D02*
Y143500D01*
X568500Y398500D02*
Y441500D01*
X543500Y398500D02*
Y441500D01*
X568500D01*
X543500Y398500D02*
X568500D01*
X542550Y398590D02*
Y441590D01*
X517550Y398590D02*
Y441590D01*
X542550D01*
X517550Y398590D02*
X542550D01*
X471890Y760700D02*
X514890D01*
X471890Y785700D02*
X514890D01*
Y760700D02*
Y785700D01*
X471890Y760700D02*
Y785700D01*
Y810230D02*
X514890D01*
X471890Y835230D02*
X514890D01*
Y810230D02*
Y835230D01*
X471890Y810230D02*
Y835230D01*
Y836900D02*
X514890D01*
X471890Y861900D02*
X514890D01*
Y836900D02*
Y861900D01*
X471890Y836900D02*
Y861900D01*
X706110Y597350D02*
X749110D01*
X706110Y572350D02*
X749110D01*
X706110D02*
Y597350D01*
X749110Y572350D02*
Y597350D01*
X706110Y645610D02*
X749110D01*
X706110Y620610D02*
X749110D01*
X706110D02*
Y645610D01*
X749110Y620610D02*
Y645610D01*
X706110Y671010D02*
X749110D01*
X706110Y646010D02*
X749110D01*
X706110D02*
Y671010D01*
X749110Y646010D02*
Y671010D01*
X1254500Y687500D02*
X1297500D01*
X1254500Y662500D02*
X1297500D01*
X1254500D02*
Y687500D01*
X1297500Y662500D02*
Y687500D01*
X1254500Y587500D02*
X1297500D01*
X1254500Y612500D02*
X1297500D01*
Y587500D02*
Y612500D01*
X1254500Y587500D02*
Y612500D01*
X1297500D01*
X1254500Y637500D02*
X1297500D01*
Y612500D02*
Y637500D01*
X1254500Y612500D02*
Y637500D01*
X1235500Y768500D02*
Y811500D01*
X1210500Y768500D02*
Y811500D01*
X1235500D01*
X1210500Y768500D02*
X1235500D01*
X1061250Y726530D02*
Y769530D01*
X1036250Y726530D02*
Y769530D01*
X1061250D01*
X1036250Y726530D02*
X1061250D01*
X1035850D02*
Y769530D01*
X1010850Y726530D02*
Y769530D01*
X1035850D01*
X1010850Y726530D02*
X1035850D01*
X959650D02*
Y769530D01*
X934650Y726530D02*
Y769530D01*
X959650D01*
X934650Y726530D02*
X959650D01*
X87310Y252850D02*
Y295850D01*
X112310Y252850D02*
Y295850D01*
X87310Y252850D02*
X112310D01*
X87310Y295850D02*
X112310D01*
X249500Y251500D02*
Y294500D01*
X224500Y251500D02*
Y294500D01*
X249500D01*
X224500Y251500D02*
X249500D01*
X254500Y251500D02*
Y294500D01*
X279500Y251500D02*
Y294500D01*
X254500Y251500D02*
X279500D01*
X254500Y294500D02*
X279500D01*
X389416Y248440D02*
Y291440D01*
X364416Y248440D02*
Y291440D01*
X389416D01*
X364416Y248440D02*
X389416D01*
D63*
X882650Y66040D02*
D03*
Y91440D02*
D03*
Y116840D02*
D03*
Y193040D02*
D03*
Y167640D02*
D03*
Y142240D02*
D03*
X679450Y193040D02*
D03*
Y167640D02*
D03*
Y142240D02*
D03*
Y91440D02*
D03*
Y116840D02*
D03*
D64*
Y66040D02*
D03*
D65*
X1215570Y469660D02*
D03*
Y483660D02*
D03*
Y455660D02*
D03*
X1201570Y483660D02*
D03*
Y469660D02*
D03*
Y455660D02*
D03*
X1222570Y476660D02*
D03*
Y462660D02*
D03*
X1208570Y476660D02*
D03*
Y462660D02*
D03*
X1194570Y476660D02*
D03*
Y462660D02*
D03*
D66*
X1002000Y48000D02*
D03*
X1052000D02*
D03*
X568000Y50000D02*
D03*
X618000D02*
D03*
X111000Y48270D02*
D03*
X161000D02*
D03*
X222333D02*
D03*
X272333D02*
D03*
X333667Y49000D02*
D03*
X383667D02*
D03*
X445000Y50000D02*
D03*
X495000D02*
D03*
D67*
X602660Y108440D02*
D03*
X1061720Y847090D02*
D03*
D68*
X577260Y108440D02*
D03*
X1087120Y847090D02*
D03*
X1112520D02*
D03*
X1137920D02*
D03*
X1163320D02*
D03*
X1188720D02*
D03*
X161000Y166700D02*
D03*
X241000D02*
D03*
X321000D02*
D03*
X401300D02*
D03*
D69*
X161000Y141300D02*
D03*
X241000D02*
D03*
X321000D02*
D03*
X401300D02*
D03*
D70*
X1054000Y185000D02*
D03*
X1134000Y128000D02*
D03*
X1080000Y245000D02*
D03*
X1124000Y255000D02*
D03*
X1185000Y258000D02*
D03*
X1242000Y169000D02*
D03*
X1216000Y86000D02*
D03*
X1154000Y87000D02*
D03*
X1012000Y172000D02*
D03*
X702000Y621000D02*
D03*
X560000Y798000D02*
D03*
X176000Y265000D02*
D03*
X197000Y273000D02*
D03*
X114000Y296000D02*
D03*
X1200000Y700000D02*
D03*
Y500000D02*
D03*
Y300000D02*
D03*
X1250000Y200000D02*
D03*
X1100000Y700000D02*
D03*
X1150000Y400000D02*
D03*
X1100000Y100000D02*
D03*
X1050000Y800000D02*
D03*
X1000000Y700000D02*
D03*
X950000Y800000D02*
D03*
X900000Y700000D02*
D03*
X950000Y600000D02*
D03*
X900000Y500000D02*
D03*
Y300000D02*
D03*
X850000Y800000D02*
D03*
X800000Y700000D02*
D03*
X850000Y600000D02*
D03*
X800000Y300000D02*
D03*
X850000Y200000D02*
D03*
X750000Y800000D02*
D03*
X700000Y500000D02*
D03*
X750000Y400000D02*
D03*
X700000Y300000D02*
D03*
X750000Y200000D02*
D03*
X650000Y800000D02*
D03*
X600000Y500000D02*
D03*
Y300000D02*
D03*
X650000Y200000D02*
D03*
X500000Y700000D02*
D03*
X550000Y600000D02*
D03*
X500000Y500000D02*
D03*
Y300000D02*
D03*
X550000Y200000D02*
D03*
X500000Y100000D02*
D03*
X450000Y800000D02*
D03*
X400000Y700000D02*
D03*
X450000Y600000D02*
D03*
X400000Y500000D02*
D03*
X450000Y400000D02*
D03*
X400000Y300000D02*
D03*
X450000Y200000D02*
D03*
X400000Y100000D02*
D03*
X350000Y800000D02*
D03*
X300000Y700000D02*
D03*
X350000Y600000D02*
D03*
X300000Y500000D02*
D03*
Y300000D02*
D03*
Y100000D02*
D03*
X250000Y800000D02*
D03*
X200000Y700000D02*
D03*
X250000Y600000D02*
D03*
X200000Y500000D02*
D03*
X150000Y800000D02*
D03*
X100000Y700000D02*
D03*
X150000Y600000D02*
D03*
X100000Y500000D02*
D03*
X150000Y400000D02*
D03*
Y200000D02*
D03*
X100000Y100000D02*
D03*
D71*
X737184Y558184D02*
D03*
X681000Y661000D02*
D03*
X691000Y674000D02*
D03*
X660000Y673000D02*
D03*
X654512Y384000D02*
D03*
Y361000D02*
D03*
X489000Y753000D02*
D03*
X1241760Y688000D02*
D03*
Y710000D02*
D03*
X1284000Y321000D02*
D03*
X1153000Y268000D02*
D03*
X602667Y261000D02*
D03*
X584333D02*
D03*
X621000D02*
D03*
X589512Y402000D02*
D03*
X1282540Y572460D02*
D03*
X1238250Y632000D02*
D03*
X1258570Y261430D02*
D03*
X1108000Y264000D02*
D03*
X1214120Y632000D02*
D03*
X622750Y177750D02*
D03*
X505000Y452930D02*
D03*
X371500Y193000D02*
D03*
X212500Y192000D02*
D03*
X1165300Y632000D02*
D03*
X1190160D02*
D03*
X1014000Y523000D02*
D03*
X1013000Y499000D02*
D03*
X1044410Y632000D02*
D03*
X1068940D02*
D03*
X1141730D02*
D03*
X1117600D02*
D03*
X1093470D02*
D03*
X566000Y261000D02*
D03*
X1106000Y781000D02*
D03*
X1234440Y260440D02*
D03*
X314000Y388000D02*
D03*
X366250Y235130D02*
D03*
X207000Y237000D02*
D03*
X1141000Y204000D02*
D03*
X1176000Y141000D02*
D03*
X1205000D02*
D03*
X1239000Y133000D02*
D03*
Y149000D02*
D03*
D72*
X40000Y850000D02*
D03*
X1260000D02*
D03*
Y50000D02*
D03*
X40000D02*
D03*
M02*
