M48
;Layer_Color=9474304
;FILE_FORMAT=2:5
INCH,LZ
;TYPE=PLATED
T1F00S00C0.00787
T2F00S00C0.01968
T3F00S00C0.02800
T4F00S00C0.03543
T5F00S00C0.03937
T6F00S00C0.05118
T7F00S00C0.11811
%
T01
X0473059Y0179394
X0478571
Y0184906
X0481327Y018215
Y0187661
X0478571Y0190417
X0473059
X0475815Y0187661
X0473059Y0184906
X0475815Y018215
X0470303
Y0187661
T02
X003937Y003937
X0059055Y007874
X0069291Y0104331
X0077559Y010748
X0044882Y0116535
X011811Y011811
Y003937
X015748
X019685
X0216535Y007874
X0255906
X0295276
X0275591Y011811
X0236221
X019685
X015748
X0177165Y007874
X0334646
X0354331Y011811
X0314961
X0425197Y0096457
X044252Y0100394
X0466535Y0101575
X0446457Y0050394
X0454331Y0034252
X0433071Y003937
X0414961Y0072835
X0398425Y0067716
X0488976Y0066535
X0492126Y007874
X047874Y0033858
X0472441Y011811
Y019685
Y0275591
X0433071
X0393701
X0354331
X0314961
X0334646Y0236221
X0374016
X0354331Y019685
X0452756Y015748
X0295276
X0275591Y019685
X0236221
X019685
X015748
X0177165Y0236221
X0216535
X019685Y0275591
X015748
X0177165Y015748
X0276378Y0244488
X0137795Y0236221
X0098425
X0059055
X007874Y0275591
X011811
Y019685
X007874
X003937
X0059055Y015748
X003937Y0275591
X0059055Y0314961
X0098425
X0137795
X0177165
X0220472Y0314173
X0255906Y0314961
X0295276
X0334646
X0374016
X0413386
T03
X0083661Y007559
X0081496Y0093307
X0144193Y0092571
X014626Y0075984
X0123622Y0152756
X0257682Y0151181
Y0142126
X0244488Y0102756
X023727
X0230052
X0222835
X0245177Y006998
X0449213Y0080315
X0453937Y0105512
X0436221Y0103937
X0462992Y0055512
X0474409
X0487795Y0052362
Y0058661
X0486Y0102535
X04955Y0102925
X0505512Y0126378
X0504937Y0225378
X04875Y0248819
X0478
X0488882Y0270866
Y0279528
X0468567Y0248819
X0458779
X04495
X044
X04305
X0420843
X0411185
X0399213Y0205906
X0398819Y0196457
X0435433Y030748
X0272047Y0265354
X026811Y0260236
X0259842Y0264961
X029023Y0219758
X0232091Y0158268
X0198819Y0178319
X019252Y0296457
T04
X0063386Y005563
Y006563
X0094882
Y005563
X0126378
Y006563
X0157992
Y005563
X0227268Y0042693
X0237268
X0418Y03335
X0428
X0438
X0448
X0458
X0468
T05
X02675Y0026
Y0036
Y0046
Y0056
Y0066
Y0076
X03475
Y0066
Y0056
Y0046
Y0036
Y0026
T06
X0043701Y0019004
X0063386
X0087533
X0107218
X0131365Y0019291
X015105
X0175197Y0019685
X0194882
X0223622
X0243307
X0394488Y0018898
X0414173
T07
X0015748Y0019685
X0496063
X0015748Y0334646
X0496063
M30
