G04*
G04 #@! TF.GenerationSoftware,Altium Limited,Altium Designer,22.0.2 (36)*
G04*
G04 Layer_Color=255*
%FSLAX44Y44*%
%MOMM*%
G71*
G04*
G04 #@! TF.SameCoordinates,DEF1482B-7F84-4A2E-A234-9A9D801D0D5E*
G04*
G04*
G04 #@! TF.FilePolarity,Positive*
G04*
G01*
G75*
%ADD11C,0.2540*%
%ADD63C,1.3000*%
%ADD64R,1.3000X1.3000*%
%ADD65C,0.4000*%
%ADD66C,2.0000*%
%ADD67R,1.5000X1.5000*%
%ADD68C,1.5000*%
%ADD69R,1.5000X1.5000*%
D11*
X1300000D02*
Y900000D01*
X0D02*
X1300000D01*
X1270Y0D02*
X1301270D01*
X0D02*
Y900000D01*
D63*
X882650Y66040D02*
D03*
Y91440D02*
D03*
Y116840D02*
D03*
Y193040D02*
D03*
Y167640D02*
D03*
Y142240D02*
D03*
X679450Y193040D02*
D03*
Y167640D02*
D03*
Y142240D02*
D03*
Y91440D02*
D03*
Y116840D02*
D03*
D64*
Y66040D02*
D03*
D65*
X1215570Y469660D02*
D03*
Y483660D02*
D03*
Y455660D02*
D03*
X1201570Y483660D02*
D03*
Y469660D02*
D03*
Y455660D02*
D03*
X1222570Y476660D02*
D03*
Y462660D02*
D03*
X1208570Y476660D02*
D03*
Y462660D02*
D03*
X1194570Y476660D02*
D03*
Y462660D02*
D03*
D66*
X1002000Y48000D02*
D03*
X1052000D02*
D03*
X568000Y50000D02*
D03*
X618000D02*
D03*
X111000Y48270D02*
D03*
X161000D02*
D03*
X222333D02*
D03*
X272333D02*
D03*
X333667Y49000D02*
D03*
X383667D02*
D03*
X445000Y50000D02*
D03*
X495000D02*
D03*
D67*
X602660Y108440D02*
D03*
X1061720Y847090D02*
D03*
D68*
X577260Y108440D02*
D03*
X1087120Y847090D02*
D03*
X1112520D02*
D03*
X1137920D02*
D03*
X1163320D02*
D03*
X1188720D02*
D03*
X161000Y166700D02*
D03*
X241000D02*
D03*
X321000D02*
D03*
X401300D02*
D03*
D69*
X161000Y141300D02*
D03*
X241000D02*
D03*
X321000D02*
D03*
X401300D02*
D03*
M02*
